{"glyphs":{"0":{"ha":488,"x_min":29,"x_max":432,"o":"m 375 757 q 413 679 399 719 q 425 588 426 639 q 431 557 432 575 q 428 525 431 539 q 429 494 429 511 q 427 458 429 476 q 422 422 425 440 q 415 390 419 404 q 406 338 413 363 q 393 291 400 314 q 378 244 386 268 q 363 193 369 221 q 360 192 360 194 q 357 190 360 190 q 320 103 340 149 q 269 28 300 58 q 242 9 260 18 q 206 3 225 0 q 187 9 194 3 q 169 18 179 15 q 160 18 164 19 q 151 18 157 17 q 129 30 140 21 q 107 47 118 39 q 76 86 93 60 q 60 143 58 113 q 50 167 53 154 q 47 194 47 181 q 44 220 46 207 q 38 246 43 233 q 42 246 40 244 q 32 342 35 290 q 44 433 29 394 q 44 440 46 438 q 43 446 42 442 q 60 497 54 469 q 81 544 67 525 l 81 560 q 85 563 85 558 q 89 567 85 567 q 104 610 93 588 q 128 650 115 633 q 156 698 139 674 q 196 739 172 722 q 231 767 207 757 q 281 781 254 778 q 334 777 308 783 q 375 757 360 771 m 425 521 q 423 527 425 525 q 421 532 421 529 l 425 532 q 421 562 422 546 q 417 594 419 578 q 418 592 417 592 q 419 596 419 593 q 415 609 417 600 q 417 622 413 618 q 408 655 410 636 q 397 686 407 674 l 397 699 q 384 719 390 708 q 371 740 378 731 q 354 756 364 750 q 331 763 344 763 q 367 714 356 744 q 386 644 379 683 q 392 642 392 644 q 396 593 389 614 q 410 544 403 572 q 412 504 407 525 q 414 464 417 483 q 422 474 421 467 q 422 489 422 481 q 421 506 421 497 q 425 521 421 514 m 306 746 q 301 753 304 749 q 297 754 299 758 q 300 748 299 754 q 306 746 301 742 m 278 753 q 254 744 267 750 q 243 728 242 739 q 269 738 254 740 q 297 739 285 736 q 287 744 292 742 q 278 753 282 747 m 319 739 q 314 742 317 738 q 310 743 311 746 q 313 736 310 742 q 319 739 317 731 m 256 696 q 274 698 263 700 q 290 703 285 696 q 268 705 283 706 q 256 696 253 704 m 143 174 q 153 167 149 171 q 154 154 158 163 q 176 151 165 154 q 197 147 186 149 q 217 146 207 144 q 239 154 228 147 q 273 213 258 182 q 303 274 288 243 q 301 278 303 278 q 300 285 299 279 q 305 291 306 283 q 313 296 304 299 q 314 344 310 315 q 324 393 318 374 q 324 459 324 425 q 326 525 324 493 q 321 529 324 526 q 319 607 326 569 q 304 681 311 644 q 301 683 303 682 q 297 686 299 683 q 256 683 274 690 q 223 663 238 676 q 197 632 208 649 q 176 600 186 615 q 172 596 175 597 q 169 592 169 594 q 149 533 156 565 q 132 475 143 501 q 114 375 124 419 q 118 356 121 365 q 114 340 115 346 q 116 318 113 328 q 121 296 119 308 q 119 283 122 289 q 118 269 117 276 q 122 253 118 261 q 128 239 126 246 q 131 224 131 232 q 132 211 131 217 q 143 206 138 206 q 143 190 140 194 q 143 174 146 185 m 326 560 q 331 556 332 560 q 332 465 333 511 q 331 375 331 418 q 338 417 333 396 q 343 461 343 439 q 344 514 343 486 q 342 568 344 542 q 335 618 340 594 q 321 660 331 642 q 323 635 321 649 q 327 608 325 622 q 330 581 329 594 q 326 560 331 568 m 378 293 q 386 309 382 299 q 392 330 390 319 q 397 349 394 340 q 399 360 399 357 q 403 411 403 388 q 407 467 404 435 l 400 467 q 392 378 397 422 q 378 293 386 333 m 415 446 q 418 456 417 449 q 414 463 419 464 q 414 453 417 458 q 415 446 411 449 m 351 436 q 357 433 354 436 q 358 443 356 438 q 357 446 361 449 q 355 442 360 440 q 351 436 350 443 m 107 371 q 108 375 104 376 q 113 376 113 374 q 108 377 108 375 q 103 378 107 379 q 107 371 103 371 m 68 357 q 69 367 68 364 q 67 375 69 369 q 64 365 64 372 q 68 357 64 357 m 335 239 q 361 292 350 258 q 368 351 372 325 q 335 239 356 290 m 93 260 q 85 324 94 294 q 85 288 82 300 q 93 260 89 276 m 103 186 q 106 176 103 182 q 114 178 110 171 q 106 200 107 188 q 93 218 104 213 q 94 201 93 206 q 103 186 96 196 m 63 197 q 63 208 63 203 q 58 215 63 214 q 58 203 58 208 q 63 197 58 199 m 281 107 q 290 116 288 110 q 300 125 293 122 q 319 153 307 139 q 326 182 331 167 q 306 144 319 163 q 281 107 292 125 m 183 114 q 193 111 189 114 q 203 107 197 108 q 203 99 200 100 q 206 96 206 99 q 232 99 222 93 q 247 116 242 106 q 256 139 253 126 q 267 161 260 151 q 247 149 256 157 q 230 132 239 140 q 210 118 221 124 q 183 114 200 113 m 161 143 q 176 132 164 133 q 196 135 189 131 q 179 139 186 135 q 165 146 172 143 q 164 141 165 142 q 161 143 163 140 m 268 79 q 264 63 269 68 q 261 53 258 58 q 297 87 282 64 q 319 132 313 110 q 297 102 308 117 q 268 79 286 88 m 161 111 q 171 103 172 111 q 176 101 175 103 q 179 104 176 99 q 172 110 176 107 q 172 117 168 113 q 166 118 169 115 q 161 117 163 121 q 162 115 164 115 q 161 111 160 114 m 108 86 q 118 92 117 86 q 110 97 111 92 q 103 100 110 103 q 108 94 103 96 q 108 86 113 93 m 107 81 q 101 88 104 85 q 94 96 99 92 q 99 83 94 89 q 107 81 103 78 m 114 72 q 113 76 113 74 l 104 76 q 107 70 101 71 q 114 72 113 69 m 129 61 q 135 61 133 58 q 138 61 138 64 q 139 51 135 58 q 146 47 143 44 q 138 63 143 57 q 129 76 133 68 q 122 75 122 76 q 129 61 129 68 m 218 42 l 243 42 q 257 69 249 57 q 235 60 243 68 q 218 42 226 53 m 158 47 q 170 45 161 51 q 172 35 179 39 q 192 46 186 33 q 183 47 188 44 q 173 50 178 49 q 164 51 168 51 q 158 47 160 51 m 239 19 q 257 30 246 25 q 263 42 268 35 q 249 34 256 38 q 239 19 242 31 m 189 22 q 212 16 196 15 q 231 31 228 17 q 206 35 218 33 q 189 22 193 38 z "},"1":{"ha":326,"x_min":-26,"x_max":322,"o":"m 124 349 q 121 353 126 354 q 114 356 115 353 q 121 362 117 360 q 122 374 125 364 q 131 375 126 374 q 142 378 136 376 q 134 381 139 381 q 126 385 129 382 q 135 433 133 411 q 150 475 136 456 q 149 499 144 486 q 163 517 153 511 q 165 502 168 510 q 161 488 163 494 q 174 507 171 490 q 178 536 178 524 q 172 521 172 532 q 166 520 168 518 q 161 519 164 522 q 165 546 161 535 q 176 568 169 557 q 172 575 172 569 q 157 570 163 575 q 147 560 151 565 q 136 549 142 554 q 122 542 131 543 q 66 491 96 514 q 0 451 36 468 q 3 447 1 444 q 13 447 6 450 q 3 439 8 440 q -6 439 -1 438 q -17 443 -11 440 q -26 446 -22 446 q -20 469 -24 458 q -10 478 -17 479 q 1 531 -10 510 q 19 575 11 551 q 112 684 64 633 q 226 771 160 735 q 268 790 242 786 q 322 790 294 793 q 318 765 322 776 q 310 742 314 754 q 303 719 306 731 q 303 694 300 708 q 294 697 301 697 q 294 687 294 692 q 300 682 294 682 q 288 621 293 654 q 280 552 283 588 q 274 481 276 517 q 268 415 271 446 q 265 403 268 411 q 268 388 263 396 q 265 381 268 381 q 261 378 263 382 q 261 363 258 371 q 263 351 264 354 q 260 342 263 347 q 257 326 258 336 q 247 286 253 307 q 236 244 242 265 q 199 117 221 181 q 149 4 176 54 q 136 7 143 7 q 131 30 132 21 q 126 50 129 39 q 117 44 119 50 q 108 40 115 39 q 97 78 99 57 q 97 122 94 99 q 102 169 99 146 q 108 214 106 193 q 106 228 108 221 q 104 240 104 235 q 109 251 106 247 q 113 258 113 254 q 109 265 111 263 q 114 271 107 267 q 111 273 114 274 q 108 275 108 272 q 113 303 117 286 q 122 329 110 319 q 118 331 122 332 q 114 333 114 331 q 119 343 117 344 q 124 349 121 342 m 172 547 q 178 545 176 547 q 182 542 179 543 q 183 549 179 546 q 182 554 188 553 q 177 550 183 547 q 172 547 171 553 m 50 521 q 57 526 53 526 q 60 533 61 526 q 49 531 53 538 q 50 521 46 524 m 132 294 q 138 311 135 299 q 135 326 140 324 q 130 310 133 319 q 132 294 126 300 m 144 301 q 148 297 149 301 q 154 294 147 293 q 156 303 157 297 q 150 311 154 308 q 148 306 153 306 q 144 301 143 307 m 122 75 q 127 145 129 111 q 126 211 125 179 q 134 255 128 235 q 131 289 140 275 q 122 238 126 265 q 114 181 117 210 q 113 125 111 153 q 122 75 114 97 m 150 86 q 158 85 158 86 q 151 76 151 79 q 151 69 150 72 q 153 63 153 67 q 150 53 154 60 q 159 58 157 53 q 162 69 161 63 q 164 81 163 75 q 171 86 165 86 q 169 101 171 96 q 171 114 168 106 q 158 103 160 113 q 150 86 156 93 m 149 39 q 145 49 143 42 q 149 63 147 56 q 141 58 143 63 q 140 48 139 53 q 142 40 140 43 q 149 39 144 36 z "},"2":{"ha":514,"x_min":60,"x_max":538,"o":"m 107 421 q 95 385 106 404 q 65 363 85 367 q 74 410 60 388 q 99 453 88 432 q 93 459 96 456 q 90 467 90 463 q 94 475 88 472 q 92 479 101 478 q 142 572 121 519 q 188 675 164 625 q 217 723 199 699 q 253 760 236 747 q 274 770 261 767 q 297 776 286 774 q 340 801 317 788 q 392 813 364 814 q 409 807 397 813 q 433 794 421 801 q 456 779 446 788 q 468 765 465 771 q 467 757 469 761 q 469 750 464 753 q 463 677 464 710 q 456 604 463 644 q 446 572 453 586 q 432 543 439 558 q 395 465 415 503 q 356 388 375 426 q 357 383 356 385 q 357 376 358 381 q 313 299 335 339 q 267 221 292 260 q 338 247 299 229 q 417 275 376 265 q 455 284 436 278 q 490 289 474 290 q 513 283 503 288 q 538 288 524 278 q 498 234 522 258 q 446 188 474 210 q 390 143 418 165 q 339 96 363 121 q 333 97 336 96 q 326 96 329 97 q 293 81 310 93 q 257 63 276 69 q 233 59 246 58 q 208 58 219 60 q 157 39 185 54 q 104 17 129 24 q 81 13 93 14 q 63 22 69 11 q 90 64 65 53 q 76 75 86 74 q 90 100 81 88 q 107 124 99 113 q 121 149 115 136 q 125 175 126 161 q 133 179 133 172 q 139 186 132 186 q 158 232 146 210 q 181 275 169 254 q 232 365 204 322 q 285 453 260 408 l 285 465 q 312 511 297 486 q 339 563 326 536 q 358 619 351 590 q 363 678 365 649 q 347 678 354 675 q 331 686 339 682 q 288 634 315 658 q 240 579 260 610 q 216 573 228 579 q 197 556 204 567 q 208 561 204 557 q 219 565 211 565 q 213 556 215 561 q 207 546 210 551 q 176 521 189 535 q 154 491 164 507 q 135 459 144 475 q 111 429 125 443 q 106 436 108 432 q 97 433 103 440 q 100 431 97 431 q 103 433 103 431 q 93 415 101 426 q 81 393 85 403 q 93 403 86 393 q 107 421 100 414 m 214 682 q 241 713 229 694 q 265 746 253 731 q 261 743 261 746 q 231 717 246 732 q 214 682 215 703 m 385 710 q 378 724 388 721 q 378 713 378 717 q 385 710 378 708 m 339 694 q 352 691 346 693 q 361 697 358 689 q 349 706 357 706 q 339 694 340 706 m 235 600 q 256 618 246 610 q 271 642 267 626 q 244 623 257 638 q 235 600 232 608 m 240 344 q 312 449 276 397 q 363 574 347 500 q 365 575 365 574 q 361 575 364 576 q 301 459 333 517 q 240 344 268 401 m 114 447 q 120 458 117 453 q 126 469 124 464 q 115 462 119 469 q 114 447 110 454 m 279 317 q 301 352 286 335 q 317 388 315 369 q 294 353 308 369 q 279 317 279 336 m 224 289 q 235 303 229 294 q 239 317 240 311 q 228 302 236 310 q 224 289 221 294 m 240 240 q 250 251 247 246 q 257 263 253 257 q 254 264 254 263 q 251 265 254 265 q 244 255 249 258 q 240 240 239 251 m 311 194 q 363 215 339 204 q 411 240 388 226 q 358 221 385 231 q 311 194 332 211 m 224 146 q 263 163 246 153 q 294 186 279 174 q 256 169 274 179 q 224 146 239 158 m 233 118 q 251 126 243 118 q 240 124 244 125 q 233 118 235 124 m 304 99 q 328 112 315 107 q 347 126 340 117 q 336 119 343 122 q 322 114 329 117 q 310 108 315 111 q 304 99 304 104 m 253 81 q 299 99 278 85 q 276 90 288 94 q 253 81 264 86 m 139 63 q 167 60 150 56 q 188 75 183 64 q 160 74 174 75 q 139 63 146 74 m 82 31 q 113 33 97 28 q 139 46 128 39 q 128 48 136 49 q 118 50 121 47 q 117 60 118 58 q 118 69 117 63 q 96 54 103 65 q 82 31 89 43 z "},"3":{"ha":522,"x_min":18,"x_max":558,"o":"m 313 432 q 267 424 286 431 q 229 406 247 417 q 194 385 211 396 q 157 368 178 375 q 165 386 158 381 q 181 396 172 392 q 197 404 189 400 q 210 418 206 408 q 201 417 207 421 q 190 419 196 414 q 238 524 214 472 q 286 629 263 576 q 276 643 281 636 q 264 654 272 650 q 227 631 244 643 q 200 600 210 619 q 145 554 168 582 q 94 504 122 526 q 150 510 121 500 q 190 531 179 519 q 181 508 192 517 q 153 495 169 500 q 119 487 136 490 q 92 481 101 483 q 84 480 93 481 q 74 486 75 479 q 60 478 64 486 q 47 476 57 469 q 53 491 44 488 q 63 504 61 494 q 44 495 51 501 q 25 486 36 489 q 24 510 18 496 q 40 531 31 524 q 47 554 38 546 q 64 572 57 563 q 94 622 82 600 q 131 663 107 644 q 158 681 143 672 q 188 697 172 689 q 218 714 204 704 q 242 736 232 724 q 277 749 256 742 q 320 760 299 756 q 361 761 342 764 q 393 744 381 758 q 397 729 396 736 q 393 715 397 722 q 401 708 399 713 q 407 700 404 704 q 398 654 407 672 q 376 622 389 636 q 368 575 375 596 q 354 535 361 554 q 408 540 379 538 q 465 532 438 542 q 487 516 474 522 q 511 503 500 510 q 524 483 519 494 q 539 465 528 472 q 535 307 558 379 q 465 189 513 235 q 450 152 460 171 q 429 117 440 133 q 349 34 397 68 q 249 -25 301 0 q 219 -34 238 -29 q 185 -32 200 -39 q 181 -25 185 -26 q 178 -17 176 -24 q 147 -10 161 -10 q 118 -6 133 -11 q 119 7 115 1 q 126 19 122 13 q 109 48 114 31 q 118 81 104 65 q 111 131 117 106 q 104 183 106 157 q 98 203 96 188 q 108 224 100 219 q 131 220 124 226 q 140 203 138 214 q 144 180 143 193 q 147 156 144 167 q 162 169 154 163 q 182 178 169 175 q 197 160 189 168 q 217 149 204 153 q 263 183 235 165 q 320 222 292 201 q 373 264 349 242 q 407 310 397 286 q 406 326 410 319 q 401 342 403 332 q 395 376 397 358 q 381 404 393 393 q 369 408 374 401 q 367 404 367 408 q 358 414 365 411 q 342 418 351 417 q 325 422 333 419 q 313 432 317 425 m 357 726 q 368 726 364 728 q 379 725 372 724 l 379 739 q 369 745 372 740 q 353 749 367 750 q 355 738 351 742 q 357 726 358 735 m 308 735 q 325 731 315 731 q 340 726 335 732 q 338 738 342 735 q 327 742 333 742 q 315 741 321 743 q 308 735 310 739 m 358 689 q 367 693 365 686 q 363 700 368 700 q 360 694 364 696 q 358 689 357 693 m 376 640 q 390 672 382 653 q 386 700 397 690 q 380 669 386 685 q 376 640 374 653 m 51 535 q 81 562 68 546 q 103 595 93 578 q 125 628 114 613 q 151 657 136 644 q 153 660 153 660 q 150 661 154 661 q 94 603 118 636 q 51 535 71 571 m 321 614 q 325 623 322 618 q 330 634 328 628 q 332 645 332 640 q 328 654 332 650 q 323 633 331 642 q 321 614 315 624 m 322 567 q 330 578 325 571 q 332 590 335 585 q 325 578 331 585 q 322 567 319 571 m 357 513 q 396 510 376 510 q 435 519 415 511 q 394 524 417 522 q 357 513 372 526 m 413 500 q 457 485 440 496 q 492 458 474 474 q 486 489 493 479 q 467 501 479 499 q 441 502 456 504 q 413 500 426 500 m 503 424 q 514 398 513 413 q 513 367 515 383 q 507 333 511 350 q 503 301 503 317 q 494 272 497 290 q 489 242 490 253 q 515 294 504 264 q 530 354 526 324 q 530 415 533 385 q 513 471 526 446 l 507 471 q 504 446 504 458 q 503 424 504 433 m 467 396 q 465 404 465 399 q 467 413 464 410 q 456 423 458 415 q 450 439 453 431 q 443 453 447 447 q 429 460 439 460 q 444 424 436 442 q 467 396 451 407 m 408 442 q 414 436 411 442 q 421 436 417 431 q 418 440 418 436 q 418 446 418 443 q 408 442 410 446 m 379 422 l 379 433 q 355 438 364 433 q 332 436 346 442 q 358 431 346 433 q 379 422 369 429 m 493 381 q 493 365 492 368 q 496 364 494 361 q 497 372 497 367 q 493 381 497 376 m 457 333 q 463 352 461 340 q 453 365 464 364 q 451 349 451 357 q 457 333 450 340 m 231 139 q 260 126 246 126 q 289 134 275 126 q 315 154 303 142 q 339 179 328 167 q 378 233 360 204 q 399 278 397 263 q 319 203 364 235 q 231 139 275 171 m 465 239 q 467 248 465 242 q 467 256 469 254 q 463 247 467 253 q 465 239 460 242 m 386 221 q 353 179 371 197 q 318 142 336 161 q 344 153 332 144 q 366 174 357 163 q 381 199 375 186 q 386 221 386 211 m 132 142 q 130 175 133 156 q 119 210 126 194 q 117 173 110 193 q 132 142 124 153 m 421 174 q 435 187 431 175 q 438 206 440 199 q 428 190 433 197 q 421 174 424 182 m 151 132 q 158 124 156 129 q 163 115 160 119 q 186 132 182 115 q 177 132 182 129 q 167 138 172 135 q 157 140 161 140 q 151 132 153 140 m 168 99 q 190 99 179 100 q 206 106 200 99 q 199 111 199 104 q 190 117 199 118 q 180 108 189 110 q 168 99 171 107 m 226 103 q 238 103 232 103 q 244 110 244 103 q 231 113 236 107 q 221 111 226 118 q 224 108 224 110 q 226 103 224 106 m 279 103 q 259 87 269 94 q 240 71 249 79 q 311 107 283 82 q 295 103 300 108 q 279 103 290 97 m 332 78 q 330 80 329 78 q 328 83 331 82 q 317 69 324 75 q 307 53 310 64 q 337 73 326 58 q 358 103 347 88 q 340 91 344 100 q 332 78 335 82 m 221 88 q 221 78 222 82 q 218 71 219 75 q 231 80 226 74 q 240 93 236 86 q 229 91 233 93 q 221 88 225 89 m 276 25 q 290 27 286 22 q 299 36 293 32 q 286 32 290 36 q 276 25 282 28 m 138 4 q 154 11 153 4 q 138 4 140 11 m 231 -10 q 242 -12 235 -12 q 256 -8 250 -11 q 265 -2 261 -6 q 264 4 268 1 q 244 0 256 1 q 231 -10 233 -1 z "},"4":{"ha":483,"x_min":18,"x_max":447,"o":"m 422 589 q 424 524 424 557 q 433 453 424 490 q 440 446 436 449 q 447 440 444 443 q 442 424 444 432 q 435 408 440 415 q 434 383 435 393 q 426 363 433 374 q 417 272 429 317 q 396 186 406 228 q 378 147 385 168 q 363 106 371 125 q 347 90 351 100 q 338 67 342 79 q 328 45 333 56 q 313 29 324 35 q 299 41 306 36 q 282 47 293 46 q 278 179 274 114 q 294 313 283 244 q 236 292 264 310 q 182 264 208 275 q 127 249 156 253 q 83 232 99 244 q 73 216 75 225 q 64 200 71 207 q 58 212 54 203 q 64 226 61 221 q 44 226 54 224 q 25 231 35 228 q 26 263 18 250 q 47 286 33 276 q 42 322 47 310 q 32 350 38 335 q 35 387 36 368 q 38 422 33 406 q 43 437 39 429 q 50 454 47 444 q 55 481 53 467 q 61 508 57 496 q 73 530 65 519 q 83 553 81 540 q 83 560 85 556 q 83 567 82 564 q 101 600 90 585 q 118 633 111 615 q 120 644 121 638 q 122 657 119 651 q 154 717 138 690 q 189 772 171 743 q 217 792 207 779 q 242 815 226 806 q 257 810 250 814 q 268 804 264 807 q 253 710 265 754 q 228 624 240 665 q 185 500 208 558 q 131 386 161 442 q 119 367 126 375 q 114 344 111 360 q 206 394 158 365 q 306 443 253 424 q 319 477 314 458 q 335 508 324 496 q 353 517 346 510 q 365 531 360 524 q 377 545 371 539 q 394 554 383 551 q 400 573 394 564 q 413 589 406 582 q 419 587 417 592 q 422 589 421 582 m 222 743 q 233 752 229 744 q 232 765 238 760 q 226 754 229 758 q 222 743 222 750 m 204 638 q 217 651 213 642 q 226 671 222 660 q 231 694 229 682 q 232 714 232 706 q 219 675 225 694 q 204 638 213 656 m 78 422 q 83 433 81 429 q 82 443 85 436 q 101 478 96 454 q 110 522 107 503 q 121 545 114 531 q 133 574 128 560 q 142 601 139 589 q 142 621 144 614 q 101 528 121 578 q 78 422 81 478 m 118 485 q 111 474 117 481 q 114 465 106 467 q 142 540 126 501 q 160 619 157 579 q 138 552 150 583 q 118 485 126 521 m 335 394 q 344 398 342 390 q 340 403 347 406 q 338 398 342 399 q 335 394 335 397 m 169 336 q 240 358 206 347 q 299 390 275 369 q 294 396 299 397 q 228 370 261 383 q 169 336 196 357 m 389 213 q 410 305 401 258 q 415 396 418 351 q 405 347 408 369 q 399 303 401 325 q 394 259 396 281 q 389 213 392 238 m 313 306 q 324 314 319 310 q 331 326 329 318 q 317 317 324 324 q 313 306 310 310 m 99 294 q 119 300 114 293 q 128 317 124 307 q 111 310 119 319 q 99 294 103 301 m 328 296 q 322 299 328 299 q 308 265 306 289 q 308 215 310 242 q 320 253 319 228 q 328 296 321 278 m 93 263 q 108 272 104 263 q 93 263 94 272 m 78 253 q 71 260 76 260 q 60 263 65 261 q 65 251 58 251 q 78 253 72 250 m 294 138 q 292 147 289 140 q 289 156 296 153 q 289 150 289 154 q 289 142 289 146 q 290 136 289 138 q 294 138 292 135 m 290 108 q 292 123 288 115 q 289 132 297 131 q 285 117 289 125 q 290 108 281 108 z "},"5":{"ha":514,"x_min":25,"x_max":504,"o":"m 496 853 q 490 836 494 840 q 481 821 486 832 q 492 820 485 815 q 503 818 500 825 q 503 808 503 815 q 501 794 504 800 q 491 785 500 792 q 470 771 482 778 q 449 758 458 764 q 435 753 439 753 q 428 758 428 750 q 422 751 422 757 q 418 743 421 746 q 373 728 394 736 q 336 704 351 719 q 268 679 299 693 q 208 650 238 665 q 203 613 208 633 q 192 572 199 592 q 235 592 213 579 q 283 615 258 604 q 334 631 308 625 q 385 633 360 638 q 416 623 403 631 q 440 605 429 615 q 462 583 451 594 q 486 563 472 572 q 496 485 489 526 q 503 404 503 444 q 491 327 503 364 q 460 257 479 290 q 416 194 440 224 q 368 139 392 164 q 324 99 349 117 q 272 67 300 82 q 236 60 253 64 q 199 63 219 56 q 195 69 199 69 q 193 76 192 69 q 160 96 175 85 q 136 126 144 107 q 90 165 110 136 q 83 224 71 193 q 94 209 92 218 q 99 190 97 200 q 105 170 101 179 q 119 157 108 161 q 127 169 126 161 q 128 185 128 176 q 124 178 122 181 q 124 188 126 176 q 107 215 121 199 q 92 253 93 232 q 100 256 93 256 q 108 253 107 256 q 114 249 115 256 q 114 240 113 243 q 174 233 142 249 q 231 203 207 218 q 260 219 249 206 q 283 240 272 232 q 309 260 296 251 q 331 285 322 269 q 365 314 351 294 q 387 356 378 333 q 403 404 396 379 q 417 450 410 429 q 413 457 418 457 q 411 464 408 457 q 417 467 418 461 q 417 478 415 474 q 389 506 406 493 q 353 518 372 518 q 330 513 343 518 q 306 504 317 507 q 256 495 282 499 q 207 488 231 492 q 163 481 183 485 q 129 468 142 476 q 124 459 126 464 q 120 450 122 454 q 115 444 118 446 q 103 443 111 442 q 107 493 104 471 q 115 536 110 515 q 125 578 119 557 q 138 626 131 600 q 110 621 124 626 q 81 611 96 615 q 53 606 67 607 q 25 614 39 606 q 49 651 33 636 q 83 678 64 667 q 122 701 101 690 q 160 724 142 711 q 169 758 163 743 q 182 790 175 774 q 193 788 189 786 q 204 786 197 790 q 203 771 207 781 q 196 754 200 761 q 222 763 213 753 q 239 785 232 772 q 253 811 246 799 q 272 829 260 824 q 267 806 274 818 q 258 785 261 794 q 374 819 315 797 q 496 853 432 842 m 426 772 q 431 767 431 772 q 435 763 431 763 q 439 774 431 772 q 453 782 447 776 q 438 780 446 781 q 426 772 429 779 m 404 760 q 415 763 410 761 q 421 772 419 765 q 410 768 411 774 q 404 760 408 763 m 363 753 q 377 755 369 749 q 382 765 385 761 q 372 760 378 761 q 363 753 365 760 m 306 728 q 335 736 324 729 q 357 750 346 743 q 331 740 344 743 q 306 728 317 736 m 101 656 q 122 658 113 656 q 140 664 132 661 q 115 668 125 664 q 101 656 104 672 m 164 606 q 166 608 164 608 q 169 606 168 607 q 174 624 172 614 q 169 640 176 633 q 163 624 167 633 q 164 606 160 614 m 67 628 q 49 628 60 626 q 38 618 38 631 q 84 622 60 615 q 124 638 108 628 q 94 635 110 639 q 67 628 79 631 m 364 618 q 385 616 376 619 q 400 608 393 613 q 414 599 407 604 q 431 592 421 594 q 401 615 424 607 q 364 618 379 624 m 390 600 q 375 609 388 607 q 354 606 363 611 q 372 602 367 607 q 390 600 378 597 m 140 510 q 168 532 157 514 q 161 531 164 532 q 160 536 158 531 q 167 567 161 551 q 172 594 174 582 q 154 553 161 575 q 140 510 147 532 m 201 560 q 235 572 222 563 q 263 590 249 581 q 230 581 247 589 q 201 560 213 572 m 240 528 q 271 540 254 536 q 299 554 288 543 q 267 543 282 549 q 240 528 251 538 m 308 538 q 350 537 331 533 q 390 540 369 540 q 372 550 383 547 q 349 552 361 553 q 325 548 336 551 q 308 538 314 544 m 385 528 q 395 516 388 519 q 411 510 403 513 q 407 525 408 517 q 399 536 406 533 q 393 531 399 529 q 385 528 388 532 m 219 500 q 269 510 238 506 q 321 524 300 514 q 261 521 290 531 q 219 500 232 511 m 118 472 q 123 482 119 475 q 119 492 126 489 q 115 481 119 488 q 118 472 111 475 m 443 406 q 447 447 451 422 q 432 482 443 472 q 441 444 439 467 q 443 406 443 422 m 399 347 q 424 382 417 357 q 422 428 432 407 q 413 389 419 406 q 399 347 406 372 m 413 303 q 437 342 424 321 q 449 388 450 364 q 426 347 436 371 q 413 303 417 322 m 344 261 q 385 288 371 267 q 404 333 400 310 q 344 261 374 300 m 283 221 q 314 243 307 228 q 297 234 303 240 q 283 221 290 228 m 283 194 q 326 210 311 197 q 353 240 342 222 q 315 220 333 231 q 283 194 296 210 m 138 197 q 151 194 149 196 q 164 192 153 192 q 170 179 168 186 q 176 167 172 172 q 207 174 197 165 q 224 194 217 183 q 200 203 210 197 q 181 214 190 208 q 159 224 171 219 q 129 229 147 229 q 135 212 129 217 q 138 197 140 207 m 367 189 q 372 197 367 193 q 372 203 376 200 q 366 197 371 200 q 367 189 361 193 m 232 157 q 260 165 247 161 q 278 179 274 168 q 253 171 263 178 q 232 157 243 164 m 164 143 q 156 147 160 143 q 148 156 151 151 q 142 160 144 160 q 138 156 139 161 q 144 155 142 158 q 150 147 147 151 q 156 141 153 143 q 164 143 158 139 m 168 117 q 178 103 171 108 q 193 97 185 97 q 208 99 201 96 q 219 113 215 103 q 196 115 208 118 q 168 117 183 113 m 228 90 q 260 98 244 94 q 283 113 275 101 q 266 110 276 111 q 247 108 256 110 q 233 102 239 106 q 228 90 226 99 m 210 72 q 265 81 240 68 q 308 104 289 93 q 309 108 308 107 q 306 108 310 108 q 260 85 290 93 q 210 72 231 78 z "},"6":{"ha":539,"x_min":-10,"x_max":546,"o":"m 546 344 q 542 339 544 342 q 533 339 539 336 q 531 343 535 343 q 538 347 533 346 q 546 344 543 349 m 517 643 q 508 649 510 643 q 506 660 507 654 q 488 644 496 653 q 472 624 479 635 q 464 624 467 622 q 458 626 461 626 q 456 621 456 622 q 460 617 457 619 q 465 613 463 615 q 465 606 467 611 q 447 602 458 599 q 432 614 435 606 q 399 600 413 610 q 369 583 386 590 q 354 570 363 574 q 338 560 346 567 q 306 512 318 540 q 278 463 294 483 q 269 456 274 458 q 260 451 264 454 q 244 426 250 440 q 225 401 238 411 q 222 401 225 401 l 219 401 q 217 395 217 399 q 215 389 218 392 q 189 365 204 376 q 167 333 174 354 q 213 367 189 346 q 262 406 236 389 q 317 427 288 422 q 379 414 346 432 l 401 414 q 410 406 406 411 q 418 399 414 401 q 454 394 439 404 q 478 372 469 385 q 467 324 475 344 q 449 285 460 303 q 425 251 438 267 q 401 217 413 235 q 335 67 386 128 q 201 -6 285 6 q 154 -28 182 -18 q 97 -40 126 -37 q 41 -37 68 -43 q -1 -14 14 -31 q -6 33 -10 10 q 1 81 -1 57 q 5 120 4 103 q 13 154 6 138 q 25 169 18 163 q 35 186 32 176 q 46 240 43 211 q 57 293 49 268 q 76 332 65 313 q 97 375 88 351 q 99 388 100 382 q 101 399 99 393 q 117 423 108 413 q 135 446 126 433 q 185 520 161 483 q 246 583 210 557 q 271 615 257 600 q 304 642 285 631 q 366 691 326 667 q 450 724 406 715 q 492 725 471 728 q 522 706 514 722 q 521 675 518 696 q 517 643 524 654 m 458 688 q 469 685 467 689 q 474 676 472 682 q 476 666 475 671 q 482 658 478 661 q 490 665 485 663 q 496 672 494 667 q 485 680 490 676 q 479 694 479 683 q 467 692 472 693 q 458 688 461 692 m 433 668 q 451 660 444 665 q 465 650 457 654 q 463 665 467 658 q 453 674 460 671 q 441 677 447 678 q 433 668 435 676 m 422 632 q 438 629 429 629 q 450 638 447 629 q 422 658 438 653 q 420 644 421 647 q 422 632 419 640 m 265 482 q 246 465 251 476 q 235 440 240 454 q 217 425 225 436 q 211 403 210 414 q 261 465 238 433 q 304 533 285 497 q 278 513 289 525 q 265 482 268 501 m 179 453 q 202 475 189 464 q 215 501 215 486 q 194 477 206 490 q 179 453 182 464 m 153 401 q 172 416 164 404 q 179 439 181 428 q 166 421 175 428 q 153 401 157 414 m 278 397 q 322 401 301 403 q 357 411 343 400 q 313 414 338 419 q 278 397 289 408 m 440 297 q 453 328 446 315 q 458 369 461 342 q 451 377 456 372 q 442 385 447 382 q 432 388 438 388 q 422 383 426 389 q 439 342 435 364 q 440 297 443 321 m 165 304 q 223 346 193 325 q 288 383 253 367 q 219 350 249 369 q 165 304 189 331 m 357 372 q 366 372 364 374 q 372 369 368 369 q 365 376 372 375 q 357 372 358 378 m 89 308 q 122 323 113 310 q 143 347 132 336 q 147 364 139 358 q 147 372 156 369 q 119 340 136 353 q 89 308 103 326 m 272 331 q 292 340 279 338 q 311 351 304 343 q 285 344 301 346 q 272 331 269 342 m 272 318 q 270 315 269 315 q 274 315 271 314 q 281 317 276 315 q 288 318 285 318 q 324 318 303 319 q 353 321 346 317 q 313 328 333 331 q 272 318 292 325 m 414 271 q 419 295 414 282 q 418 321 425 308 l 411 321 q 409 296 407 310 q 414 271 411 282 m 211 243 q 199 233 210 236 q 193 222 189 229 q 255 257 222 240 q 328 275 288 274 q 341 272 333 275 q 353 276 349 268 q 313 288 332 289 q 276 278 294 286 q 242 261 258 271 q 211 249 226 251 q 256 281 229 264 q 315 304 282 297 q 217 278 253 304 q 165 207 182 251 q 178 217 174 211 q 188 230 183 224 q 198 240 193 236 q 211 243 203 244 m 79 276 q 91 283 86 279 q 97 294 96 288 l 88 294 q 79 276 86 286 m 76 253 q 89 258 83 250 q 97 272 94 265 q 76 253 83 267 m 146 176 q 140 158 143 167 q 133 140 136 149 q 131 122 131 131 q 138 104 131 113 q 135 94 135 100 q 131 85 135 88 q 142 82 139 85 q 147 74 144 79 q 209 103 178 86 q 267 144 240 121 q 314 197 294 168 q 342 261 333 225 q 278 253 304 263 q 231 231 253 244 q 190 203 210 218 q 146 176 169 188 m 364 144 q 347 133 353 142 q 336 114 340 125 q 329 112 332 114 q 324 108 326 110 q 308 85 315 99 q 292 60 301 71 q 276 46 285 53 q 269 32 267 39 q 304 60 286 46 q 338 92 322 75 q 363 129 353 110 q 378 172 374 149 q 367 160 372 165 q 364 144 361 156 m 88 136 q 93 115 94 129 q 99 92 92 101 q 103 132 100 107 q 108 171 106 157 q 98 153 101 164 q 88 136 94 142 m 47 126 q 53 138 50 131 q 53 150 57 144 q 48 136 53 143 q 47 126 43 129 m 167 64 q 219 83 194 69 q 251 117 244 97 q 213 88 236 99 q 167 64 189 78 m 21 82 q 25 86 21 88 q 25 76 28 83 q 18 72 22 69 q 19 63 19 67 q 25 58 19 58 q 31 79 29 69 q 31 104 33 89 q 27 106 28 104 q 24 107 26 107 q 20 93 22 101 q 21 82 18 85 m 111 42 q 105 60 108 53 q 89 72 101 67 q 94 55 89 65 q 111 42 100 44 m 138 42 q 135 52 140 50 q 125 58 129 54 q 138 42 125 42 m 224 40 q 234 49 228 47 q 243 58 240 51 q 228 51 236 57 q 224 40 221 44 m 43 38 q 35 53 43 49 q 36 43 36 49 q 43 38 36 38 m 156 42 q 185 53 174 42 q 166 50 174 51 q 156 42 158 49 m 75 -26 q 43 13 60 -4 q 8 46 26 29 q 21 -10 3 13 q 75 -26 39 -32 z "},"7":{"ha":414,"x_min":3,"x_max":494,"o":"m 494 832 q 483 808 492 818 q 464 792 475 799 q 441 778 453 785 q 421 763 429 771 q 408 740 413 751 q 399 717 403 729 q 390 694 396 706 q 375 669 385 682 q 351 604 368 632 q 325 544 333 576 q 313 520 321 536 q 307 483 306 504 q 299 484 303 489 q 294 470 296 479 q 289 451 292 461 q 285 435 286 440 q 269 404 279 419 q 253 371 260 389 q 247 346 247 360 q 243 321 246 332 q 238 308 242 314 q 233 296 233 301 q 234 290 232 293 q 235 285 236 288 q 232 276 233 278 q 229 264 231 274 q 228 251 228 257 q 219 243 228 246 q 211 196 224 222 q 194 144 199 169 q 182 116 185 133 q 167 86 179 99 q 157 86 163 82 q 149 72 153 81 q 139 67 146 63 q 131 73 131 65 q 129 86 132 81 q 119 77 121 85 q 107 74 118 69 q 102 91 100 82 q 101 110 104 100 q 89 128 99 121 q 76 153 79 136 q 76 184 74 168 q 81 215 78 200 q 92 295 83 256 q 111 365 100 335 q 99 363 107 368 q 85 361 90 357 q 82 372 79 367 q 86 381 85 378 q 71 381 79 383 q 53 376 63 378 q 36 374 44 374 q 22 383 28 375 q 144 474 71 446 q 188 569 167 518 q 235 664 210 619 q 184 649 208 657 q 134 634 160 640 q 80 625 108 628 q 17 625 51 622 q 6 640 10 632 q 3 660 3 649 q 47 706 21 686 q 105 740 74 725 q 169 768 136 756 q 235 794 203 781 q 299 805 267 796 q 363 823 331 814 q 427 836 394 832 q 494 832 460 840 m 294 499 q 327 578 308 543 q 356 656 346 614 q 326 600 340 628 q 301 538 313 572 q 292 533 296 540 q 292 525 289 525 q 290 516 293 521 q 283 504 288 511 q 278 489 279 497 q 283 471 276 481 q 289 474 283 474 q 289 489 286 481 q 292 503 292 497 q 294 499 292 499 m 379 796 q 400 798 389 799 q 414 806 411 797 q 394 803 406 803 q 379 796 383 803 m 356 760 q 363 758 358 756 q 369 764 367 761 q 360 764 365 764 q 356 760 356 764 m 63 667 q 88 674 79 668 q 107 688 97 681 q 185 728 144 710 q 272 760 226 746 q 157 726 210 751 q 63 667 104 701 m 265 728 q 209 701 242 708 q 153 674 176 693 q 223 696 188 683 q 278 728 258 708 l 265 728 m 82 651 q 95 655 89 649 q 107 664 101 661 q 94 658 97 664 q 82 651 90 653 m 175 511 q 171 496 172 504 q 172 483 169 488 q 183 494 181 486 q 188 510 186 501 q 192 526 190 518 q 201 539 194 535 q 208 566 200 554 q 211 593 215 578 q 194 552 206 574 q 175 511 182 531 m 253 579 q 261 586 257 579 q 257 593 265 593 q 256 586 258 588 q 253 579 253 585 m 285 582 q 294 592 290 583 q 284 584 288 590 q 280 573 281 578 q 281 569 279 568 q 285 582 282 569 m 49 389 q 56 390 51 389 q 65 390 60 392 q 68 398 65 396 q 71 406 71 400 l 99 433 q 110 438 103 436 q 111 444 118 440 q 75 421 92 433 q 49 389 58 408 m 256 431 l 256 435 l 267 435 q 265 441 268 440 q 259 440 263 442 q 254 435 256 438 q 256 431 253 432 m 97 406 q 121 417 111 404 q 139 439 131 429 q 115 424 124 435 q 97 406 107 414 m 240 371 q 247 396 242 386 q 256 417 253 406 q 251 421 254 421 q 241 397 247 410 q 240 371 235 385 m 89 203 q 90 165 88 185 q 101 135 92 146 q 104 190 97 163 q 97 203 96 197 q 94 221 97 210 q 128 294 118 254 q 149 379 138 333 q 133 374 140 376 q 121 365 125 372 q 122 356 124 363 q 117 341 119 349 q 113 326 114 333 q 117 318 113 319 q 98 269 104 303 q 89 203 92 235 m 211 221 q 215 253 217 242 q 225 279 214 264 q 222 284 221 281 q 224 292 222 288 q 228 301 226 297 q 225 308 229 306 q 215 290 221 301 q 206 265 210 278 q 203 240 203 251 q 211 221 204 228 m 150 281 q 156 268 150 272 q 158 283 154 278 q 156 293 163 289 q 155 285 156 289 q 150 281 154 281 m 144 254 q 151 260 151 251 q 144 267 151 269 l 144 254 m 197 200 q 190 203 190 196 q 193 215 190 210 q 183 191 182 208 q 188 168 183 174 q 197 200 192 192 m 182 146 q 181 158 179 151 q 176 164 183 165 q 176 152 178 157 q 182 146 174 147 m 161 103 q 175 131 171 110 q 167 132 168 131 q 164 117 164 122 q 161 103 164 111 z "},"8":{"ha":518,"x_min":29,"x_max":478,"o":"m 188 436 q 185 494 188 465 q 183 553 183 524 q 184 610 182 582 q 197 663 186 638 q 224 710 207 688 q 253 746 240 732 q 281 750 271 739 q 301 768 290 761 q 320 772 310 772 q 342 775 331 772 q 363 785 353 778 q 388 793 374 793 q 422 788 408 794 q 445 768 436 781 q 462 740 454 756 q 478 710 469 724 q 478 676 478 690 q 478 648 478 661 q 477 622 478 635 q 474 594 476 610 q 465 569 467 588 q 454 535 464 550 q 434 510 443 524 q 415 485 425 497 q 398 463 407 474 q 382 443 389 453 q 381 438 379 440 q 382 433 383 436 q 368 419 376 425 q 357 404 360 414 q 363 388 356 393 q 368 376 371 383 q 412 317 399 358 q 415 228 425 275 q 424 222 418 222 q 426 189 417 211 q 438 143 435 167 q 424 87 431 113 q 397 43 418 61 q 375 35 385 40 q 353 28 365 31 q 345 19 347 25 q 338 10 343 13 q 326 8 331 11 q 315 6 322 4 q 272 -28 294 -12 q 219 -53 250 -44 q 171 -45 189 -56 q 140 -20 153 -35 q 115 10 126 -6 q 85 36 103 26 q 58 82 71 60 q 35 132 46 104 q 52 223 29 185 q 103 290 75 261 q 137 371 118 333 q 188 436 156 408 m 389 707 q 391 717 392 711 q 383 725 390 724 q 386 716 388 722 q 389 707 385 710 m 297 639 q 326 651 310 646 q 357 661 342 656 q 362 691 360 678 q 360 724 364 704 q 322 688 340 707 q 297 639 304 668 m 214 647 q 218 661 213 654 q 215 669 224 668 q 213 658 215 664 q 214 647 210 651 m 210 640 q 204 634 208 636 q 201 625 200 632 q 208 628 206 625 q 210 636 210 632 q 210 643 211 640 q 207 643 210 646 q 210 640 210 643 m 292 617 q 292 592 293 601 q 289 567 290 582 q 307 582 299 574 q 319 604 315 590 q 338 622 329 607 q 342 643 346 636 q 319 627 333 632 q 292 617 304 622 m 297 549 q 301 528 293 538 q 306 508 308 519 q 344 561 329 528 q 357 633 360 594 q 345 610 354 621 q 326 588 336 599 q 308 567 317 576 q 297 549 300 557 m 243 585 q 243 594 242 588 q 242 601 244 600 q 238 592 238 599 q 243 585 238 585 m 397 561 q 404 580 400 569 q 401 597 408 590 q 394 580 396 592 q 397 561 392 568 m 357 501 q 375 528 367 508 q 375 561 383 547 q 364 530 369 547 q 357 501 358 513 m 203 458 q 207 493 211 472 q 199 529 203 514 q 200 488 203 506 q 203 458 197 471 m 338 507 q 328 498 332 503 q 324 485 325 493 q 337 495 331 488 q 338 511 343 503 l 338 507 m 210 414 q 219 422 217 415 q 225 431 221 428 q 222 443 222 436 q 214 450 221 450 q 206 433 208 442 q 210 414 203 425 m 131 318 q 165 358 151 339 q 199 396 179 376 q 195 410 196 403 q 188 418 194 417 q 155 369 172 394 q 131 318 138 344 m 400 304 q 391 331 397 319 q 375 350 385 342 q 385 324 376 333 q 400 304 393 315 m 156 231 q 200 274 175 254 q 242 321 225 293 q 235 326 240 324 q 214 303 226 314 q 189 282 201 293 q 167 258 176 271 q 156 231 158 246 m 301 290 q 294 308 300 301 q 282 321 289 314 q 288 303 281 313 q 301 290 294 294 m 311 160 q 330 203 331 182 q 317 244 329 224 q 290 281 306 264 q 263 313 274 299 q 290 236 274 268 q 311 160 306 204 m 260 93 q 283 111 274 100 q 300 136 292 122 q 278 223 294 185 q 247 294 261 261 q 246 296 247 297 q 188 241 218 268 q 133 182 158 214 q 178 119 150 146 q 260 93 207 93 m 57 186 q 63 203 56 194 q 63 214 71 211 q 57 201 61 208 q 57 186 53 193 m 369 50 q 412 85 400 53 q 419 156 424 117 q 415 168 417 161 q 410 178 414 175 q 402 108 413 139 q 369 50 392 78 m 315 118 q 328 136 322 124 q 328 156 335 149 q 319 138 325 146 q 315 118 313 129 m 167 111 q 147 128 156 118 q 125 146 138 139 q 140 119 128 131 q 167 111 151 107 m 310 47 q 322 49 314 44 q 324 60 329 53 q 316 54 324 53 q 310 47 308 56 m 275 47 q 289 51 286 47 q 281 53 286 54 q 275 47 276 53 m 263 43 q 251 47 257 43 q 242 46 244 50 q 251 40 244 43 q 263 43 258 38 m 182 -39 q 241 -32 218 -42 q 279 -7 264 -22 q 262 -8 269 -6 q 247 -16 254 -11 q 233 -25 239 -21 q 219 -31 226 -29 q 196 -30 206 -33 q 178 -22 186 -26 q 163 -10 171 -17 q 144 1 156 -3 q 149 -12 144 -7 q 160 -21 154 -17 q 173 -28 167 -25 q 182 -39 179 -32 m 221 -11 q 208 -12 213 -10 q 197 -11 203 -15 q 209 -20 199 -22 q 221 -11 219 -18 z "},"9":{"ha":457,"x_min":8,"x_max":483,"o":"m 22 497 q 19 481 22 489 q 17 463 17 472 q 26 478 22 469 q 33 495 29 486 q 41 512 36 504 q 56 524 46 519 q 60 539 53 532 q 75 551 68 546 q 94 578 81 569 q 113 604 107 588 q 133 620 124 610 q 150 642 142 631 q 167 667 158 654 q 188 688 175 679 q 213 704 199 696 q 242 724 228 713 q 265 742 251 732 q 292 759 278 753 q 322 766 307 765 q 354 758 338 767 q 383 760 369 760 q 413 758 397 761 q 471 694 446 735 q 472 669 469 682 q 478 644 475 657 q 482 619 481 632 q 479 590 483 606 q 476 587 476 589 q 471 585 475 585 q 460 510 467 544 q 447 442 453 475 q 416 346 439 389 q 368 258 393 303 q 361 253 361 258 q 354 244 361 247 q 326 197 343 218 q 292 154 310 175 q 256 116 274 135 q 219 76 238 97 q 200 67 208 79 q 183 49 192 56 q 165 43 172 47 q 142 40 157 39 q 129 53 135 42 q 113 49 117 51 q 97 46 108 46 q 103 64 92 58 q 119 76 114 69 q 101 83 114 83 q 82 86 89 83 q 73 133 68 111 q 97 171 78 154 q 97 160 104 164 q 90 146 89 157 q 143 170 115 161 q 192 194 171 179 q 234 237 215 210 q 272 288 253 264 q 298 316 281 299 q 326 349 315 333 q 327 353 329 350 q 326 357 325 356 q 353 388 338 374 q 378 421 369 403 q 383 441 376 432 q 386 461 389 450 q 364 444 372 456 q 344 425 356 433 q 333 422 339 422 q 322 417 328 421 q 301 394 310 406 q 282 372 292 382 q 260 353 272 361 q 229 340 247 344 q 202 340 218 339 q 176 349 186 342 q 149 347 160 346 q 119 346 139 349 q 77 360 99 353 q 40 381 56 368 q 16 413 24 393 q 17 461 8 432 l 22 497 m 251 719 q 301 728 283 717 q 342 749 319 740 q 317 754 329 756 q 292 747 304 753 q 270 733 281 742 q 251 719 260 725 m 364 742 q 367 733 367 742 q 449 697 419 729 q 442 708 447 706 q 442 722 436 711 q 424 733 433 726 q 406 745 415 740 q 385 750 396 750 q 364 742 375 750 m 336 728 q 350 728 344 728 q 358 736 356 729 q 346 737 353 739 q 336 728 339 735 m 376 704 q 384 695 383 701 q 393 688 385 689 q 403 704 397 699 q 389 709 399 707 q 376 704 379 711 m 222 692 q 233 694 228 690 q 232 701 238 699 q 226 697 233 696 q 222 692 219 699 m 414 678 q 404 690 415 689 q 406 681 401 685 q 414 678 410 678 m 165 624 q 182 632 174 626 q 197 645 190 638 q 208 660 204 653 q 208 675 211 668 q 165 624 178 658 m 371 626 q 358 659 371 643 q 325 672 346 675 q 344 645 332 656 q 371 626 357 635 m 349 610 q 356 590 356 603 q 351 574 357 578 q 342 588 344 579 q 337 608 339 597 q 333 628 335 618 q 325 646 331 639 q 307 656 315 651 q 288 665 299 661 q 249 644 268 656 q 222 610 229 632 q 213 609 215 611 q 208 604 211 607 q 196 574 204 588 q 181 549 188 561 q 168 524 174 538 q 165 494 163 511 q 176 492 175 494 l 176 479 q 203 463 188 469 q 242 457 218 456 q 310 512 279 485 q 368 575 340 539 q 370 590 367 585 q 371 607 374 596 q 362 617 368 614 q 354 628 356 621 q 351 619 354 622 q 349 610 347 617 m 32 465 q 31 419 28 442 q 54 389 33 396 q 58 450 50 424 q 78 498 65 476 q 103 541 90 519 q 124 590 117 563 q 119 596 124 592 q 74 531 97 558 q 32 465 51 504 m 113 465 q 115 474 113 468 q 113 483 118 481 q 109 474 110 481 q 113 465 108 467 m 156 443 q 147 452 149 446 q 133 457 144 458 q 144 446 136 451 q 156 443 153 440 m 313 453 q 291 440 307 444 q 272 429 275 436 q 291 435 283 431 q 310 439 299 439 q 323 449 313 444 q 331 457 333 453 q 313 453 326 453 m 86 378 q 110 377 100 372 q 133 379 119 382 l 133 392 q 101 404 113 394 q 75 424 90 414 q 72 409 71 415 q 75 398 72 403 q 82 388 78 393 q 86 378 86 383 m 146 389 q 156 389 150 390 q 161 392 161 388 q 152 394 158 394 q 146 389 146 394 m 156 375 q 193 377 174 372 q 224 392 213 382 q 187 388 204 389 q 156 375 169 386 m 203 353 q 251 363 226 350 q 281 389 275 375 q 241 371 263 378 q 203 353 219 364 m 286 275 q 265 261 275 274 q 251 236 256 249 q 267 246 263 239 q 286 253 272 253 q 310 283 296 268 q 335 313 324 297 q 356 347 347 329 q 367 385 365 364 q 325 331 349 354 q 286 275 301 308 m 292 240 q 305 249 299 242 q 310 261 311 257 q 301 251 307 254 q 292 240 294 249 m 276 221 q 287 226 285 221 q 292 239 289 232 l 288 239 q 282 230 286 232 q 276 221 278 228 m 203 172 q 190 165 193 174 q 204 165 199 163 q 215 173 210 168 q 227 183 221 178 q 240 189 233 188 q 242 199 238 194 q 253 209 247 204 q 262 218 258 214 q 261 226 265 222 q 244 214 254 219 q 224 203 233 208 q 209 190 215 197 q 203 172 203 182 m 290 175 q 303 190 294 182 q 310 207 313 199 q 298 190 307 199 q 290 175 289 182 m 90 118 q 110 135 96 131 q 138 144 124 140 q 165 153 153 147 q 182 172 178 158 q 130 151 157 161 q 90 118 103 142 m 110 121 q 135 124 121 119 q 142 135 150 128 q 126 128 135 129 q 110 121 117 126 m 165 76 q 184 80 178 76 q 197 86 190 83 q 179 84 189 85 q 165 76 169 83 m 142 58 q 164 56 150 50 q 176 68 178 61 q 156 65 169 63 q 142 58 143 67 z "}," ":{"ha":486,"x_min":0,"x_max":0,"o":""},"А":{"ha":774,"x_min":26,"x_max":728,"o":"m 613 743 q 612 737 608 742 q 613 726 615 732 q 616 735 615 729 q 619 743 617 740 q 627 735 624 739 q 636 729 631 732 q 628 721 632 725 q 613 719 624 717 q 617 678 615 707 q 622 626 618 650 q 625 610 624 619 q 628 597 626 600 q 633 589 628 596 q 636 582 639 582 q 639 597 644 582 q 633 624 633 611 q 638 625 638 626 q 646 626 639 624 q 653 561 646 594 q 657 499 661 528 q 694 499 675 497 q 726 493 714 500 q 717 481 728 481 q 720 474 714 474 q 724 467 726 474 q 694 444 713 451 q 658 428 676 438 q 667 394 665 411 q 669 358 669 376 q 667 322 668 340 q 669 285 667 303 q 683 234 672 261 q 690 179 693 207 q 676 186 679 179 q 672 203 674 193 l 664 203 q 658 178 658 189 q 656 158 657 168 q 655 138 656 149 q 649 111 654 126 q 649 86 656 100 q 643 57 643 72 q 633 52 638 54 q 622 49 629 50 q 615 35 621 42 q 604 20 610 28 q 597 3 599 13 q 601 -18 594 -7 q 585 -32 592 -21 q 573 -52 579 -43 q 558 -65 567 -61 q 538 -56 550 -68 q 531 -13 539 -35 q 529 21 522 8 q 521 46 521 31 q 518 81 521 61 q 530 78 525 76 q 539 83 535 81 q 537 94 536 92 q 544 101 538 96 q 535 110 533 104 q 526 122 538 115 q 525 113 524 119 q 528 101 526 107 q 527 90 529 94 q 517 83 525 85 q 513 104 517 93 q 505 127 508 115 q 501 152 501 139 q 506 179 500 165 q 497 197 494 185 q 490 218 499 208 q 493 238 494 228 q 490 257 492 249 q 487 272 488 265 q 493 283 486 279 q 481 315 482 297 q 479 353 481 333 q 473 358 476 356 q 467 364 469 360 q 377 342 428 349 q 278 338 326 335 q 232 275 254 304 q 192 206 210 246 q 178 185 178 204 q 144 144 160 165 q 111 104 129 124 q 88 61 100 81 q 43 39 75 42 q 31 60 36 46 q 36 88 26 75 q 28 90 35 90 q 34 117 31 103 q 40 138 38 131 q 44 130 46 136 q 46 122 42 124 q 51 134 53 124 q 40 143 49 144 q 67 238 47 186 q 106 326 86 290 q 98 330 101 331 q 91 327 94 329 q 84 322 88 325 q 75 322 81 319 q 90 342 79 335 q 114 353 100 349 q 140 417 125 388 q 163 483 156 447 q 169 487 167 483 q 172 494 171 490 q 176 501 174 499 q 183 504 178 504 q 181 513 179 508 q 186 519 183 517 q 191 526 189 522 q 189 535 193 531 q 203 557 197 544 q 214 583 208 569 q 227 610 219 597 q 246 633 235 624 q 254 658 249 647 q 267 679 260 669 q 280 699 274 689 q 290 722 286 710 q 298 724 296 721 q 303 726 300 726 q 299 733 301 731 q 299 740 297 735 q 343 794 322 765 q 386 850 364 822 q 434 902 408 878 q 493 943 460 926 q 495 958 490 950 q 496 968 500 965 q 521 974 513 979 q 533 958 529 969 q 538 931 536 946 q 547 908 540 917 q 560 916 556 911 q 571 925 564 921 q 594 898 586 915 q 607 860 603 881 q 613 819 611 840 q 619 782 615 799 q 619 777 621 776 q 615 779 618 778 q 618 767 615 772 q 623 757 621 761 q 624 749 625 753 q 613 743 622 746 m 503 946 q 505 931 507 939 q 500 911 503 922 q 508 908 507 913 q 508 899 508 904 q 519 905 515 901 q 529 901 522 908 q 526 929 528 911 q 511 956 524 947 q 508 950 510 951 q 503 946 506 949 m 586 792 q 593 784 588 786 q 601 785 599 782 q 593 823 596 803 q 583 860 590 843 q 586 822 582 844 q 594 789 590 800 q 590 794 590 792 q 586 792 590 796 m 394 776 q 410 791 400 786 q 422 807 419 796 q 421 810 422 810 q 418 813 419 811 q 401 796 413 804 q 394 776 390 788 m 511 738 q 503 734 504 738 q 496 729 501 731 q 496 738 494 733 q 490 740 497 743 l 490 729 q 498 728 492 726 q 506 725 504 729 q 503 718 508 718 q 500 711 499 718 q 507 710 507 714 q 511 706 507 707 q 515 728 513 715 q 519 753 517 740 q 522 776 521 765 q 521 792 522 786 q 511 738 506 765 m 469 511 q 469 541 471 529 q 479 565 467 553 q 467 571 471 565 q 469 580 467 578 q 475 585 472 582 q 467 600 467 590 q 469 649 467 618 q 479 696 472 679 q 475 710 472 699 q 479 726 478 721 q 474 734 474 728 q 476 747 475 740 q 478 758 478 753 q 472 767 478 764 q 472 755 474 756 q 464 753 469 754 q 456 719 463 735 q 457 686 449 703 q 447 683 450 683 q 439 681 443 682 q 390 566 414 622 q 342 454 365 510 q 399 467 374 458 q 457 478 424 476 q 458 490 457 488 q 472 493 460 493 q 472 503 474 500 q 467 511 469 507 q 456 506 460 510 q 449 511 453 501 q 460 515 454 514 q 469 511 465 517 m 311 597 q 335 628 321 613 q 353 660 350 644 q 361 666 357 661 q 368 677 365 671 q 372 689 371 683 q 371 696 372 694 q 337 648 356 674 q 311 597 318 622 m 556 681 l 556 696 l 547 696 q 549 687 546 689 q 556 681 553 685 m 550 669 q 551 678 556 672 q 544 686 547 685 q 544 675 546 682 q 550 669 543 668 m 547 607 q 551 624 550 614 q 544 642 551 635 q 541 623 542 636 q 547 607 540 610 m 275 522 q 276 516 272 517 q 279 511 279 515 q 267 497 269 508 q 264 472 264 486 q 255 465 257 471 q 251 453 253 460 q 247 442 250 447 q 238 436 244 438 q 244 432 249 433 q 240 424 239 431 q 254 421 247 419 q 298 513 278 463 q 342 607 318 563 q 320 589 328 600 q 306 566 313 578 q 294 542 300 554 q 275 522 288 531 m 539 579 q 546 590 547 582 q 542 606 544 599 q 539 591 536 600 q 539 579 542 582 m 535 499 q 543 524 542 511 q 538 547 544 538 q 544 549 539 550 q 547 556 550 549 q 542 558 544 557 q 535 561 539 558 q 531 529 531 546 q 535 499 532 513 m 558 519 q 559 503 558 514 q 571 493 560 492 q 570 531 571 517 q 574 561 569 544 l 565 561 q 561 541 565 551 q 558 519 557 531 m 678 454 q 696 465 689 454 l 678 465 l 678 454 m 317 406 q 390 419 349 410 q 464 442 432 428 q 383 430 421 438 q 317 406 346 422 m 560 364 q 565 365 563 367 q 566 363 567 364 q 568 361 565 361 q 568 369 568 365 q 571 376 568 374 q 566 379 568 378 q 560 379 564 381 q 557 371 558 378 q 560 364 556 364 m 368 371 q 379 369 375 369 q 386 376 383 369 q 376 374 381 375 q 368 371 371 374 m 440 368 q 450 367 443 365 q 458 374 457 368 q 448 373 453 374 q 440 368 443 372 m 335 364 q 351 365 342 365 q 365 371 361 365 q 347 370 356 371 q 335 364 338 369 m 583 249 q 587 296 589 274 q 589 340 585 318 l 581 340 q 578 313 581 325 q 575 290 576 300 q 575 269 574 279 q 583 249 576 260 m 186 301 q 199 308 196 299 q 199 319 201 317 q 191 312 193 317 q 186 301 189 307 m 144 281 q 156 289 156 279 q 163 304 157 299 q 158 306 160 304 q 153 306 157 307 q 147 294 146 303 q 144 281 149 285 m 156 242 q 169 260 163 251 q 178 285 176 269 q 158 265 163 282 q 156 242 153 249 m 553 242 q 554 261 553 254 q 547 272 556 268 q 548 257 550 265 q 553 242 546 249 m 85 221 q 85 229 79 228 q 85 236 92 231 q 81 227 85 233 q 85 221 76 221 m 664 231 q 666 226 663 225 q 672 224 669 226 q 674 230 671 226 q 672 236 678 233 q 664 231 672 231 m 118 185 q 136 200 128 189 q 144 218 144 211 q 127 202 138 211 q 118 185 117 193 m 565 164 q 570 151 569 157 q 574 140 571 144 q 576 151 576 144 q 579 164 576 157 q 572 165 574 164 q 565 164 569 167 m 544 117 q 544 125 546 117 q 539 138 542 133 q 537 122 536 132 q 544 117 538 111 m 75 117 q 83 117 79 117 q 88 125 88 118 q 78 124 82 125 q 75 117 74 124 m 58 101 q 55 81 56 90 q 57 60 54 72 q 90 87 79 67 q 117 122 101 107 q 100 117 106 122 q 90 108 94 113 q 78 100 85 103 q 58 101 71 97 m 563 18 q 569 27 568 25 q 571 36 569 29 q 563 50 561 39 q 568 67 564 61 q 561 69 561 64 q 558 75 561 74 q 551 62 554 71 q 549 44 549 53 q 552 27 549 35 q 563 18 556 19 m 574 -11 q 583 -3 581 -12 q 579 7 586 6 q 576 -2 576 3 q 574 -11 576 -7 m 547 -32 q 556 -26 554 -32 q 558 -14 558 -21 q 553 -2 557 -7 q 544 3 549 3 q 546 -14 546 -8 q 547 -32 546 -19 z "},"Б":{"ha":768,"x_min":103,"x_max":804,"o":"m 346 763 q 347 751 351 760 q 339 739 343 743 q 342 738 340 736 q 344 738 343 740 q 328 684 335 714 q 304 631 321 654 q 303 614 306 619 q 297 603 300 608 q 292 594 294 599 q 292 581 289 589 q 288 578 292 578 q 283 576 285 579 q 276 545 285 557 q 261 518 267 533 q 256 495 256 507 q 246 476 256 483 q 255 475 251 472 q 261 482 258 478 q 268 490 264 486 q 279 494 272 494 q 311 528 290 514 q 351 550 332 543 q 408 574 374 569 q 476 589 442 579 q 520 602 499 593 q 571 603 542 611 q 582 590 578 597 q 593 576 586 583 q 599 547 592 560 q 614 522 606 535 q 630 496 622 510 q 638 465 638 482 q 632 472 633 469 q 624 479 631 475 q 611 433 618 458 q 597 385 604 408 q 580 340 589 361 q 561 306 571 319 q 565 302 563 303 q 567 299 567 301 q 549 285 556 294 q 535 265 542 276 q 522 243 529 254 q 506 225 515 232 q 508 218 510 222 q 506 210 507 214 l 497 210 q 499 204 497 204 q 497 200 500 204 q 431 152 461 176 q 369 103 401 128 q 364 104 365 101 q 360 106 363 107 q 357 100 360 103 q 362 97 357 93 q 365 93 367 101 q 333 90 347 94 q 307 77 319 85 q 281 62 294 69 q 251 50 268 54 q 292 56 275 46 q 332 67 310 65 l 332 79 q 352 73 339 67 q 372 83 365 79 q 323 56 353 68 q 261 33 293 43 q 256 24 256 32 q 233 17 244 22 q 208 8 221 13 q 183 0 196 3 q 157 0 169 -3 q 135 15 144 3 q 122 42 126 26 q 115 76 117 58 q 115 107 113 93 q 113 142 108 125 q 115 174 118 158 q 111 176 115 176 q 106 178 107 175 q 114 279 104 224 q 108 282 111 282 q 103 285 106 282 q 128 407 118 351 q 147 517 138 463 q 153 519 150 518 q 158 522 157 519 q 155 529 158 528 q 153 536 151 531 q 159 546 158 538 q 169 553 160 554 q 163 558 167 556 q 158 568 160 561 q 164 572 161 571 q 169 575 167 572 q 169 583 171 581 q 165 589 167 585 q 183 629 181 610 q 200 668 185 649 q 195 672 200 672 q 192 678 190 671 q 206 682 203 679 q 213 692 210 685 q 208 697 210 694 q 204 701 206 699 q 210 708 206 710 q 217 715 215 707 q 213 711 213 715 q 211 725 208 721 q 218 731 214 729 q 226 736 222 733 q 229 747 231 739 q 225 744 224 749 q 224 738 226 739 q 221 742 218 739 q 224 749 224 746 q 229 748 226 753 q 238 749 232 743 q 231 758 236 754 q 232 768 225 761 q 238 760 238 768 q 241 763 240 760 q 246 764 242 767 q 242 771 242 768 q 240 772 242 775 q 235 771 238 768 q 237 778 232 778 q 242 785 242 778 q 247 783 246 785 q 251 781 249 781 q 256 790 257 782 q 247 797 256 799 q 249 804 247 801 q 251 810 251 807 q 252 805 254 810 q 254 797 250 800 q 260 801 257 803 q 260 796 263 800 q 269 817 263 807 q 283 835 276 826 q 272 839 282 839 q 281 843 275 843 q 285 853 288 843 q 294 854 292 853 q 301 857 297 856 q 298 860 301 861 q 292 863 294 860 q 298 863 293 868 q 303 864 303 857 q 299 869 303 867 q 292 867 294 872 q 291 876 289 869 q 297 886 293 882 q 290 893 294 892 q 285 900 286 894 q 299 915 288 911 q 322 922 311 918 q 338 937 325 933 q 357 947 350 940 q 401 948 379 940 q 439 954 424 956 q 449 949 446 953 q 457 949 451 946 q 496 957 474 958 q 539 956 518 956 q 644 953 590 956 q 747 940 699 951 q 760 936 754 938 q 771 926 767 935 q 771 921 774 921 q 767 918 768 921 q 788 908 774 910 q 804 894 801 907 q 767 872 792 879 q 724 871 743 864 q 676 850 707 860 q 613 844 644 840 q 621 851 614 851 q 631 853 628 850 q 601 851 617 856 q 575 849 586 847 q 568 843 574 846 q 477 844 528 846 q 383 849 426 842 q 374 831 378 836 q 372 813 369 826 q 368 815 368 811 q 364 818 368 818 q 366 810 363 811 q 372 810 369 810 q 369 799 369 803 q 369 790 369 796 q 356 787 358 790 q 353 778 353 783 q 352 769 353 774 q 346 763 351 764 m 749 924 q 731 924 739 929 q 740 922 733 924 q 749 924 746 919 m 535 911 q 564 910 549 913 q 594 905 579 907 q 622 904 608 903 q 646 914 635 906 q 593 917 622 917 q 535 911 564 918 m 436 897 q 465 893 451 894 q 493 892 478 892 q 467 902 486 904 q 436 897 447 900 m 496 894 q 512 892 503 894 q 524 897 521 889 q 509 899 515 899 q 496 894 503 900 m 771 886 q 780 889 778 886 q 785 894 782 892 l 775 894 q 774 891 776 892 q 771 886 771 890 m 568 881 q 592 883 579 883 q 615 886 604 882 q 586 887 604 886 q 568 881 568 888 m 568 876 q 551 872 567 872 q 533 876 535 872 q 475 872 507 868 q 408 875 443 875 q 535 862 464 858 q 672 871 607 865 q 647 878 658 878 q 622 877 635 879 q 597 874 610 875 q 568 876 583 872 m 275 747 q 276 752 272 753 q 281 756 281 751 q 281 761 278 756 q 281 771 283 767 q 272 758 276 768 q 275 747 268 749 m 260 708 q 263 717 263 715 q 272 717 264 719 q 275 731 269 728 q 269 736 264 733 q 275 742 275 739 q 267 743 268 740 q 261 744 267 746 q 259 733 261 738 q 255 725 257 729 q 253 717 253 721 q 260 708 253 713 m 308 721 q 308 729 306 724 q 303 733 310 735 q 302 725 303 729 q 308 721 301 721 m 228 638 q 232 640 229 640 q 238 643 235 640 q 232 660 238 656 q 228 647 233 653 q 228 638 224 640 m 271 636 q 270 644 268 639 q 265 649 272 650 q 265 640 265 643 q 271 636 265 636 m 251 626 q 258 624 257 628 q 261 621 258 621 q 263 633 261 631 q 256 631 258 632 q 251 626 254 629 m 218 611 q 226 617 222 613 q 225 626 229 622 q 222 619 222 624 q 218 611 221 614 m 239 549 q 242 559 242 553 q 244 572 243 565 q 249 584 246 578 q 260 593 253 590 q 258 607 253 600 q 254 621 263 614 q 242 617 250 617 l 242 601 q 233 599 231 603 q 229 590 235 594 q 238 590 235 590 q 242 586 242 590 q 228 556 242 564 q 229 549 231 554 q 235 543 228 543 q 233 549 229 553 q 239 549 238 546 m 511 589 q 526 578 517 583 q 545 568 535 572 q 565 562 556 564 q 582 561 575 560 q 575 579 582 571 q 558 592 568 588 q 535 595 547 596 q 511 589 522 594 m 183 542 q 189 540 186 538 q 192 549 192 543 q 188 550 190 549 q 185 549 186 551 q 187 544 192 546 q 183 542 182 543 m 319 511 q 353 525 336 518 q 386 543 371 532 q 351 531 371 539 q 319 511 331 524 m 471 536 q 494 536 482 539 q 508 542 506 533 q 487 541 500 539 q 471 536 474 543 m 476 514 q 515 501 499 511 q 549 483 532 492 q 540 502 547 493 q 522 516 532 511 q 499 522 511 521 q 476 514 488 522 m 200 185 q 210 188 207 185 q 225 150 214 165 q 271 151 247 149 q 310 165 294 154 q 425 224 375 188 q 508 315 475 260 q 531 357 517 340 q 538 381 533 371 q 547 402 543 392 q 553 424 551 413 q 553 451 556 435 q 515 488 539 472 q 458 503 490 504 q 412 492 435 503 q 374 468 389 481 q 360 462 363 469 q 350 450 357 454 l 336 450 q 335 442 335 447 q 329 438 335 438 q 311 426 318 433 q 298 412 304 419 q 285 397 292 404 q 267 388 278 390 q 259 394 264 394 q 247 396 254 394 q 256 401 251 401 q 265 401 261 401 q 274 403 269 401 q 279 413 278 406 q 271 410 272 414 q 263 410 269 406 q 276 423 268 417 q 292 426 283 429 q 289 433 294 433 q 358 478 321 460 q 432 517 396 497 q 420 515 426 518 q 406 510 414 513 q 392 505 399 507 q 376 506 385 503 q 353 490 365 493 q 326 479 342 486 q 288 454 315 461 q 265 429 278 440 q 241 406 253 418 q 220 380 229 394 q 210 347 211 365 q 201 338 204 344 q 192 329 197 332 q 187 313 190 321 q 180 297 183 306 q 175 276 176 288 q 176 249 174 265 q 169 243 169 250 q 183 228 181 243 q 183 203 186 213 q 190 201 188 203 q 197 200 192 199 q 194 205 200 207 q 190 207 189 203 q 199 203 197 211 q 197 193 200 196 q 194 195 194 193 q 192 197 194 197 l 192 192 q 190 190 190 192 q 201 192 196 188 q 208 192 206 196 l 208 188 q 201 188 206 188 q 200 185 196 188 m 610 490 q 597 514 613 513 q 601 499 600 508 q 610 490 601 490 m 190 511 q 190 501 193 504 q 183 494 186 499 q 190 494 189 496 q 194 490 192 492 q 199 499 199 493 q 199 513 199 506 q 194 511 196 513 q 190 511 193 510 m 183 483 q 190 472 181 471 q 192 479 193 475 q 194 486 192 483 q 188 483 189 488 q 183 483 188 479 m 169 446 q 173 431 171 436 q 176 414 175 425 q 185 433 179 425 q 199 449 192 440 q 190 450 192 447 q 187 457 188 453 q 186 465 186 461 q 183 471 186 468 q 178 456 179 464 q 169 446 178 449 m 154 461 q 161 450 157 451 q 168 458 165 453 q 163 465 171 463 q 154 461 160 461 m 246 442 q 258 451 251 447 q 267 464 265 454 q 251 455 258 461 q 246 442 243 449 m 474 235 q 483 240 481 235 q 488 253 485 246 q 474 235 474 246 m 143 188 q 142 182 142 182 q 143 175 142 182 l 136 175 q 140 149 136 164 q 161 133 144 135 q 151 153 158 146 q 143 174 144 160 q 151 176 146 176 q 158 181 157 175 q 152 208 153 193 q 150 235 151 222 l 143 235 q 136 210 138 225 q 143 188 135 194 m 411 196 q 387 182 397 193 q 364 172 376 171 q 361 164 361 168 q 357 158 361 160 q 349 158 351 156 q 340 158 347 161 q 339 154 342 157 q 331 149 336 151 q 319 146 325 147 q 308 147 313 144 q 323 139 314 138 q 341 146 332 140 q 360 157 350 151 q 382 163 371 163 q 391 171 385 167 q 403 180 397 175 q 413 189 410 185 q 414 197 417 193 q 413 194 414 196 q 411 196 413 193 m 128 131 q 133 130 132 132 q 136 126 133 128 q 133 136 133 133 q 128 143 132 139 l 128 131 m 297 133 q 303 135 303 131 q 304 143 303 140 l 297 143 l 297 133 m 167 122 q 190 105 178 115 q 221 100 203 94 q 197 118 213 113 q 169 133 181 124 q 167 122 171 129 m 360 122 q 367 119 360 115 q 376 125 374 122 q 367 125 371 126 q 360 122 363 124 m 267 79 q 319 93 297 82 q 357 118 342 104 q 309 100 338 111 q 267 79 281 89 m 140 107 q 155 96 150 107 q 167 88 160 85 q 158 98 161 92 q 153 111 156 104 q 143 111 149 110 q 140 107 138 113 m 272 107 q 253 110 260 108 q 238 111 246 111 q 253 100 240 100 q 272 107 265 100 m 208 56 q 168 70 185 63 q 136 89 151 78 q 164 56 140 65 q 208 56 188 46 m 183 79 q 179 83 179 79 q 175 85 179 88 q 176 77 172 79 q 183 79 181 75 m 176 40 q 153 49 161 43 q 132 58 144 56 q 139 29 135 44 q 158 8 143 14 q 184 7 171 6 q 210 13 197 8 q 234 24 224 18 q 250 36 244 31 q 213 42 232 46 q 176 40 193 38 z "},"В":{"ha":664,"x_min":40,"x_max":599,"o":"m 113 643 q 110 646 113 646 q 107 649 107 646 q 102 649 104 654 q 94 646 100 643 q 97 658 94 657 q 110 657 100 658 q 103 662 110 663 q 94 664 97 661 q 99 672 97 668 q 104 681 101 676 q 115 677 114 681 q 122 681 117 674 q 117 688 111 683 q 125 699 124 692 q 107 685 111 696 q 104 692 100 688 q 107 700 108 697 q 111 698 110 700 q 115 696 113 696 q 115 705 118 703 q 113 714 111 707 q 127 713 122 710 q 136 724 132 717 q 126 724 133 728 q 115 724 118 719 q 124 747 125 735 q 136 765 122 758 q 144 805 133 783 q 167 846 154 826 q 165 851 167 850 q 164 857 164 853 q 178 879 172 865 q 191 906 185 893 q 207 926 197 918 q 232 929 217 933 q 242 932 236 932 q 253 935 247 932 q 259 907 258 924 q 258 874 260 890 q 254 840 257 857 q 250 813 251 824 q 290 843 271 825 q 328 879 308 861 q 369 912 347 897 q 419 932 392 926 q 458 944 439 936 q 500 950 476 951 q 508 943 504 949 q 512 931 511 938 q 510 918 513 924 q 501 911 508 913 q 497 933 508 924 q 474 932 485 943 q 483 919 478 928 q 483 898 485 907 q 477 881 481 889 q 472 865 474 874 q 471 843 469 856 q 477 828 481 839 q 481 813 474 818 q 414 649 457 718 q 450 661 431 656 q 490 667 469 667 q 530 663 511 668 q 563 646 549 658 q 571 628 569 636 q 582 615 572 619 q 596 547 593 579 q 597 482 599 515 q 590 413 594 449 q 582 335 586 378 q 578 333 579 331 q 572 338 576 336 q 274 19 493 110 q 278 10 274 13 q 283 -1 283 7 q 327 -9 307 -11 q 366 2 347 -7 q 401 24 385 11 q 432 49 417 36 q 452 72 443 56 q 468 100 461 88 q 483 116 475 110 q 497 132 490 122 q 516 169 508 150 q 536 201 524 189 q 555 271 544 238 q 581 329 565 304 q 570 283 575 306 q 554 246 565 261 q 544 199 556 221 q 521 157 532 178 q 521 151 519 156 q 521 144 522 147 q 517 142 519 142 q 513 142 514 143 q 507 127 508 136 q 501 114 506 118 q 488 96 497 107 q 471 75 478 85 q 460 68 467 71 q 456 54 454 65 q 418 24 439 42 q 373 -7 397 6 q 323 -21 349 -19 q 271 -1 297 -22 q 271 7 272 4 q 267 11 269 10 q 262 15 264 13 q 260 22 260 17 q 220 13 242 18 q 177 7 199 8 q 138 10 156 6 q 107 31 119 14 q 113 32 113 29 q 119 33 114 35 q 101 49 117 49 q 101 40 96 47 q 101 33 107 33 q 96 35 97 33 q 92 40 94 38 q 83 28 86 35 q 76 14 81 21 q 66 1 72 7 q 50 -4 60 -4 q 53 13 53 6 q 47 25 54 19 q 52 54 53 40 q 53 88 51 68 q 49 113 54 101 q 42 139 43 125 q 45 184 40 161 q 53 231 50 207 q 54 257 54 238 q 65 288 54 276 q 59 310 58 294 q 60 332 60 325 q 60 359 61 344 q 65 386 58 374 q 63 389 65 389 q 57 389 60 389 q 60 403 61 394 q 60 419 58 413 q 67 418 63 417 q 71 425 71 419 q 67 425 68 431 q 60 422 65 419 q 64 438 64 432 q 63 454 64 443 q 68 443 71 454 q 65 476 67 463 q 76 508 64 490 q 73 510 75 514 q 68 511 71 507 q 72 537 68 524 q 78 561 75 550 q 83 583 82 572 q 78 600 83 593 q 97 617 93 610 q 113 643 101 625 m 426 875 q 420 881 429 881 q 411 878 411 881 q 419 876 417 878 q 426 875 421 874 m 417 863 q 400 864 414 864 q 408 857 400 858 q 417 863 417 856 m 244 818 q 248 831 247 821 q 244 843 249 840 q 240 842 240 840 q 241 847 240 843 q 242 853 242 850 q 238 857 242 857 q 236 833 239 846 q 244 818 233 819 m 375 822 q 388 818 382 821 q 400 813 393 815 q 403 822 406 818 q 400 833 400 826 q 385 834 392 839 q 375 822 378 829 m 390 639 q 384 632 383 632 q 388 634 385 632 q 396 639 392 636 q 400 643 400 642 q 412 665 406 651 q 424 692 418 678 q 438 717 431 706 q 453 735 444 729 q 458 776 450 758 q 461 815 467 793 q 449 802 451 811 q 444 781 446 793 q 433 769 436 776 q 428 752 429 761 q 428 733 428 743 q 426 717 428 724 q 418 703 421 714 q 413 683 415 693 q 406 668 410 674 q 396 667 403 663 q 393 654 389 661 q 390 654 397 647 l 390 639 m 268 756 q 235 692 247 725 q 226 618 224 658 q 220 585 219 606 q 211 553 221 564 q 251 574 233 560 q 283 604 268 588 q 310 638 297 621 q 339 669 324 654 q 353 701 343 688 q 374 729 364 715 q 392 758 385 743 q 399 794 400 774 q 365 809 383 810 q 328 800 346 808 q 295 778 311 792 q 268 756 279 765 m 417 628 q 501 628 463 640 q 567 597 539 617 q 548 638 567 624 q 504 653 529 651 q 454 649 479 656 q 417 628 429 642 m 474 558 q 467 564 469 560 q 461 571 465 568 q 399 558 424 568 q 439 560 415 560 q 474 558 463 561 m 331 526 q 393 558 371 538 q 357 547 372 556 q 331 526 342 538 m 390 535 q 431 531 414 536 q 459 517 447 526 q 480 497 471 508 q 500 475 489 485 q 492 506 497 493 q 481 535 486 519 q 438 549 465 549 q 390 535 410 549 m 419 308 q 442 388 429 344 q 440 485 454 431 q 420 505 429 496 q 396 517 411 514 q 344 513 367 521 q 303 493 322 506 q 270 465 285 481 q 242 438 256 450 q 208 408 224 422 q 182 374 192 393 q 178 352 178 363 q 178 329 179 342 q 159 244 171 289 q 140 157 147 199 q 153 157 149 158 q 164 156 157 156 q 171 142 164 147 q 187 137 178 138 q 206 137 196 136 q 221 139 215 138 q 224 142 225 139 q 223 149 224 144 q 222 156 222 153 q 229 160 222 160 q 234 149 240 156 q 232 136 228 142 q 294 163 267 146 q 344 203 322 181 q 384 253 365 226 q 419 308 403 281 m 140 493 q 140 503 143 499 q 143 514 138 507 l 136 514 q 133 500 135 508 q 140 493 132 492 m 435 308 q 451 338 440 322 q 473 370 463 353 q 490 406 483 388 q 494 443 497 424 q 474 483 490 467 q 440 511 457 499 q 458 463 456 489 q 458 410 461 438 q 447 357 454 383 q 435 308 439 331 m 107 397 q 115 411 114 406 q 122 425 117 417 q 116 435 111 424 q 122 451 121 446 q 111 453 114 449 q 104 461 108 458 q 103 428 107 446 q 107 397 99 411 m 521 392 q 535 426 529 407 q 536 461 542 446 q 526 433 533 446 q 521 392 518 419 m 554 436 q 556 446 551 440 q 554 454 561 451 q 551 444 551 451 q 554 436 550 438 m 551 418 q 549 433 557 429 q 547 426 546 431 q 551 418 549 421 m 501 288 q 521 311 517 294 q 528 338 525 328 q 514 313 521 325 q 501 288 507 301 m 360 171 q 384 190 375 178 q 403 215 393 201 q 376 194 389 207 q 360 171 364 181 m 349 108 q 379 131 364 117 q 399 160 394 146 q 373 134 386 146 q 349 108 360 122 m 131 126 q 136 129 136 124 q 140 135 136 135 q 175 111 147 110 q 180 118 175 117 q 190 120 185 119 q 201 122 196 121 q 208 126 206 122 q 192 128 199 129 q 178 121 185 128 q 160 138 172 133 q 138 153 147 143 q 134 138 138 142 q 131 126 131 133 m 271 97 q 310 117 294 104 q 343 142 325 131 q 343 147 343 144 q 340 150 343 150 q 304 125 321 139 q 271 97 288 111 m 242 108 l 242 97 q 256 103 249 100 q 265 114 263 107 q 254 110 256 115 q 242 108 253 106 m 63 56 q 69 66 65 61 q 71 79 72 71 q 65 81 67 79 q 60 82 64 82 q 61 69 65 76 q 63 56 57 63 m 232 76 q 224 78 225 75 q 217 79 222 81 q 224 72 215 72 q 232 76 232 71 m 301 49 q 335 62 317 51 q 351 79 354 72 q 326 66 339 72 q 301 49 313 60 m 169 49 q 153 54 160 50 q 140 63 146 58 q 126 69 133 67 q 110 72 119 72 q 116 59 110 65 q 132 49 122 53 q 152 44 142 44 q 169 49 163 44 m 208 51 q 226 51 214 51 q 239 58 239 50 q 221 58 231 57 q 208 51 211 58 m 68 40 q 65 28 69 32 q 57 19 61 24 q 65 16 63 22 q 71 17 68 10 q 74 29 67 22 q 81 43 81 36 q 76 41 76 44 q 68 40 75 38 m 146 33 q 158 23 149 26 q 177 19 167 19 q 197 21 188 18 q 211 31 207 24 q 179 33 189 32 q 146 33 169 33 z "},"Г":{"ha":685,"x_min":43,"x_max":757,"o":"m 313 918 q 316 926 317 921 q 318 935 315 931 q 347 939 335 936 q 371 933 360 942 q 370 939 367 938 q 378 940 374 940 q 388 939 383 940 q 392 935 393 938 q 396 938 397 933 q 399 946 394 943 q 455 940 425 938 q 506 933 485 943 q 545 933 525 931 q 586 936 565 935 q 627 937 607 938 q 665 929 647 936 q 669 927 668 931 q 672 921 669 924 q 703 915 688 913 q 732 911 719 917 q 746 903 736 910 q 756 890 756 896 q 749 874 757 881 q 731 864 742 868 q 710 857 721 860 q 692 853 699 854 q 656 836 671 847 q 618 822 640 825 q 617 832 617 826 q 574 816 600 824 q 539 815 549 808 q 535 812 535 815 q 533 807 536 808 q 414 788 475 792 q 285 797 353 783 q 262 651 271 728 q 246 490 253 574 q 243 496 243 490 q 216 319 236 401 q 178 165 196 238 q 188 151 188 160 q 184 131 188 142 q 178 110 181 121 q 178 90 175 99 q 165 89 172 89 q 163 94 163 93 q 165 99 164 96 q 154 76 158 89 q 147 51 150 64 q 139 26 143 38 q 128 6 135 14 q 117 6 121 3 q 110 10 114 8 q 90 -9 96 4 q 67 -26 83 -22 q 58 90 43 38 q 60 60 58 81 q 64 23 61 40 q 72 -1 67 6 q 88 13 78 -7 q 83 22 85 17 q 78 29 82 26 q 75 87 79 54 q 78 144 71 119 q 82 143 81 144 q 86 143 83 142 q 86 108 86 124 q 90 75 86 93 q 94 115 94 90 q 92 151 93 139 q 83 151 85 147 q 76 149 82 154 q 76 168 74 161 q 81 181 78 175 q 86 178 83 178 q 92 176 89 179 q 94 186 93 181 q 93 201 94 192 q 85 206 90 204 q 79 217 79 207 q 88 215 82 214 q 93 208 93 217 q 92 226 96 217 q 88 228 92 229 q 82 226 85 226 q 85 235 85 233 q 92 236 85 238 q 91 246 93 243 q 85 249 89 249 q 79 252 82 250 q 76 260 76 254 q 82 263 83 260 q 85 258 86 265 q 88 254 83 251 q 90 260 90 256 q 90 267 90 264 q 90 273 89 271 q 96 275 90 275 q 91 277 93 278 q 86 278 89 276 q 86 295 90 286 q 85 321 82 304 q 88 319 88 321 q 90 318 88 318 q 90 327 88 325 q 93 335 93 329 q 87 340 90 336 q 85 340 83 344 q 90 370 85 351 q 89 400 96 389 q 92 426 94 411 q 103 447 90 440 q 99 451 103 451 q 92 453 96 451 q 94 472 96 460 q 100 486 92 485 q 97 492 99 489 q 93 496 96 496 q 97 508 94 503 q 100 521 99 513 q 110 516 107 515 q 122 517 114 517 q 113 523 119 526 q 103 528 107 519 q 109 565 103 553 q 113 603 115 578 q 117 605 115 603 q 121 607 118 607 q 119 620 118 614 q 123 633 121 626 q 126 646 125 639 q 126 661 128 653 q 131 666 132 661 q 135 669 129 671 q 135 678 132 675 q 133 683 139 681 q 174 813 153 749 q 226 929 194 876 q 242 930 236 929 q 251 938 247 931 q 276 932 263 929 q 280 923 276 924 q 283 915 283 922 q 296 918 292 913 q 303 921 300 924 q 301 916 300 915 q 305 919 303 917 q 310 922 307 921 q 313 918 313 922 m 381 875 q 367 874 374 874 q 357 865 360 875 q 430 863 392 860 q 496 881 468 865 q 438 880 467 879 q 381 875 408 881 m 681 890 q 663 892 668 890 q 673 884 664 885 q 681 890 682 883 m 199 808 q 202 809 200 808 q 206 810 204 810 q 208 822 203 819 q 211 833 213 825 q 201 835 208 836 q 201 820 201 826 q 199 808 200 814 m 621 863 q 633 865 629 857 q 649 871 638 872 q 635 872 646 878 q 621 863 625 865 m 207 785 q 192 767 196 778 q 185 744 188 756 q 178 722 182 732 q 168 706 175 711 q 161 669 165 686 q 151 636 157 653 q 162 640 158 632 q 167 653 165 649 q 179 700 175 674 q 199 742 183 726 q 202 766 199 756 q 210 786 206 776 q 219 806 215 796 q 225 829 224 817 l 217 829 q 220 817 222 822 q 214 808 218 813 q 206 797 210 803 q 207 785 203 792 m 504 844 q 533 848 519 850 q 556 856 547 846 q 529 857 544 857 q 504 844 514 857 m 438 808 q 403 813 419 817 q 369 810 386 808 q 327 819 349 813 q 288 815 306 826 q 286 811 286 815 q 417 797 353 790 q 531 817 482 803 q 485 814 511 814 q 438 808 458 814 m 190 786 q 197 788 194 785 q 199 794 199 790 q 197 801 199 799 q 193 801 194 803 q 192 795 197 799 q 190 786 188 792 m 199 692 q 198 676 203 682 q 190 663 193 669 q 183 619 188 643 q 169 575 179 596 q 167 553 172 567 q 174 532 163 540 q 177 558 171 547 q 181 585 183 569 q 186 606 190 586 q 196 628 193 611 q 201 661 199 646 q 208 672 207 664 q 208 688 210 679 q 220 715 214 697 q 219 742 226 732 q 210 713 214 728 q 199 692 207 699 m 143 644 q 147 663 142 656 q 144 676 151 669 q 142 660 144 669 q 143 644 139 650 m 129 619 q 130 609 135 614 q 131 600 125 604 q 139 619 135 611 q 136 638 143 626 q 135 626 133 632 q 129 619 136 619 m 210 585 q 213 594 211 589 q 213 606 215 599 q 208 595 210 603 q 210 585 207 588 m 125 567 q 129 576 125 574 q 132 586 133 579 q 120 579 122 589 q 125 567 118 569 m 199 568 q 201 558 201 564 q 206 553 201 551 q 210 560 207 558 q 214 564 213 561 q 208 571 208 564 q 204 575 208 578 q 203 567 206 569 q 199 568 200 565 m 189 508 q 194 502 196 508 q 194 489 193 496 q 199 498 199 492 q 200 510 200 504 q 201 522 200 517 q 208 528 203 528 q 207 538 206 532 q 206 546 208 543 q 203 543 204 538 q 197 546 201 549 q 197 524 197 535 q 189 508 196 514 m 151 515 q 160 511 160 517 q 160 497 161 506 l 164 497 q 165 499 165 497 q 167 503 165 501 q 168 507 168 504 q 168 514 161 507 q 174 528 175 521 q 160 524 165 525 q 151 515 154 524 m 158 469 q 168 476 164 469 q 164 482 161 479 q 167 492 167 485 q 160 490 165 490 q 159 478 163 479 q 158 469 156 476 m 140 447 q 132 444 136 446 q 125 444 128 442 q 131 421 139 436 q 138 417 138 424 q 144 413 139 411 q 149 417 147 414 q 156 419 151 419 q 156 432 153 429 q 163 440 160 435 q 160 447 160 442 q 162 456 161 451 q 163 463 163 460 q 158 467 163 467 q 156 455 156 463 q 153 443 156 447 q 150 445 153 446 q 146 447 147 444 q 149 458 151 454 q 150 474 147 463 q 144 481 146 472 q 142 483 143 489 q 142 466 147 472 q 140 447 138 460 m 186 483 q 189 473 186 476 q 190 463 192 469 q 199 486 199 472 q 186 483 192 489 m 186 428 q 192 442 192 433 q 193 457 193 450 q 188 453 190 451 q 183 451 186 456 q 188 439 190 449 q 186 428 185 429 m 115 321 q 119 317 118 319 q 122 313 119 314 q 117 253 117 289 q 126 185 117 217 q 143 294 138 238 q 142 407 149 351 q 137 410 138 407 q 132 411 136 413 q 124 363 124 385 q 115 321 125 340 m 189 378 q 196 386 196 379 q 200 397 196 393 q 190 388 192 394 q 189 378 189 382 m 154 310 q 166 342 164 325 q 167 381 168 360 q 160 346 158 367 q 154 310 161 325 m 186 368 q 188 363 186 365 q 192 360 190 361 q 194 365 192 363 q 194 372 196 367 q 191 374 192 372 q 189 375 190 375 q 188 369 186 369 q 192 367 190 369 q 186 368 189 367 m 185 335 q 187 344 185 338 q 186 350 189 350 q 183 342 186 347 q 185 335 181 338 m 86 165 q 90 164 90 165 q 90 160 90 163 q 88 156 89 158 q 92 154 88 154 q 93 160 93 156 q 92 167 93 164 q 89 171 90 171 q 86 165 88 171 m 172 138 q 179 146 179 138 q 183 160 179 154 q 174 149 178 157 q 172 138 169 142 z "},"Д":{"ha":735,"x_min":-1,"x_max":667,"o":"m 506 256 q 503 251 506 251 q 501 249 500 251 q 499 246 503 244 q 493 246 496 247 q 491 249 486 246 q 493 256 496 253 l 486 256 q 483 251 481 258 q 479 246 485 243 q 476 247 475 243 q 478 253 478 251 q 468 251 472 249 q 464 242 464 253 q 446 243 453 239 q 431 238 439 247 q 433 243 431 242 q 438 249 436 244 q 419 244 429 242 q 404 238 410 246 q 408 233 406 231 q 413 233 410 236 q 407 230 408 229 q 405 233 406 231 q 403 240 404 236 q 400 243 401 243 q 398 242 396 243 q 397 238 400 240 q 368 237 388 240 q 331 231 349 233 q 336 224 333 225 q 340 218 339 224 q 326 222 329 219 q 315 231 322 224 q 315 226 313 228 q 321 222 318 224 q 308 217 314 215 q 292 221 303 218 l 292 231 q 281 223 286 225 q 276 211 276 221 q 272 222 269 211 q 269 219 268 224 q 268 213 269 215 q 201 208 236 213 q 125 211 165 204 q 99 142 114 178 q 68 76 83 107 q 54 47 60 63 q 41 18 49 32 q 24 -7 33 4 q 1 -22 15 -18 q 13 126 -1 56 q 56 253 26 197 q 74 270 67 256 q 92 285 81 285 q 101 281 99 286 q 111 276 103 276 q 124 290 118 283 q 139 300 129 296 q 142 326 140 311 q 144 358 143 342 q 148 388 146 374 q 154 413 150 403 q 163 487 151 451 q 185 553 174 522 q 196 578 188 574 q 207 604 196 597 q 207 618 206 610 q 215 625 208 626 q 216 640 213 632 q 225 656 219 649 q 242 702 232 682 q 263 744 251 722 q 259 752 263 750 q 258 763 256 754 q 283 793 275 768 q 277 797 281 796 q 274 803 274 797 q 284 824 276 818 q 301 836 292 831 q 359 883 324 869 q 431 900 394 896 q 433 907 433 900 q 530 932 482 925 q 628 931 578 939 q 631 943 631 938 q 639 951 632 949 q 652 942 647 950 q 660 923 657 935 q 664 898 663 911 q 665 872 665 885 q 662 794 667 836 q 654 724 657 753 q 656 700 654 713 q 650 681 658 688 q 651 656 656 671 q 646 626 647 642 q 642 629 643 626 q 639 629 642 632 q 640 619 639 621 q 646 614 640 617 q 636 608 642 607 q 640 604 635 604 q 638 592 638 597 q 635 583 639 586 q 631 552 638 565 q 617 528 624 539 q 597 433 611 475 q 571 346 582 392 q 592 343 581 343 q 613 343 603 343 q 633 341 624 343 q 650 332 643 339 q 646 319 653 322 q 639 307 639 315 q 644 300 640 301 q 650 293 649 299 q 649 217 651 254 q 643 147 646 179 q 643 133 643 140 q 646 126 643 126 q 643 121 646 121 q 639 118 640 121 q 638 85 646 101 q 632 49 631 69 q 616 23 622 38 q 593 11 610 8 q 575 26 582 14 q 565 57 568 38 q 556 60 564 63 q 545 83 547 69 q 544 113 543 97 q 547 143 544 128 q 550 172 550 158 q 549 218 551 196 q 549 264 546 240 q 534 259 539 263 q 526 253 529 256 q 518 251 522 251 q 506 256 514 251 m 314 224 q 309 226 313 229 q 304 221 306 224 l 314 221 l 314 224 m 646 842 q 653 858 651 847 q 656 881 656 869 q 653 903 656 893 q 647 918 650 914 q 646 878 646 897 q 646 842 646 860 m 563 915 q 574 908 565 908 q 586 915 583 908 q 576 915 582 918 q 563 915 569 913 m 557 879 q 565 879 561 879 q 568 886 568 879 q 557 879 560 885 m 363 849 q 381 844 368 843 q 393 854 393 844 q 377 851 385 858 q 363 849 369 844 m 413 850 q 411 856 411 851 q 403 849 401 856 q 409 849 407 850 q 413 850 411 849 m 200 318 q 222 324 207 318 q 247 328 238 331 q 242 326 247 324 q 239 321 236 329 q 246 320 240 318 q 254 317 251 322 q 254 311 254 317 q 223 311 235 314 q 200 311 211 308 q 200 296 194 301 q 242 305 224 299 q 286 311 261 311 q 287 316 288 314 q 289 318 286 318 q 292 315 292 318 q 294 310 293 313 q 307 315 299 315 q 318 325 315 315 q 319 320 317 321 q 323 321 321 319 q 328 324 325 322 q 331 326 331 326 q 376 325 353 319 q 419 332 400 331 q 401 338 411 338 q 382 336 392 338 q 361 335 372 335 q 340 340 350 335 q 334 332 340 329 q 325 338 328 335 q 314 332 321 332 q 300 332 307 332 q 287 332 293 332 q 278 326 281 332 q 272 331 275 329 q 269 338 269 332 q 376 345 328 342 q 478 346 424 349 q 481 384 481 365 q 490 415 482 403 q 487 378 488 396 q 483 346 486 360 q 492 349 489 343 q 495 363 494 354 q 497 378 496 371 q 500 389 497 386 q 502 384 503 390 q 504 378 501 378 q 506 388 503 385 q 508 397 508 390 q 503 405 501 397 q 508 406 506 413 q 513 451 510 429 q 519 492 517 472 q 526 483 521 492 q 535 542 531 519 q 539 599 539 565 l 543 599 q 542 606 543 604 q 542 615 540 608 q 547 629 544 617 q 546 647 549 642 q 549 651 549 649 q 553 654 550 653 q 558 690 553 672 q 568 721 564 707 q 570 739 571 729 q 572 757 569 749 q 589 800 579 779 q 592 849 599 821 q 579 813 586 831 q 565 775 572 796 q 561 751 563 764 q 556 726 560 738 q 553 722 553 718 q 554 717 554 726 q 547 676 554 697 q 546 635 539 654 q 539 632 540 635 q 530 560 533 599 q 524 499 526 521 q 519 499 521 501 q 518 500 518 496 q 518 522 515 518 q 524 533 521 526 q 521 536 521 531 q 518 546 521 542 q 511 520 513 531 q 511 492 510 510 q 503 475 504 488 q 501 448 501 463 q 500 421 501 433 q 493 404 499 408 q 497 478 493 436 q 506 560 501 519 q 508 565 508 563 q 511 568 508 567 q 519 635 514 607 q 528 699 524 663 q 531 700 531 699 q 532 700 531 701 q 545 772 535 736 q 563 839 556 807 q 540 833 550 836 q 518 829 529 829 q 516 824 518 825 q 513 821 514 824 q 486 818 497 824 q 463 808 475 813 q 446 806 456 806 q 429 804 436 807 q 404 792 418 800 q 382 785 390 785 q 381 788 381 785 q 378 789 381 790 q 376 786 378 788 l 374 783 q 356 776 365 778 q 339 771 347 774 q 313 680 325 726 q 289 589 301 633 q 285 594 289 594 q 285 588 288 585 q 281 586 283 592 q 283 581 278 578 q 286 578 288 583 q 281 561 283 571 q 281 540 278 551 q 277 538 278 540 q 274 538 276 536 q 269 503 268 515 q 258 482 269 492 q 258 474 256 476 q 258 471 261 471 q 256 472 256 471 q 254 474 257 474 q 253 468 251 467 q 257 463 256 469 q 249 449 250 461 q 249 425 247 436 q 242 419 244 424 q 236 413 240 414 q 237 409 236 406 q 240 411 238 413 q 237 395 238 404 q 228 388 236 386 q 225 372 229 379 q 216 357 221 364 q 206 340 211 350 q 200 318 200 331 m 626 829 q 631 839 631 832 q 628 849 631 846 q 628 838 629 842 q 626 829 626 833 m 631 626 q 644 723 638 676 q 654 824 651 769 l 650 824 q 637 724 643 778 q 631 626 631 671 m 292 804 q 302 809 299 804 q 308 821 306 814 q 292 804 296 814 m 621 788 q 618 783 618 785 q 615 785 618 782 q 615 749 618 763 q 608 719 613 736 q 617 732 614 719 q 622 759 621 744 q 621 786 622 774 q 614 799 619 799 q 617 794 617 797 q 621 788 618 790 m 576 715 q 560 637 568 679 q 546 557 551 594 q 542 530 543 544 q 543 503 540 515 q 565 617 557 560 q 585 733 572 675 q 578 725 579 731 q 576 715 576 719 m 278 699 q 279 693 278 694 q 281 689 281 692 q 278 685 278 689 q 278 686 278 681 q 285 694 282 689 q 285 701 288 700 q 278 699 285 697 m 232 644 q 217 610 219 632 q 201 581 214 589 q 203 574 201 576 q 203 564 204 571 q 199 560 200 563 q 194 560 199 557 q 192 532 194 546 q 183 513 190 518 q 183 503 182 506 q 185 496 185 501 q 179 494 182 492 q 176 492 176 497 q 178 491 178 492 q 175 492 178 490 q 178 488 179 488 q 176 479 178 489 q 173 463 175 474 q 169 440 171 451 q 163 418 167 428 q 154 406 160 408 q 160 403 157 403 q 164 399 164 404 q 156 388 158 399 q 164 378 154 376 q 163 389 164 388 q 172 411 169 396 q 178 446 175 426 q 186 479 185 463 q 194 507 188 496 q 202 546 197 529 q 212 578 207 563 q 222 609 217 593 q 232 644 228 625 q 243 665 238 651 q 247 683 249 679 q 238 665 243 672 q 232 644 232 657 m 263 629 q 269 652 267 640 q 278 672 272 664 q 277 677 274 672 q 278 681 281 682 q 267 655 272 665 q 263 629 263 644 m 563 506 q 576 581 568 542 q 582 656 585 621 q 569 578 578 618 q 563 506 560 539 m 221 581 q 227 590 224 583 q 228 601 231 596 q 224 591 225 597 q 221 581 224 585 m 267 574 q 270 588 265 581 q 268 599 275 596 q 265 585 269 589 q 267 574 261 581 m 521 553 q 522 569 518 560 q 519 581 526 578 q 517 564 519 574 q 521 553 514 554 m 579 543 q 581 549 582 544 q 585 553 581 554 q 585 558 585 556 q 582 564 585 561 q 579 553 582 557 q 579 543 576 549 m 214 514 q 217 513 217 514 q 218 513 217 513 q 225 526 221 522 q 218 525 219 532 q 214 514 217 518 m 569 489 q 576 508 572 494 q 575 526 579 521 q 570 506 574 515 q 569 489 567 496 m 194 449 q 210 470 208 450 q 214 503 213 490 q 203 482 208 485 q 205 463 210 475 q 194 449 200 451 m 546 453 q 547 460 547 458 q 546 465 546 463 q 550 471 550 465 q 543 463 546 472 q 546 453 540 453 m 556 404 q 563 431 560 417 q 572 458 567 444 q 560 433 567 447 q 556 404 554 419 m 531 411 q 535 415 533 408 q 532 425 536 422 q 531 411 531 419 m 572 415 q 568 397 574 403 q 569 383 563 390 q 575 405 572 394 q 585 419 578 415 q 572 415 578 419 m 181 394 q 185 401 185 394 q 188 411 185 408 q 181 394 181 407 m 557 372 q 557 362 558 368 q 561 357 556 356 q 567 369 561 363 q 565 379 572 376 q 563 372 565 374 q 557 372 560 369 m 543 343 q 551 353 549 344 q 550 368 553 361 q 544 356 547 363 q 543 343 540 349 m 514 340 q 521 350 518 342 q 521 361 524 358 q 514 340 517 354 m 628 325 q 629 318 631 322 q 639 326 639 318 q 633 329 638 329 q 628 325 628 329 m 263 274 q 278 273 268 272 q 293 279 289 274 q 277 280 286 276 q 263 274 268 283 m 385 272 q 363 275 374 271 q 344 272 351 279 q 365 268 351 271 q 385 272 379 265 m 599 238 q 606 249 606 238 q 603 264 607 260 q 599 251 603 256 q 599 238 594 247 m 22 122 q 36 169 29 143 q 50 218 43 194 q 54 222 53 217 q 51 224 56 226 q 33 176 42 203 q 22 122 24 150 m 590 201 q 592 213 592 207 q 594 224 593 218 l 590 224 q 589 212 592 218 q 590 201 586 206 m 594 60 q 592 43 597 47 q 586 28 586 39 q 608 25 599 18 q 623 49 617 32 q 633 88 629 65 q 639 133 638 111 q 640 174 640 156 q 639 201 640 193 q 622 122 629 163 q 594 60 615 82 m 610 136 q 619 157 617 142 q 621 181 621 172 q 614 160 618 169 q 610 136 610 151 m 50 143 q 58 155 54 147 q 61 169 63 163 q 57 167 60 165 q 56 155 61 158 q 50 143 51 151 m 592 143 q 597 151 594 146 q 597 161 600 157 q 592 151 596 157 q 592 143 589 146 m 54 83 q 67 115 61 94 q 72 144 72 136 q 58 114 65 133 q 54 83 51 94 m 576 96 q 582 90 579 96 q 592 106 589 94 q 594 124 594 118 q 585 110 592 115 q 576 96 579 106 m 1 -15 q 9 -9 4 -11 q 17 -1 14 -7 q 13 6 13 0 l 6 6 q 2 -6 4 1 q 1 -15 0 -14 z "},"Е":{"ha":682,"x_min":-3,"x_max":704,"o":"m 539 864 q 524 859 536 860 q 515 847 513 858 q 494 841 506 843 q 476 831 482 839 q 471 836 471 829 q 383 789 429 810 q 285 753 338 768 q 299 747 286 743 q 322 753 313 750 q 349 761 336 757 q 368 772 363 765 q 411 784 394 774 q 451 797 428 794 q 370 760 415 774 q 282 732 325 747 q 281 683 285 710 q 269 635 278 656 q 278 632 271 632 q 270 602 274 619 q 269 572 267 585 q 263 566 264 571 q 254 564 261 561 q 323 575 286 567 q 397 588 360 583 q 470 588 435 592 q 536 564 506 585 q 504 535 525 544 q 460 519 483 526 q 461 525 457 525 q 465 531 465 525 q 450 521 454 528 q 435 511 446 514 q 455 498 446 504 q 471 483 464 492 q 447 492 456 483 q 424 503 439 500 q 399 499 411 504 q 376 487 388 493 q 352 475 364 481 q 328 472 340 469 q 290 452 313 458 q 247 435 267 446 q 244 416 250 421 q 242 399 239 411 q 233 401 239 401 q 238 397 236 399 q 242 392 239 394 q 237 385 242 386 q 229 382 232 383 q 234 372 231 375 q 233 361 238 369 q 227 364 229 363 q 221 361 225 365 q 228 353 221 351 q 239 351 236 354 q 235 345 238 347 q 233 338 233 343 q 225 342 228 340 q 214 340 222 344 q 217 327 211 329 q 231 328 224 325 q 230 317 232 321 q 224 308 228 313 q 220 301 221 304 q 226 293 219 297 q 218 290 225 289 q 208 288 211 292 q 224 282 210 282 q 224 254 217 268 q 215 263 219 260 q 214 274 210 267 q 209 273 213 275 q 202 269 206 271 q 195 267 199 267 q 190 274 192 267 q 194 263 183 267 q 211 257 204 258 q 201 249 206 249 q 190 242 197 249 q 207 237 197 238 q 214 221 217 236 q 207 219 210 221 q 199 218 204 217 q 199 204 204 213 q 193 186 194 196 q 249 196 221 188 q 305 213 276 204 q 364 230 333 222 q 426 239 394 238 q 479 243 451 239 q 536 251 507 247 q 594 255 565 254 q 650 251 622 256 q 656 243 650 244 q 644 228 653 232 q 625 221 635 225 q 631 215 628 218 q 639 211 633 213 q 594 169 626 181 q 604 163 596 163 q 617 161 613 164 q 592 137 608 144 q 560 122 576 129 q 571 118 564 118 q 585 117 578 118 q 597 115 592 117 q 603 104 601 113 q 577 92 589 101 q 551 86 565 82 q 579 101 560 94 q 536 104 560 107 q 488 97 513 101 q 440 85 464 92 q 399 78 417 79 q 398 76 394 78 q 396 71 401 74 q 308 51 354 64 q 218 28 261 39 q 185 31 197 33 q 163 19 172 28 q 147 1 154 11 q 132 -18 140 -10 q 117 -3 121 -11 q 104 18 113 4 q 89 18 96 19 q 76 16 82 17 q 65 15 71 15 q 56 21 60 15 q 62 30 54 29 q 74 35 69 31 q 72 42 74 39 q 71 53 69 46 q 50 56 60 53 q 33 61 40 58 q 37 78 31 74 q 49 89 43 83 q 51 110 42 103 q 74 126 61 118 q 94 143 86 133 q 92 169 101 153 q 99 178 94 175 q 110 178 103 182 q 101 183 107 181 q 92 190 96 186 q 87 201 88 194 q 93 217 86 207 q 86 232 85 221 q 89 249 88 243 q 98 248 96 251 q 104 249 100 244 q 97 255 104 256 q 83 254 90 254 q 90 266 90 260 q 99 276 89 272 q 91 285 93 279 q 96 293 89 290 q 92 294 94 297 q 89 299 89 292 q 91 308 89 308 q 99 310 93 307 q 95 317 96 313 q 89 318 94 321 q 92 329 92 321 q 86 338 92 338 q 99 349 88 343 q 90 351 92 349 q 90 359 89 354 q 94 369 92 364 q 96 382 96 375 q 108 383 103 382 q 115 389 114 383 q 110 392 113 393 q 106 390 108 392 q 100 387 103 389 q 93 386 97 385 q 94 397 96 393 q 93 408 92 400 q 75 417 86 415 q 51 417 64 418 q 26 417 39 417 q 3 422 13 418 q 8 452 -3 440 q 38 464 19 464 q 52 483 44 475 q 74 492 60 490 q 61 474 71 481 q 42 463 51 468 q 26 450 33 457 q 19 432 18 443 q 38 444 31 436 q 58 450 44 453 q 53 442 60 442 q 46 436 47 443 q 76 434 61 431 q 99 444 92 438 q 92 456 96 451 q 83 464 88 460 q 70 459 74 464 q 58 453 67 454 q 78 475 64 468 q 99 497 92 482 q 88 493 93 494 q 76 492 83 492 q 86 502 79 500 q 101 506 93 504 q 105 520 99 517 q 115 531 111 524 q 112 536 115 535 q 110 544 108 538 q 118 545 117 543 q 119 550 119 547 q 119 554 119 553 q 124 551 119 556 q 126 572 115 564 q 122 574 125 575 q 119 576 119 574 q 123 588 118 586 q 135 590 128 590 q 121 604 122 594 q 126 608 121 608 q 132 610 131 607 q 128 625 122 617 q 138 640 135 633 q 129 649 140 651 q 141 673 140 663 q 151 699 142 683 q 145 700 149 700 q 138 699 142 700 q 133 695 135 697 q 135 692 132 693 q 128 696 128 688 q 132 710 128 704 q 103 705 117 707 q 74 707 89 703 q 104 753 92 729 q 143 786 117 778 q 163 813 146 801 q 193 836 179 825 q 202 863 190 856 q 231 872 214 869 l 231 910 q 219 894 222 903 q 208 872 215 885 q 201 874 201 869 q 201 882 201 878 q 213 911 206 896 q 226 943 219 926 q 238 941 235 944 q 242 932 242 938 q 243 920 243 926 q 244 910 243 914 q 258 917 254 911 q 272 921 261 922 q 283 904 279 910 q 289 885 286 899 q 361 910 324 900 q 440 935 399 921 q 513 959 476 946 q 589 971 549 972 q 642 963 614 969 q 704 960 669 956 q 676 926 694 939 q 635 903 657 914 q 593 883 614 893 q 557 857 572 874 q 521 825 542 838 q 476 803 500 813 q 491 819 482 813 q 510 831 500 825 q 527 845 519 838 q 539 864 535 853 m 211 324 q 207 319 211 319 q 201 315 203 319 q 211 311 213 318 q 206 301 210 304 q 210 299 208 300 q 214 297 211 297 q 219 312 222 303 q 211 324 215 321 m 647 935 q 663 935 656 935 q 671 943 669 936 q 658 941 665 940 q 647 935 650 942 m 410 900 q 433 904 421 903 q 451 913 444 906 q 427 910 436 914 q 410 900 418 906 m 339 875 q 360 880 350 878 q 376 890 371 882 q 356 884 369 885 q 339 875 343 883 m 154 786 q 173 792 167 786 q 188 806 179 797 q 167 799 176 803 q 154 786 157 796 m 300 783 q 317 787 308 786 q 331 794 326 788 q 313 792 324 792 q 300 783 303 792 m 126 767 q 140 778 140 765 l 132 778 q 131 771 135 771 q 126 767 126 771 m 132 747 q 92 713 99 743 q 149 724 133 707 q 165 769 165 742 q 143 765 150 772 q 132 747 136 758 m 193 600 q 199 602 193 603 q 203 607 204 601 q 197 610 196 604 q 193 615 199 617 q 192 605 196 610 q 193 600 189 600 m 247 567 q 250 578 250 572 q 257 585 250 585 q 252 595 250 590 q 251 604 254 600 q 247 585 249 597 q 247 567 244 572 m 196 590 q 191 588 196 588 q 185 585 186 588 q 184 572 183 578 q 181 564 185 567 q 188 567 186 564 q 192 575 190 571 q 195 582 193 579 q 203 585 197 585 q 199 590 197 583 q 196 597 200 596 l 196 590 m 493 549 q 505 554 500 551 q 515 561 510 557 q 499 564 511 564 q 498 555 501 557 q 493 549 494 553 m 308 531 q 338 536 324 533 q 364 547 353 539 q 333 541 350 542 q 308 531 317 540 m 146 401 q 147 374 147 386 q 146 351 146 363 q 153 351 151 349 q 160 354 154 354 q 160 375 161 369 q 157 394 160 381 q 160 398 160 396 q 163 401 160 400 q 167 399 163 399 q 174 399 171 399 q 174 406 172 404 q 175 411 176 407 q 156 408 164 408 q 146 401 149 408 m 140 315 q 142 306 149 314 q 132 293 135 297 q 140 294 139 292 q 146 297 140 297 q 143 282 147 289 q 153 276 150 279 q 154 264 157 272 q 169 292 167 271 q 163 328 172 313 q 153 319 160 321 q 140 315 146 318 m 99 226 q 106 229 104 228 q 113 226 108 231 q 110 236 115 236 q 99 236 106 236 l 99 226 m 319 189 q 452 211 382 204 q 588 233 522 218 q 446 221 514 233 q 319 189 378 208 m 132 190 q 144 198 139 194 q 149 211 149 201 q 135 218 146 219 q 131 204 135 211 q 132 190 128 197 m 554 172 q 570 179 564 174 q 585 189 576 185 q 554 172 558 190 m 206 172 q 225 174 217 169 q 231 183 233 179 q 219 176 228 176 q 206 172 211 176 m 482 167 q 506 169 494 168 q 524 181 518 171 q 500 176 510 179 q 482 167 490 172 m 175 132 q 239 147 207 139 q 300 167 271 156 q 231 155 264 163 q 175 132 199 147 m 478 111 q 536 122 508 107 q 585 153 564 136 q 528 135 551 149 q 478 111 506 122 m 451 150 q 410 131 432 139 q 366 117 389 124 q 322 102 343 110 q 282 83 300 94 q 378 105 333 90 q 457 144 422 119 q 451 150 457 151 m 353 128 q 364 129 357 133 q 371 136 371 125 q 354 136 364 138 q 353 128 344 135 m 331 133 q 296 119 315 124 q 256 113 276 115 q 217 105 236 110 q 185 89 197 100 q 267 103 224 90 q 346 132 310 117 q 339 132 340 129 q 331 133 338 135 m 65 104 q 96 125 83 108 q 78 117 86 122 q 65 104 71 111 m 46 68 q 63 69 57 67 q 74 74 68 71 q 65 86 76 88 q 56 77 63 79 q 46 68 50 75 m 231 78 q 249 78 238 75 q 267 86 261 81 q 231 78 247 83 m 407 86 q 399 85 400 86 q 392 86 397 83 q 399 79 389 79 q 407 86 410 79 m 328 68 q 348 69 338 69 q 361 76 358 68 q 328 68 344 79 z "},"Ё":{"ha":692,"x_min":-3,"x_max":704,"o":"m 539 864 q 524 859 536 860 q 515 847 513 858 q 494 841 506 843 q 476 831 482 839 q 471 836 471 829 q 383 789 429 810 q 285 753 338 768 q 299 747 286 743 q 322 753 313 750 q 349 761 336 757 q 368 772 363 765 q 411 784 394 774 q 451 797 428 794 q 370 760 415 774 q 282 732 325 747 q 281 683 285 710 q 269 635 278 656 q 278 632 271 632 q 270 602 274 619 q 269 572 267 585 q 263 566 264 571 q 254 564 261 561 q 323 575 286 567 q 397 588 360 583 q 470 588 435 592 q 536 564 506 585 q 504 535 525 544 q 460 519 483 526 q 461 525 457 525 q 465 531 465 525 q 450 521 454 528 q 435 511 446 514 q 455 498 446 504 q 471 483 464 492 q 447 492 456 483 q 424 503 439 500 q 399 499 411 504 q 376 487 388 493 q 352 475 364 481 q 328 472 340 469 q 290 452 313 458 q 247 435 267 446 q 244 416 250 421 q 242 399 239 411 q 233 401 239 401 q 238 397 236 399 q 242 392 239 394 q 237 385 242 386 q 229 382 232 383 q 234 372 231 375 q 233 361 238 369 q 227 364 229 363 q 221 361 225 365 q 228 353 221 351 q 239 351 236 354 q 235 345 238 347 q 233 338 233 343 q 225 342 228 340 q 214 340 222 344 q 217 327 211 329 q 231 328 224 325 q 230 317 232 321 q 224 308 228 313 q 220 301 221 304 q 226 293 219 297 q 218 290 225 289 q 208 288 211 292 q 224 282 210 282 q 224 254 217 268 q 215 263 219 260 q 214 274 210 267 q 209 273 213 275 q 202 269 206 271 q 195 267 199 267 q 190 274 192 267 q 194 263 183 267 q 211 257 204 258 q 201 249 206 249 q 190 242 197 249 q 207 237 197 238 q 214 221 217 236 q 207 219 210 221 q 199 218 204 217 q 199 204 204 213 q 193 186 194 196 q 249 196 221 188 q 305 213 276 204 q 364 230 333 222 q 426 239 394 238 q 479 243 451 239 q 536 251 507 247 q 594 255 565 254 q 650 251 622 256 q 656 243 650 244 q 644 228 653 232 q 625 221 635 225 q 631 215 628 218 q 639 211 633 213 q 594 169 626 181 q 604 163 596 163 q 617 161 613 164 q 592 137 608 144 q 560 122 576 129 q 571 118 564 118 q 585 117 578 118 q 597 115 592 117 q 603 104 601 113 q 577 92 589 101 q 551 86 565 82 q 579 101 560 94 q 536 104 560 107 q 488 97 513 101 q 440 85 464 92 q 399 78 417 79 q 398 76 394 78 q 396 71 401 74 q 308 51 354 64 q 218 28 261 39 q 185 31 197 33 q 163 19 172 28 q 147 1 154 11 q 132 -18 140 -10 q 117 -3 121 -11 q 104 18 113 4 q 89 18 96 19 q 76 16 82 17 q 65 15 71 15 q 56 21 60 15 q 62 30 54 29 q 74 35 69 31 q 72 42 74 39 q 71 53 69 46 q 50 56 60 53 q 33 61 40 58 q 37 78 31 74 q 49 89 43 83 q 51 110 42 103 q 74 126 61 118 q 94 143 86 133 q 92 169 101 153 q 99 178 94 175 q 110 178 103 182 q 101 183 107 181 q 92 190 96 186 q 87 201 88 194 q 93 217 86 207 q 86 232 85 221 q 89 249 88 243 q 98 248 96 251 q 104 249 100 244 q 97 255 104 256 q 83 254 90 254 q 90 266 90 260 q 99 276 89 272 q 91 285 93 279 q 96 293 89 290 q 92 294 94 297 q 89 299 89 292 q 91 308 89 308 q 99 310 93 307 q 95 317 96 313 q 89 318 94 321 q 92 329 92 321 q 86 338 92 338 q 99 349 88 343 q 90 351 92 349 q 90 359 89 354 q 94 369 92 364 q 96 382 96 375 q 108 383 103 382 q 115 389 114 383 q 110 392 113 393 q 106 390 108 392 q 100 387 103 389 q 93 386 97 385 q 94 397 96 393 q 93 408 92 400 q 75 417 86 415 q 51 417 64 418 q 26 417 39 417 q 3 422 13 418 q 8 452 -3 440 q 38 464 19 464 q 52 483 44 475 q 74 492 60 490 q 61 474 71 481 q 42 463 51 468 q 26 450 33 457 q 19 432 18 443 q 38 444 31 436 q 58 450 44 453 q 53 442 60 442 q 46 436 47 443 q 76 434 61 431 q 99 444 92 438 q 92 456 96 451 q 83 464 88 460 q 70 459 74 464 q 58 453 67 454 q 78 475 64 468 q 99 497 92 482 q 88 493 93 494 q 76 492 83 492 q 86 502 79 500 q 101 506 93 504 q 105 520 99 517 q 115 531 111 524 q 112 536 115 535 q 110 544 108 538 q 118 545 117 543 q 119 550 119 547 q 119 554 119 553 q 124 551 119 556 q 126 572 115 564 q 122 574 125 575 q 119 576 119 574 q 123 588 118 586 q 135 590 128 590 q 121 604 122 594 q 126 608 121 608 q 132 610 131 607 q 128 625 122 617 q 138 640 135 633 q 129 649 140 651 q 141 673 140 663 q 151 699 142 683 q 145 700 149 700 q 138 699 142 700 q 133 695 135 697 q 135 692 132 693 q 128 696 128 688 q 132 710 128 704 q 103 705 117 707 q 74 707 89 703 q 104 753 92 729 q 143 786 117 778 q 163 813 146 801 q 193 836 179 825 q 202 863 190 856 q 231 872 214 869 l 231 910 q 219 894 222 903 q 208 872 215 885 q 201 874 201 869 q 201 882 201 878 q 213 911 206 896 q 226 943 219 926 q 238 941 235 944 q 242 932 242 938 q 243 920 243 926 q 244 910 243 914 q 258 917 254 911 q 272 921 261 922 q 283 904 279 910 q 289 885 286 899 q 361 910 324 900 q 440 935 399 921 q 513 959 476 946 q 589 971 549 972 q 642 963 614 969 q 704 960 669 956 q 676 926 694 939 q 635 903 657 914 q 593 883 614 893 q 557 857 572 874 q 521 825 542 838 q 476 803 500 813 q 491 819 482 813 q 510 831 500 825 q 527 845 519 838 q 539 864 535 853 m 211 324 q 207 319 211 319 q 201 315 203 319 q 211 311 213 318 q 206 301 210 304 q 210 299 208 300 q 214 297 211 297 q 219 312 222 303 q 211 324 215 321 m 647 935 q 663 935 656 935 q 671 943 669 936 q 658 941 665 940 q 647 935 650 942 m 410 900 q 433 904 421 903 q 451 913 444 906 q 427 910 436 914 q 410 900 418 906 m 339 875 q 360 880 350 878 q 376 890 371 882 q 356 884 369 885 q 339 875 343 883 m 154 786 q 173 792 167 786 q 188 806 179 797 q 167 799 176 803 q 154 786 157 796 m 300 783 q 317 787 308 786 q 331 794 326 788 q 313 792 324 792 q 300 783 303 792 m 126 767 q 140 778 140 765 l 132 778 q 131 771 135 771 q 126 767 126 771 m 132 747 q 92 713 99 743 q 149 724 133 707 q 165 769 165 742 q 143 765 150 772 q 132 747 136 758 m 193 600 q 199 602 193 603 q 203 607 204 601 q 197 610 196 604 q 193 615 199 617 q 192 605 196 610 q 193 600 189 600 m 247 567 q 250 578 250 572 q 257 585 250 585 q 252 595 250 590 q 251 604 254 600 q 247 585 249 597 q 247 567 244 572 m 196 590 q 191 588 196 588 q 185 585 186 588 q 184 572 183 578 q 181 564 185 567 q 188 567 186 564 q 192 575 190 571 q 195 582 193 579 q 203 585 197 585 q 199 590 197 583 q 196 597 200 596 l 196 590 m 493 549 q 505 554 500 551 q 515 561 510 557 q 499 564 511 564 q 498 555 501 557 q 493 549 494 553 m 308 531 q 338 536 324 533 q 364 547 353 539 q 333 541 350 542 q 308 531 317 540 m 146 401 q 147 374 147 386 q 146 351 146 363 q 153 351 151 349 q 160 354 154 354 q 160 375 161 369 q 157 394 160 381 q 160 398 160 396 q 163 401 160 400 q 167 399 163 399 q 174 399 171 399 q 174 406 172 404 q 175 411 176 407 q 156 408 164 408 q 146 401 149 408 m 140 315 q 142 306 149 314 q 132 293 135 297 q 140 294 139 292 q 146 297 140 297 q 143 282 147 289 q 153 276 150 279 q 154 264 157 272 q 169 292 167 271 q 163 328 172 313 q 153 319 160 321 q 140 315 146 318 m 99 226 q 106 229 104 228 q 113 226 108 231 q 110 236 115 236 q 99 236 106 236 l 99 226 m 319 189 q 452 211 382 204 q 588 233 522 218 q 446 221 514 233 q 319 189 378 208 m 132 190 q 144 198 139 194 q 149 211 149 201 q 135 218 146 219 q 131 204 135 211 q 132 190 128 197 m 554 172 q 570 179 564 174 q 585 189 576 185 q 554 172 558 190 m 206 172 q 225 174 217 169 q 231 183 233 179 q 219 176 228 176 q 206 172 211 176 m 482 167 q 506 169 494 168 q 524 181 518 171 q 500 176 510 179 q 482 167 490 172 m 175 132 q 239 147 207 139 q 300 167 271 156 q 231 155 264 163 q 175 132 199 147 m 478 111 q 536 122 508 107 q 585 153 564 136 q 528 135 551 149 q 478 111 506 122 m 451 150 q 410 131 432 139 q 366 117 389 124 q 322 102 343 110 q 282 83 300 94 q 378 105 333 90 q 457 144 422 119 q 451 150 457 151 m 353 128 q 364 129 357 133 q 371 136 371 125 q 354 136 364 138 q 353 128 344 135 m 331 133 q 296 119 315 124 q 256 113 276 115 q 217 105 236 110 q 185 89 197 100 q 267 103 224 90 q 346 132 310 117 q 339 132 340 129 q 331 133 338 135 m 65 104 q 96 125 83 108 q 78 117 86 122 q 65 104 71 111 m 46 68 q 63 69 57 67 q 74 74 68 71 q 65 86 76 88 q 56 77 63 79 q 46 68 50 75 m 231 78 q 249 78 238 75 q 267 86 261 81 q 231 78 247 83 m 407 86 q 399 85 400 86 q 392 86 397 83 q 399 79 389 79 q 407 86 410 79 m 328 68 q 348 69 338 69 q 361 76 358 68 q 328 68 344 79 m 313 1142 q 310 1134 314 1135 q 310 1126 307 1133 q 292 1129 294 1124 q 302 1136 299 1132 q 313 1142 306 1140 m 325 1139 q 328 1137 328 1139 q 328 1132 329 1135 q 328 1127 328 1129 q 332 1126 329 1125 q 326 1124 331 1124 q 319 1124 322 1124 q 319 1133 317 1131 q 325 1139 322 1136 m 547 1124 q 545 1113 549 1117 q 547 1104 542 1110 q 553 1112 551 1107 q 563 1114 554 1117 q 563 1090 569 1097 q 557 1071 557 1083 q 528 1074 538 1064 q 517 1097 518 1083 q 524 1119 517 1110 q 547 1124 532 1129 m 304 1092 q 292 1058 294 1079 q 283 1065 283 1058 q 276 1074 282 1071 q 280 1081 275 1076 q 279 1086 285 1085 q 290 1092 286 1090 q 304 1092 293 1094 m 421 1094 q 410 1108 413 1099 q 399 1119 407 1117 q 395 1108 396 1115 q 381 1104 394 1100 q 381 1094 379 1097 q 383 1086 383 1092 q 374 1089 379 1089 q 365 1094 368 1089 q 358 1085 356 1090 q 358 1068 360 1079 q 363 1073 363 1069 q 371 1074 364 1076 q 376 1056 374 1065 q 390 1046 379 1047 q 360 1036 382 1038 q 325 1040 339 1035 q 315 1025 322 1029 q 297 1020 307 1021 q 274 1021 286 1019 q 251 1024 263 1022 q 245 1064 244 1051 q 249 1101 246 1076 q 265 1127 260 1113 q 282 1157 271 1142 q 317 1171 299 1168 q 355 1169 336 1174 q 390 1157 374 1165 q 418 1139 407 1149 q 423 1116 419 1128 q 421 1094 426 1104 m 292 1129 q 310 1126 294 1124 q 310 1134 307 1133 q 313 1142 314 1135 q 302 1136 306 1140 q 292 1129 299 1132 m 319 1124 q 326 1124 322 1124 q 332 1126 331 1124 q 328 1127 329 1125 q 328 1132 328 1129 q 328 1137 329 1135 q 325 1139 328 1139 q 319 1133 322 1136 q 319 1124 317 1131 m 279 1086 q 280 1081 285 1085 q 276 1074 275 1076 q 283 1065 282 1071 q 292 1058 283 1058 q 304 1092 294 1079 q 290 1092 293 1094 q 279 1086 286 1090 m 649 1185 q 649 1173 649 1181 q 648 1157 649 1165 q 645 1142 647 1149 q 639 1135 643 1136 q 633 1127 636 1135 q 626 1110 629 1119 q 617 1092 622 1101 q 608 1076 613 1082 q 588 1061 599 1065 q 565 1046 578 1057 q 531 1052 546 1051 q 501 1053 515 1053 q 475 1054 488 1053 q 451 1064 463 1056 q 477 1139 450 1115 q 547 1169 504 1163 q 585 1190 567 1181 q 636 1197 604 1200 q 649 1185 640 1189 m 501 1071 q 508 1090 501 1083 q 507 1114 514 1097 q 497 1112 499 1117 q 492 1104 496 1107 q 490 1113 486 1110 q 492 1124 493 1117 q 469 1119 476 1129 q 462 1097 461 1110 q 472 1074 463 1083 q 501 1071 482 1064 z "},"Ж":{"ha":1314,"x_min":-6,"x_max":1276,"o":"m 1225 964 q 1226 957 1225 960 q 1225 949 1226 954 q 1251 952 1242 947 q 1276 953 1261 957 q 1260 927 1272 936 q 1242 907 1249 918 q 1197 829 1222 864 q 1140 763 1171 794 q 1078 703 1110 732 q 1018 643 1047 674 q 1075 623 1040 624 q 1144 617 1110 622 q 1131 601 1140 607 q 1111 592 1122 596 q 1089 585 1100 589 q 1069 576 1078 582 q 1088 575 1074 574 q 1104 565 1101 576 q 1071 566 1085 569 q 1038 565 1057 563 q 1012 552 1026 557 q 981 544 997 547 q 947 538 964 542 q 917 525 931 533 q 908 367 892 444 q 958 226 924 289 q 965 225 961 222 q 971 224 968 228 q 971 215 971 219 q 974 208 971 210 q 988 195 981 199 q 997 181 994 192 q 1040 162 1018 171 q 1082 139 1063 153 q 1085 131 1085 136 q 1089 124 1086 126 q 1103 123 1096 122 q 1117 119 1111 124 q 1110 111 1115 113 q 1097 107 1104 110 q 1105 99 1096 99 q 1114 89 1114 99 q 1088 78 1110 78 q 1054 81 1067 79 q 1063 67 1056 74 q 1076 51 1069 60 q 1089 34 1083 43 q 1093 14 1094 25 q 1068 26 1081 14 q 1061 46 1056 38 q 1039 64 1053 56 q 1025 86 1025 72 q 975 99 1000 90 q 1003 67 985 78 q 1035 40 1022 57 q 1022 32 1029 31 q 1007 38 1015 33 q 990 45 999 42 q 975 43 982 49 q 960 74 964 54 q 943 101 957 93 q 913 134 931 119 q 878 163 894 149 q 847 195 861 178 q 828 239 833 213 q 818 250 822 247 q 813 381 807 315 q 835 510 819 447 q 743 495 783 503 q 656 481 703 488 q 622 261 644 368 q 564 50 599 154 q 553 35 556 44 q 547 15 550 25 q 540 -5 544 4 q 526 -18 536 -14 q 511 103 513 40 q 513 227 510 165 q 522 347 517 289 q 531 458 528 406 q 477 458 503 463 q 424 454 451 453 q 405 388 415 419 q 379 329 394 357 q 355 249 367 290 q 319 176 343 207 q 288 147 306 157 q 254 125 269 136 q 231 105 240 114 q 210 92 222 96 q 194 90 203 89 q 178 86 185 90 q 163 72 169 82 q 147 51 156 61 q 129 33 139 40 q 107 28 119 25 q 90 38 96 29 q 83 60 85 47 q 51 53 65 57 q 18 50 38 49 q 23 62 17 60 q 32 71 29 64 q 13 76 22 71 q -1 87 4 81 q -3 99 -6 93 q 14 107 0 104 q 50 160 28 138 q 97 202 72 182 q 146 242 122 222 q 188 290 169 263 q 252 356 221 321 q 294 443 283 390 q 269 448 283 447 q 241 449 256 449 q 213 450 226 449 q 190 458 200 451 q 202 483 194 476 q 229 494 210 490 q 224 503 228 501 q 214 507 219 504 q 242 533 224 525 q 276 550 260 540 q 227 668 253 613 q 167 772 201 724 q 124 823 149 800 q 83 875 99 846 q 49 861 65 868 q 24 839 32 854 q 28 836 25 836 q 35 836 32 836 q 40 835 38 836 q 42 832 43 835 q 26 831 36 831 q 11 836 15 832 q 36 871 17 860 q 78 889 56 882 q 72 906 75 896 q 74 928 69 917 q 108 930 90 933 q 143 921 125 926 q 151 926 150 921 q 156 933 151 931 q 232 905 196 915 q 294 871 268 894 q 316 842 308 856 q 335 810 324 828 q 353 777 344 794 q 368 739 363 760 q 374 736 375 743 q 374 722 372 729 q 377 717 374 719 q 383 711 381 715 q 383 705 385 708 q 383 699 381 701 q 401 648 389 676 q 419 588 413 619 q 484 594 449 590 q 556 608 519 599 q 551 612 554 611 q 550 618 547 613 q 558 649 553 631 q 569 688 564 668 q 576 729 574 708 q 576 768 579 750 q 569 801 574 781 q 574 838 564 822 q 586 817 586 833 q 589 789 586 800 q 597 815 594 800 q 610 838 600 829 q 627 840 619 836 q 642 849 635 844 q 658 856 650 853 q 676 858 667 860 q 683 866 683 858 q 692 872 683 874 q 688 852 689 864 q 676 838 688 840 q 681 833 678 835 q 683 826 683 832 q 678 767 681 793 q 672 717 675 740 q 667 669 669 693 q 665 617 665 644 q 718 622 694 619 q 765 628 742 625 q 815 635 789 632 q 876 643 842 639 q 919 719 899 681 q 965 794 940 758 q 1022 858 990 829 q 1097 904 1054 886 q 1121 931 1107 917 q 1151 956 1135 946 q 1185 970 1167 967 q 1225 964 1204 974 m 1132 924 q 1161 933 1149 925 q 1188 944 1174 942 q 1202 945 1193 947 q 1211 954 1211 943 q 1166 951 1188 963 q 1132 924 1144 939 m 1190 893 q 1212 901 1200 893 q 1225 921 1224 908 q 1203 911 1210 919 q 1190 893 1196 903 m 107 896 q 117 898 114 894 q 114 904 121 901 q 108 901 113 901 q 107 896 104 900 m 226 853 q 233 851 229 856 q 240 853 238 847 q 205 883 225 868 q 157 896 185 897 q 173 884 163 888 q 194 877 183 881 q 213 868 204 874 q 226 853 222 863 m 1131 881 q 1054 804 1092 844 q 992 714 1017 764 q 1076 800 1033 758 q 1158 888 1118 842 q 1160 890 1160 888 q 1158 893 1160 892 q 1148 882 1154 886 q 1131 881 1142 878 m 1163 861 q 1176 871 1168 868 q 1186 885 1185 874 q 1169 878 1178 889 q 1163 861 1160 867 m 1092 781 q 1067 749 1083 764 q 1040 721 1051 735 q 1033 710 1036 715 q 1025 699 1029 704 q 1012 685 1019 692 q 998 671 1004 678 q 990 656 992 664 q 992 640 988 649 q 1040 685 1017 657 q 1092 738 1064 713 q 1160 805 1124 769 q 1210 881 1196 840 q 1151 829 1179 854 q 1092 781 1122 804 m 108 856 q 119 853 117 856 q 113 867 119 864 q 101 875 107 871 q 106 865 104 869 q 108 856 107 861 m 271 728 q 215 804 240 765 q 153 875 189 843 q 210 799 181 836 q 271 728 239 763 m 1061 836 q 1085 851 1072 839 q 1097 871 1099 864 q 1078 854 1086 864 q 1061 836 1069 844 m 343 649 q 297 778 339 729 q 193 861 256 828 q 269 756 228 804 q 343 649 311 707 m 257 683 q 135 858 214 786 q 192 767 158 807 q 257 683 226 726 m 319 779 q 295 824 306 801 q 260 856 285 846 q 286 815 272 836 q 319 779 300 793 m 975 746 q 974 739 978 740 q 974 732 971 738 q 939 663 950 706 q 929 651 935 660 q 931 643 924 643 q 959 695 947 661 q 988 754 971 729 q 990 756 990 754 q 986 756 989 757 q 975 746 986 749 m 936 714 q 944 721 942 714 q 944 729 947 728 q 940 722 943 724 q 936 714 936 721 m 901 643 q 919 675 907 661 q 931 707 932 689 q 913 676 924 693 q 901 643 903 658 m 317 561 q 328 562 325 558 q 340 565 332 565 q 313 640 331 604 q 271 693 294 676 q 299 631 289 667 q 317 561 310 594 m 271 661 q 265 671 268 665 q 260 682 263 676 q 271 661 260 665 m 614 608 q 622 621 619 611 q 624 642 624 631 q 624 663 625 653 q 622 678 624 674 q 618 660 622 669 q 610 641 614 650 q 606 624 607 632 q 614 608 606 615 m 281 638 q 277 649 278 642 q 271 658 276 656 q 274 647 274 653 q 281 638 275 640 m 268 618 q 260 643 265 635 q 263 630 260 635 q 268 618 265 625 m 1092 601 q 1101 600 1094 599 q 1108 606 1108 601 q 1097 607 1100 606 q 1092 601 1094 608 m 957 575 q 1006 582 986 572 q 1040 604 1025 592 q 995 595 1018 604 q 957 575 972 586 m 375 576 q 383 581 383 576 q 378 588 382 586 q 375 576 372 582 m 661 567 l 661 553 q 739 560 703 554 q 817 569 775 565 q 830 569 822 569 q 844 570 838 569 q 854 574 850 571 q 858 586 858 578 q 755 578 806 582 q 661 567 704 574 m 592 544 q 610 544 599 542 q 618 557 621 547 q 612 558 615 560 q 601 561 608 557 q 597 551 601 554 q 592 544 592 549 m 461 535 q 440 533 451 532 q 428 522 429 533 q 437 522 432 519 q 449 522 442 525 q 447 519 449 519 q 446 515 446 518 q 485 527 461 526 q 532 532 508 528 q 538 541 535 535 q 535 550 542 547 q 501 542 522 546 q 461 535 481 539 m 317 536 l 317 528 q 331 532 324 531 q 343 540 339 533 q 331 542 339 546 q 317 536 324 538 m 660 525 q 692 531 676 528 q 719 542 707 535 q 699 541 710 540 q 680 541 689 542 q 665 537 671 540 q 660 525 660 533 m 238 511 q 264 511 251 511 q 286 515 276 511 q 276 536 288 532 q 255 525 269 528 q 238 511 240 522 m 592 515 q 606 515 596 514 q 617 522 617 517 q 613 529 617 528 q 603 530 608 531 q 594 525 597 529 q 592 515 590 521 m 458 501 q 476 503 465 503 q 497 503 486 503 q 518 506 508 504 q 532 514 528 508 q 497 513 517 518 q 458 501 476 508 m 401 510 q 406 502 400 503 q 417 501 411 501 q 410 514 417 515 q 401 510 410 507 m 835 449 q 838 465 835 457 q 846 482 842 474 q 852 499 850 490 q 850 514 854 507 q 838 479 844 494 q 835 449 832 464 m 368 492 q 370 500 372 496 q 364 507 368 504 q 361 497 361 504 q 368 492 361 489 m 250 471 q 273 466 258 468 q 297 467 288 464 l 297 481 q 285 487 293 485 q 269 488 278 489 q 256 483 261 486 q 250 471 250 479 m 564 260 l 553 260 q 555 231 557 244 q 560 204 553 217 q 569 221 567 211 q 574 242 571 231 q 583 240 579 240 q 588 246 588 239 q 583 253 590 253 q 579 260 576 253 q 601 363 594 308 q 614 474 607 417 l 592 474 q 586 423 588 450 q 582 367 585 396 q 576 312 579 339 q 564 260 572 285 m 557 292 q 572 378 567 335 q 579 469 576 422 q 574 471 576 472 q 558 385 564 436 q 557 292 551 335 m 392 382 q 402 415 397 399 q 410 451 407 432 l 401 451 q 393 417 396 438 q 392 382 390 397 m 347 411 q 359 427 354 417 q 361 446 364 438 q 353 431 356 440 q 347 411 350 421 m 326 386 q 331 400 326 393 q 332 413 336 407 q 324 399 329 408 q 326 386 319 389 m 353 371 q 331 338 344 353 q 313 307 318 322 q 308 269 308 288 q 304 235 308 250 q 294 215 301 224 q 294 196 288 207 q 346 293 326 236 q 368 413 365 350 q 360 394 361 404 q 353 371 358 383 m 867 269 q 861 322 865 294 q 847 371 857 350 q 845 311 840 343 q 867 269 850 279 m 265 350 q 274 359 267 356 q 274 367 281 363 q 267 359 272 364 q 265 350 261 354 m 47 151 q 49 144 51 147 q 43 138 46 140 q 39 132 40 135 q 42 128 38 129 q 118 185 78 158 q 197 242 158 213 q 231 292 213 269 q 264 343 249 315 q 260 347 264 349 q 161 241 213 292 q 47 151 110 190 m 892 281 q 885 313 889 292 q 872 346 881 333 q 878 306 875 326 q 892 281 882 285 m 825 261 q 835 248 832 257 q 840 230 838 239 q 846 213 842 221 q 861 204 850 206 q 840 265 846 232 q 821 325 835 299 q 824 292 819 306 q 825 261 828 279 m 261 265 q 275 286 264 275 q 278 304 286 297 q 265 285 274 297 q 261 265 256 272 m 253 189 q 240 180 244 186 q 233 167 236 174 q 212 144 226 158 q 199 124 197 131 q 243 145 225 129 q 272 183 261 161 q 290 233 283 206 q 297 288 296 260 q 275 240 283 267 q 253 189 267 213 m 943 208 q 927 239 935 224 q 908 265 919 254 q 918 228 913 246 q 943 208 924 211 m 207 208 q 219 219 213 213 q 230 234 225 226 q 237 249 235 242 q 238 261 239 257 q 220 234 233 246 q 207 208 207 222 m 606 249 q 609 253 607 251 q 611 260 611 256 l 604 260 q 603 253 604 257 q 606 249 603 249 m 214 164 q 244 200 233 178 q 265 246 254 222 q 233 211 242 235 q 214 164 225 188 m 531 171 q 540 198 542 182 q 532 229 538 214 q 533 213 533 219 q 532 201 533 207 q 530 188 531 194 q 531 171 529 181 m 283 158 q 312 188 299 169 q 328 224 325 207 q 306 191 318 206 q 283 158 294 176 m 874 189 q 875 194 876 190 q 867 196 874 199 q 874 189 864 188 m 126 115 q 149 118 135 119 q 175 118 163 117 q 211 192 199 150 q 213 193 214 192 q 210 193 213 194 q 187 175 200 183 q 161 158 174 167 q 139 138 149 149 q 126 115 129 128 m 978 149 q 965 177 972 165 q 939 192 957 189 q 954 167 946 179 q 978 149 963 156 m 47 119 q 105 144 83 125 q 149 185 126 164 q 143 189 147 190 q 95 154 121 169 q 47 119 69 139 m 567 164 q 569 174 564 171 q 571 183 574 176 q 560 175 564 185 q 567 164 557 165 m 1006 136 q 1016 132 1013 138 q 1025 132 1019 126 q 1022 138 1022 132 q 1013 141 1014 136 q 1006 144 1013 146 l 1006 136 m 539 75 q 538 91 539 81 q 537 111 538 101 q 534 129 536 121 q 531 142 532 138 q 531 122 532 133 q 531 101 531 111 q 532 84 531 92 q 539 75 533 76 m 93 113 q 111 125 108 113 q 100 122 103 126 q 93 113 97 117 m 1006 106 q 987 114 999 110 q 968 115 975 118 q 985 106 976 113 q 1006 106 994 99 m 194 103 q 204 107 200 106 q 211 111 208 108 q 203 111 208 114 q 194 103 197 108 m 108 101 q 137 95 119 93 q 160 107 154 97 q 133 106 149 104 q 108 101 118 108 m 101 67 q 102 50 103 56 q 107 38 101 44 q 137 57 124 43 q 153 83 150 71 q 129 73 142 76 q 101 67 117 69 m 42 61 q 65 65 54 64 q 82 72 75 65 q 56 72 68 72 q 42 61 43 72 m 1006 47 q 998 57 1006 54 q 986 56 990 60 q 1006 47 992 53 z "},"З":{"ha":718,"x_min":0,"x_max":690,"o":"m 244 529 q 255 540 247 536 q 265 551 263 544 q 249 547 258 549 q 232 547 240 546 q 217 551 224 547 q 210 563 211 554 q 215 585 208 572 q 229 606 222 599 q 266 642 244 624 q 307 678 288 660 q 362 742 339 707 q 400 804 385 776 q 372 824 389 822 q 338 821 356 826 q 303 806 321 815 q 276 788 286 796 q 273 790 274 786 q 269 793 272 793 q 224 760 246 776 q 181 726 203 744 q 183 738 179 733 q 193 747 188 743 q 249 788 217 768 q 314 822 282 807 q 289 819 301 825 q 265 806 276 814 q 241 792 253 799 q 215 783 229 785 q 211 790 211 782 q 208 788 208 790 q 203 786 207 785 q 203 780 197 782 q 206 775 210 778 q 191 767 199 769 q 181 756 183 764 q 184 756 181 750 q 188 754 188 761 q 180 744 186 746 q 171 736 174 743 q 170 740 165 739 q 172 747 175 742 q 154 726 161 739 q 138 703 147 714 q 156 713 153 706 q 172 726 160 721 q 163 710 175 715 q 147 696 151 704 q 156 695 151 690 q 168 699 161 700 q 156 688 165 692 q 136 686 147 683 q 119 673 129 676 q 93 667 110 669 q 93 706 88 689 q 109 738 99 724 q 131 762 119 751 q 151 783 143 772 q 149 790 151 789 q 147 797 147 792 q 210 862 172 832 q 279 913 247 892 q 310 931 292 921 q 348 948 328 942 q 389 954 368 954 q 431 944 410 954 q 453 916 446 932 q 467 882 460 900 q 478 855 472 868 q 483 825 483 842 q 476 776 485 799 q 456 733 468 754 q 430 694 443 713 q 408 657 417 675 q 442 660 424 657 q 482 656 461 663 q 497 645 490 651 q 514 636 504 639 q 582 610 546 625 q 639 572 618 596 q 659 540 650 557 q 676 506 668 524 q 674 390 690 444 q 631 301 657 336 q 585 246 606 275 q 532 199 564 217 q 484 163 506 183 q 442 120 463 142 q 402 76 422 99 q 358 36 382 54 q 299 6 331 21 q 226 -1 267 -8 q 215 3 221 1 q 206 6 210 6 q 165 9 183 8 q 129 21 146 10 q 99 49 110 32 q 71 82 89 65 q 58 113 65 99 q 43 142 51 128 q 28 216 38 175 q 0 283 19 257 q 14 306 0 300 q 36 274 29 296 q 52 290 47 281 q 54 319 57 300 q 59 323 58 319 q 65 325 60 326 q 71 324 71 328 q 74 319 71 319 q 91 336 78 338 q 110 319 104 335 q 124 317 118 319 q 136 319 129 315 q 147 314 138 314 q 199 231 169 272 q 272 176 228 190 q 311 177 286 172 q 350 190 336 182 q 379 215 363 199 q 411 251 396 232 q 441 292 426 271 q 464 333 456 314 q 483 388 476 360 q 496 440 489 417 q 499 440 499 440 q 503 439 500 439 q 501 449 500 446 q 503 460 501 451 q 489 486 496 471 q 471 513 482 501 q 457 522 465 518 q 443 532 449 526 q 436 542 438 538 q 432 549 435 546 q 420 553 429 551 q 408 558 411 556 q 392 569 401 563 q 375 581 383 576 q 358 588 367 586 q 343 582 350 589 q 320 556 332 571 q 296 529 308 540 q 288 524 293 525 q 281 521 282 524 q 269 507 272 514 q 260 497 267 500 q 239 481 249 494 q 214 467 229 468 q 215 476 211 472 q 222 483 218 481 q 229 490 226 486 q 231 497 232 493 q 244 504 238 496 q 244 529 251 513 m 307 901 q 349 918 324 908 q 396 931 374 928 q 344 928 372 938 q 307 901 317 919 m 396 914 q 346 907 372 917 q 311 882 319 897 q 370 895 338 889 q 432 893 403 901 q 422 912 435 910 q 396 914 410 914 m 264 874 q 286 885 275 879 q 304 903 297 892 q 281 891 290 899 q 264 874 271 883 m 246 857 q 260 868 256 860 q 250 865 254 867 q 246 857 246 864 m 265 829 q 215 788 231 815 q 267 818 243 801 q 319 846 292 835 q 332 847 325 847 q 342 856 339 846 q 298 851 318 858 q 265 829 278 843 m 449 828 q 450 847 451 839 q 436 856 449 854 q 442 842 439 849 q 449 828 446 835 m 194 829 q 203 838 196 835 q 206 846 210 842 q 197 838 203 842 q 194 829 192 833 m 351 840 q 360 842 356 843 q 367 843 365 840 q 358 846 364 846 q 351 840 351 846 m 388 843 q 377 847 381 847 q 374 844 374 846 q 377 841 374 842 q 388 843 381 840 m 461 772 q 469 797 464 783 q 471 821 474 810 q 463 797 467 811 q 461 772 460 782 m 168 804 q 177 810 171 807 q 178 818 183 813 q 171 810 178 813 q 168 804 164 807 m 418 794 q 422 806 419 799 q 418 813 425 813 q 416 803 418 807 q 418 794 414 800 m 201 797 q 210 801 208 797 q 214 808 211 806 q 201 797 204 808 m 175 776 q 186 784 183 778 q 196 793 189 790 q 184 786 189 790 q 175 776 179 782 m 324 679 q 267 626 297 653 q 222 563 238 599 q 278 606 254 581 q 325 660 303 632 q 372 715 349 686 q 408 782 396 744 l 401 782 q 367 727 388 751 q 324 679 346 703 m 144 738 q 152 743 149 740 q 158 751 156 746 q 147 747 151 753 q 144 738 143 740 m 110 685 q 120 688 119 682 q 128 692 121 693 q 117 706 129 703 q 114 697 118 697 q 110 685 110 696 m 296 606 q 299 604 296 603 q 306 609 301 606 q 316 616 311 613 q 324 622 321 619 q 360 650 346 633 q 385 690 374 667 q 342 647 361 671 q 296 606 322 622 m 404 639 q 435 641 418 642 q 464 647 453 640 q 430 647 446 647 q 404 639 414 647 m 511 615 q 497 625 507 621 q 479 625 488 629 q 497 618 489 625 q 511 615 504 611 m 526 606 q 572 557 550 582 q 600 492 593 532 q 599 418 606 456 q 579 351 592 381 q 566 332 574 340 q 553 313 558 324 q 540 278 544 296 q 529 243 536 260 q 511 215 522 228 q 499 188 500 203 q 557 236 525 208 q 615 299 589 264 q 658 378 642 335 q 668 471 674 421 q 622 565 661 529 q 532 615 583 601 l 526 615 l 526 606 m 451 600 q 431 611 443 607 q 408 611 419 615 q 431 603 418 608 q 451 600 443 597 m 471 594 q 485 575 481 588 q 501 556 490 563 q 490 586 499 571 q 471 594 482 601 m 461 549 q 424 581 446 565 q 375 594 403 597 q 420 571 399 586 q 461 549 442 556 m 304 565 q 323 575 317 567 q 338 590 329 583 q 319 578 328 583 q 304 565 311 574 m 533 540 q 531 560 532 551 q 518 575 529 569 q 524 556 521 564 q 533 540 528 547 m 492 544 q 478 560 485 551 q 461 572 472 568 q 476 554 468 564 q 492 544 485 544 m 560 501 q 556 503 557 501 q 553 503 556 504 q 565 469 565 489 q 563 428 565 450 q 557 382 560 406 q 560 338 554 358 q 580 394 572 361 q 588 460 588 426 q 577 522 588 493 q 544 565 567 550 q 553 534 544 546 q 560 501 561 522 m 525 521 q 520 538 522 528 q 511 544 518 547 q 517 533 517 542 q 525 521 518 524 m 551 436 q 555 463 553 447 q 549 486 557 479 q 548 460 550 471 q 551 436 546 449 m 490 301 q 505 328 497 314 q 517 360 513 343 q 523 394 522 376 q 517 428 524 411 q 504 363 514 397 q 490 301 494 329 m 372 194 q 449 257 418 215 q 486 358 481 299 q 438 267 467 307 q 372 194 408 226 m 82 289 q 92 289 89 294 q 101 285 94 283 q 105 292 103 289 q 108 301 107 296 q 99 314 103 308 q 88 324 94 319 q 85 306 83 314 q 82 289 88 297 m 65 299 l 74 299 q 72 306 72 303 q 65 307 71 310 l 65 299 m 129 301 q 147 273 138 286 q 171 250 157 260 q 156 281 164 267 q 136 307 147 294 q 129 301 132 303 m 163 211 q 176 206 169 211 q 188 197 182 201 q 201 190 194 193 q 211 190 207 188 q 161 233 181 206 q 119 285 142 260 q 119 260 115 269 q 131 242 124 250 q 148 226 139 233 q 163 211 157 219 m 71 211 q 69 247 68 226 q 67 283 71 268 q 51 269 54 279 q 51 247 49 258 q 58 226 53 236 q 71 211 64 217 m 32 250 q 30 264 29 261 q 31 275 31 267 q 22 276 24 272 q 15 279 21 279 q 32 250 17 258 m 488 215 q 471 185 486 199 q 458 163 456 172 q 492 205 478 181 q 518 254 506 229 q 514 260 518 260 q 504 234 510 246 q 488 215 499 222 m 94 176 q 91 199 90 188 q 92 219 92 210 q 90 238 92 229 q 79 254 88 247 q 79 208 79 229 q 94 176 79 188 m 153 179 q 149 184 150 182 q 143 186 147 186 q 168 151 150 163 q 201 124 186 139 q 224 126 213 125 q 242 135 235 128 q 204 147 222 142 q 172 169 186 153 q 160 174 164 168 q 163 186 156 181 q 191 165 174 175 q 228 148 208 154 q 269 143 249 142 q 307 158 290 144 q 195 178 239 156 q 117 236 151 201 q 125 219 118 226 q 139 206 132 213 q 151 194 146 200 q 153 179 156 188 m 106 197 q 108 213 107 204 q 100 225 108 222 q 98 209 97 218 q 106 197 99 200 m 58 197 q 57 210 61 203 q 47 221 53 217 q 51 206 47 211 q 58 197 54 201 m 388 140 l 406 140 q 434 176 418 160 q 461 214 450 192 q 419 182 433 204 q 388 140 406 160 m 122 175 q 119 170 121 172 q 117 165 117 168 q 140 132 124 146 q 179 121 157 118 q 147 156 161 138 q 117 194 132 175 q 117 183 114 186 q 122 175 121 181 m 58 140 q 74 92 67 117 q 103 61 82 68 q 78 131 90 93 q 43 193 67 168 q 48 163 42 174 q 58 140 54 151 m 338 133 q 374 144 363 129 q 390 171 386 160 q 363 153 375 164 q 338 133 350 143 m 88 133 q 106 113 103 128 q 121 90 110 99 q 113 129 121 108 q 86 158 106 150 q 88 145 85 150 q 88 133 90 140 m 292 135 q 319 137 307 129 q 342 156 332 144 q 314 148 325 154 q 292 135 303 142 m 226 11 q 299 18 267 7 q 357 49 331 29 q 404 94 383 69 q 444 144 425 119 q 345 68 396 106 q 226 11 294 31 m 221 113 q 260 106 242 104 q 294 124 279 108 q 253 128 275 131 q 221 113 232 125 m 288 89 q 268 89 278 88 q 249 89 258 90 q 219 90 229 88 q 193 96 208 92 q 156 108 174 103 q 125 124 139 113 q 131 101 125 108 q 136 79 138 94 q 150 63 144 72 q 162 46 156 54 q 176 32 168 38 q 196 25 183 26 q 213 25 203 24 q 231 29 224 26 q 274 47 251 35 q 317 72 296 58 q 356 99 338 85 q 388 125 374 114 q 339 104 360 118 q 288 89 318 90 m 294 103 q 322 109 308 106 q 343 124 336 113 q 316 119 329 124 q 294 103 303 114 m 101 99 q 101 90 99 101 q 108 79 103 79 q 108 89 114 86 q 101 99 103 92 m 110 67 q 133 37 119 49 q 168 21 147 25 q 142 50 157 38 q 114 78 126 63 q 111 74 114 75 q 110 67 108 72 z "},"И":{"ha":758,"x_min":50,"x_max":699,"o":"m 186 285 q 190 283 189 282 q 192 286 190 285 q 206 308 197 294 q 225 334 215 321 q 244 361 235 347 q 257 386 253 375 q 278 408 269 390 q 290 435 288 425 q 311 456 304 439 q 333 478 318 472 q 370 538 346 510 q 410 601 394 565 q 445 644 432 621 q 474 699 458 668 q 515 750 500 722 q 553 794 529 778 q 552 799 554 797 q 553 804 550 801 q 568 810 564 806 q 575 831 572 815 q 587 834 581 835 q 596 840 593 833 q 595 853 599 850 q 596 868 592 857 q 628 872 611 876 q 628 892 622 879 q 639 914 633 904 q 659 892 654 906 q 665 863 664 878 q 667 833 667 849 q 675 807 668 818 q 670 773 669 789 q 674 742 671 757 q 683 713 678 728 q 693 682 689 697 q 692 650 689 669 q 697 618 694 631 q 695 612 697 613 q 692 606 693 611 q 695 535 699 571 q 694 454 692 499 q 688 447 689 454 q 688 431 688 440 q 688 413 689 421 q 678 404 686 406 q 683 399 683 403 q 686 393 683 396 q 673 312 678 356 q 661 233 668 268 q 644 162 654 197 q 635 82 633 126 q 622 65 624 75 q 618 46 621 56 q 624 42 621 44 q 612 1 615 22 q 593 -31 608 -19 q 588 -27 589 -31 q 581 -26 586 -24 q 576 -6 576 -17 q 573 13 575 4 q 566 30 571 22 q 550 43 561 38 q 532 122 536 83 q 533 207 528 160 q 530 262 531 233 q 536 313 529 290 q 538 372 535 340 q 544 436 540 404 q 551 498 549 468 q 553 551 554 528 q 503 482 525 521 q 450 421 482 443 q 438 392 447 403 q 419 375 428 382 q 425 372 422 372 q 425 365 428 371 q 419 369 422 363 q 411 371 417 376 q 412 365 408 365 q 414 360 415 364 q 404 357 407 364 q 408 352 406 357 q 404 349 410 347 q 400 351 404 356 q 400 342 396 346 q 393 341 397 339 q 386 336 389 343 q 392 331 393 333 q 392 324 390 329 q 378 303 381 315 q 361 283 376 290 q 358 295 354 289 q 354 306 361 301 q 340 290 351 299 q 332 274 329 281 q 287 232 306 257 q 240 192 268 207 q 240 200 238 197 q 245 206 242 203 q 251 211 249 208 q 250 219 254 214 q 231 201 246 208 q 206 174 215 193 q 215 172 210 172 q 160 117 192 139 q 103 63 128 94 q 94 34 99 50 q 75 14 90 18 q 70 51 67 29 q 68 89 74 72 q 58 89 63 89 q 50 96 53 89 q 58 108 57 103 q 65 119 58 114 q 60 167 63 144 q 56 212 57 189 q 55 259 54 235 q 63 311 56 283 q 58 319 57 313 q 60 335 58 326 q 61 351 61 343 q 57 364 61 360 q 65 377 64 367 q 65 399 65 388 q 67 421 65 410 q 78 438 68 432 q 72 442 75 440 q 71 450 68 444 q 77 498 78 475 q 78 543 76 521 q 94 654 85 597 q 106 771 103 711 q 111 772 111 768 q 114 778 111 775 q 118 828 111 800 q 133 883 125 856 q 142 885 136 886 q 151 886 149 883 q 155 911 154 894 q 159 942 156 928 q 170 965 163 957 q 194 963 178 972 q 199 925 194 943 q 209 890 204 907 q 218 853 214 872 q 219 811 222 833 q 222 803 225 811 q 225 796 218 796 q 224 769 222 783 q 226 739 225 754 q 228 710 228 724 q 224 685 229 696 q 226 657 226 674 q 225 622 226 640 q 224 605 225 615 q 224 584 224 594 q 224 565 224 574 q 222 556 224 557 q 219 553 221 553 q 217 556 218 554 q 215 558 215 557 q 214 554 214 558 q 217 551 214 551 q 219 544 219 550 q 215 497 221 525 q 208 454 208 469 q 201 367 206 414 q 186 285 196 321 m 657 799 q 653 843 654 818 q 642 889 653 868 q 647 790 622 829 q 653 794 656 789 q 657 799 650 799 m 139 811 q 146 831 146 822 q 144 851 146 839 q 131 830 135 844 q 126 798 128 815 q 121 763 124 781 q 111 733 118 746 q 111 690 114 713 q 104 644 108 668 q 97 597 100 621 q 97 550 94 574 q 108 601 107 581 q 118 642 108 622 q 119 669 113 654 q 126 701 126 683 q 135 758 129 729 q 139 811 140 786 m 553 614 q 560 624 557 617 q 557 633 563 631 q 550 626 551 633 q 546 613 549 619 q 551 615 549 611 q 553 614 554 619 m 538 579 q 545 588 544 583 q 546 604 546 593 q 540 604 546 604 q 535 592 542 599 q 538 579 529 586 m 625 526 q 628 552 625 538 q 626 579 632 567 q 623 570 625 578 q 620 554 621 563 q 620 538 619 546 q 625 526 621 529 m 521 560 q 507 535 514 550 q 489 517 500 521 q 490 506 485 508 q 484 503 486 507 q 480 494 482 500 q 475 484 478 489 q 468 479 472 479 q 465 467 469 472 q 455 454 460 461 q 447 440 450 447 q 447 424 443 432 q 463 449 453 436 q 483 476 472 463 q 502 504 493 489 q 515 536 511 519 q 520 538 517 540 q 526 539 524 536 q 519 547 526 544 q 528 551 525 554 q 535 544 531 547 q 533 563 531 554 q 526 582 536 572 q 527 566 529 576 q 521 560 525 556 m 619 393 q 628 433 629 408 q 624 476 626 457 q 627 473 626 472 q 626 476 628 474 q 622 483 625 479 q 617 486 619 486 q 616 474 615 479 q 619 461 617 469 q 615 460 617 458 q 610 461 613 461 q 613 426 610 442 q 619 393 617 410 m 108 319 q 123 358 117 335 q 133 406 129 381 q 140 457 138 432 q 142 501 142 482 q 122 415 128 465 q 108 319 115 365 m 393 410 q 398 413 396 411 q 403 419 400 414 q 399 417 399 421 q 394 415 396 414 q 393 418 393 417 q 391 415 388 418 q 393 410 394 413 m 615 349 q 619 360 621 353 q 615 371 618 367 q 609 358 610 368 q 615 349 608 349 m 318 322 q 355 364 338 342 q 389 411 372 386 q 360 381 371 401 q 331 354 350 361 q 318 331 326 342 q 299 311 310 321 q 280 291 289 301 q 265 267 271 281 q 295 296 281 282 q 318 322 310 310 m 600 281 q 600 309 603 296 q 594 333 597 322 q 592 305 590 322 q 600 281 593 288 m 560 57 q 550 169 551 115 q 547 282 549 224 q 542 164 540 222 q 560 57 543 106 m 606 208 q 610 224 603 219 q 614 242 617 228 q 605 239 607 244 q 596 235 603 233 q 594 222 593 228 q 594 210 596 217 q 606 208 601 210 m 597 178 q 601 185 601 178 q 600 194 600 192 q 595 187 596 193 q 597 178 594 181 m 247 256 q 247 249 250 246 q 238 250 244 253 q 243 247 238 247 q 251 246 249 247 q 253 252 251 249 q 247 256 254 256 m 256 218 q 262 220 261 215 q 267 224 263 225 q 258 227 264 231 q 256 218 253 224 m 99 193 q 108 199 107 190 q 108 214 108 207 q 101 206 103 213 q 99 193 100 200 m 581 94 q 589 101 588 94 q 579 107 590 107 q 581 94 582 100 m 593 -6 q 598 2 596 -4 q 603 16 600 8 q 609 31 606 24 q 618 40 613 38 q 614 42 619 44 q 611 47 608 40 q 605 35 610 42 q 595 23 600 29 q 589 10 590 17 q 593 -6 588 3 m 82 51 q 94 68 97 54 q 88 90 90 82 q 85 92 86 92 q 81 93 83 92 q 83 71 83 82 q 82 51 82 60 z "},"Й":{"ha":774,"x_min":50,"x_max":699,"o":"m 186 285 q 201 367 196 321 q 208 454 206 414 q 215 497 208 469 q 219 544 221 525 q 217 551 219 550 q 214 554 214 551 q 215 558 214 558 q 217 556 215 557 q 219 553 218 554 q 222 556 221 553 q 224 565 224 557 q 224 584 224 574 q 224 605 224 594 q 225 622 225 615 q 226 657 226 640 q 224 685 226 674 q 228 710 229 696 q 226 739 228 724 q 224 769 225 754 q 225 796 222 783 q 222 803 218 796 q 219 811 225 811 q 218 853 222 833 q 209 890 214 872 q 199 925 204 907 q 194 963 194 943 q 170 965 178 972 q 159 942 163 957 q 155 911 156 928 q 151 886 154 894 q 142 885 149 883 q 133 883 136 886 q 118 828 125 856 q 114 778 111 800 q 111 772 111 775 q 106 771 111 768 q 94 654 103 711 q 78 543 85 597 q 77 498 76 521 q 71 450 78 475 q 72 442 68 444 q 78 438 75 440 q 67 421 68 432 q 65 399 65 410 q 65 377 65 388 q 57 364 64 367 q 61 351 61 360 q 60 335 61 343 q 58 319 58 326 q 63 311 57 313 q 55 259 56 283 q 56 212 54 235 q 60 167 57 189 q 65 119 63 144 q 58 108 58 114 q 50 96 57 103 q 58 89 53 89 q 68 89 63 89 q 70 51 74 72 q 75 14 67 29 q 94 34 90 18 q 103 63 99 50 q 160 117 128 94 q 215 172 192 139 q 206 174 210 172 q 231 201 215 193 q 250 219 246 208 q 251 211 254 214 q 245 206 249 208 q 240 200 242 203 q 240 192 238 197 q 287 232 268 207 q 332 274 306 257 q 340 290 329 281 q 354 306 351 299 q 358 295 361 301 q 361 283 354 289 q 378 303 376 290 q 392 324 381 315 q 392 331 390 329 q 386 336 393 333 q 393 341 389 343 q 400 342 397 339 q 400 351 396 346 q 404 349 404 356 q 408 352 410 347 q 404 357 406 357 q 414 360 407 364 q 412 365 415 364 q 411 371 408 365 q 419 369 417 376 q 425 365 422 363 q 425 372 428 371 q 419 375 422 372 q 438 392 428 382 q 450 421 447 403 q 503 482 482 443 q 553 551 525 521 q 551 498 554 528 q 544 436 549 468 q 538 372 540 404 q 536 313 535 340 q 530 262 529 290 q 533 207 531 233 q 532 122 528 160 q 550 43 536 83 q 566 30 561 38 q 573 13 571 22 q 576 -6 575 4 q 581 -26 576 -17 q 588 -27 586 -24 q 593 -31 589 -31 q 612 1 608 -19 q 624 42 615 22 q 618 46 621 44 q 622 65 621 56 q 635 82 624 75 q 644 162 633 126 q 661 233 654 197 q 673 312 668 268 q 686 393 678 356 q 683 399 683 396 q 678 404 683 403 q 688 413 686 406 q 688 431 689 421 q 688 447 688 440 q 694 454 689 454 q 695 535 692 499 q 692 606 699 571 q 695 612 693 611 q 697 618 697 613 q 692 650 694 631 q 693 682 689 669 q 683 713 689 697 q 674 742 678 728 q 670 773 671 757 q 675 807 669 789 q 667 833 668 818 q 665 863 667 849 q 659 892 664 878 q 639 914 654 906 q 628 892 633 904 q 628 872 622 879 q 596 868 611 876 q 595 853 592 857 q 596 840 599 850 q 587 834 593 833 q 575 831 581 835 q 568 810 572 815 q 553 804 564 806 q 552 799 550 801 q 553 794 554 797 q 515 750 529 778 q 474 699 500 722 q 445 644 458 668 q 410 601 432 621 q 370 538 394 565 q 333 478 346 510 q 311 456 318 472 q 290 435 304 439 q 278 408 288 425 q 257 386 269 390 q 244 361 253 375 q 225 334 235 347 q 206 308 215 321 q 192 286 197 294 q 190 283 190 285 q 186 285 189 282 m 657 799 q 653 794 650 799 q 647 790 656 789 q 642 889 622 829 q 653 843 653 868 q 657 799 654 818 m 139 811 q 135 758 140 786 q 126 701 129 729 q 119 669 126 683 q 118 642 113 654 q 108 601 108 622 q 97 550 107 581 q 97 597 94 574 q 104 644 100 621 q 111 690 108 668 q 111 733 114 713 q 121 763 118 746 q 126 798 124 781 q 131 830 128 815 q 144 851 135 844 q 146 831 146 839 q 139 811 146 822 m 553 614 q 551 615 554 619 q 546 613 549 611 q 550 626 549 619 q 557 633 551 633 q 560 624 563 631 q 553 614 557 617 m 538 579 q 535 592 529 586 q 540 604 542 599 q 546 604 546 604 q 545 588 546 593 q 538 579 544 583 m 625 526 q 620 538 621 529 q 620 554 619 546 q 623 570 621 563 q 626 579 625 578 q 628 552 632 567 q 625 526 625 538 m 521 560 q 527 566 525 556 q 526 582 529 576 q 533 563 536 572 q 535 544 531 554 q 528 551 531 547 q 519 547 525 554 q 526 539 526 544 q 520 538 524 536 q 515 536 517 540 q 502 504 511 519 q 483 476 493 489 q 463 449 472 463 q 447 424 453 436 q 447 440 443 432 q 455 454 450 447 q 465 467 460 461 q 468 479 469 472 q 475 484 472 479 q 480 494 478 489 q 484 503 482 500 q 490 506 486 507 q 489 517 485 508 q 507 535 500 521 q 521 560 514 550 m 619 393 q 613 426 617 410 q 610 461 610 442 q 615 460 613 461 q 619 461 617 458 q 616 474 617 469 q 617 486 615 479 q 622 483 619 486 q 626 476 625 479 q 627 473 628 474 q 624 476 626 472 q 628 433 626 457 q 619 393 629 408 m 108 319 q 122 415 115 365 q 142 501 128 465 q 140 457 142 482 q 133 406 138 432 q 123 358 129 381 q 108 319 117 335 m 393 410 q 391 415 394 413 q 393 418 388 418 q 394 415 393 417 q 399 417 396 414 q 403 419 399 421 q 398 413 400 414 q 393 410 396 411 m 615 349 q 609 358 608 349 q 615 371 610 368 q 619 360 618 367 q 615 349 621 353 m 318 322 q 295 296 310 310 q 265 267 281 282 q 280 291 271 281 q 299 311 289 301 q 318 331 310 321 q 331 354 326 342 q 360 381 350 361 q 389 411 371 401 q 355 364 372 386 q 318 322 338 342 m 600 281 q 592 305 593 288 q 594 333 590 322 q 600 309 597 322 q 600 281 603 296 m 560 57 q 542 164 543 106 q 547 282 540 222 q 550 169 549 224 q 560 57 551 115 m 606 208 q 594 210 601 210 q 594 222 596 217 q 596 235 593 228 q 605 239 603 233 q 614 242 607 244 q 610 224 617 228 q 606 208 603 219 m 597 178 q 595 187 594 181 q 600 194 596 193 q 601 185 600 192 q 597 178 601 178 m 247 256 q 253 252 254 256 q 251 246 251 249 q 243 247 249 247 q 238 250 238 247 q 247 249 244 253 q 247 256 250 246 m 256 218 q 258 227 253 224 q 267 224 264 231 q 262 220 263 225 q 256 218 261 215 m 99 193 q 101 206 100 200 q 108 214 103 213 q 108 199 108 207 q 99 193 107 190 m 581 94 q 579 107 582 100 q 589 101 590 107 q 581 94 588 94 m 593 -6 q 589 10 588 3 q 595 23 590 17 q 605 35 600 29 q 611 47 610 42 q 614 42 608 40 q 618 40 619 44 q 609 31 613 38 q 603 16 606 24 q 598 2 600 8 q 593 -6 596 -4 m 82 51 q 83 71 82 60 q 81 93 83 82 q 85 92 83 92 q 88 90 86 92 q 94 68 90 82 q 82 51 97 54 m 407 1096 q 431 1077 418 1088 q 454 1064 443 1067 q 442 1063 450 1061 q 426 1070 435 1065 q 413 1082 418 1075 q 407 1096 407 1089 m 417 1024 q 415 1024 415 1026 q 417 1021 414 1021 q 358 1051 383 1028 q 317 1103 333 1075 q 328 1113 326 1107 q 342 1118 331 1119 q 354 1087 343 1097 q 378 1067 365 1076 q 359 1094 367 1079 q 349 1129 351 1108 q 353 1133 351 1131 q 360 1133 356 1135 q 369 1130 367 1133 q 374 1122 371 1126 q 379 1131 376 1126 q 385 1133 382 1135 q 435 1092 411 1114 q 500 1064 460 1071 q 550 1097 524 1082 q 590 1140 576 1113 q 607 1142 601 1138 q 619 1143 613 1146 q 617 1120 622 1128 q 604 1107 611 1113 q 601 1085 601 1096 q 586 1075 600 1074 q 590 1078 588 1078 q 590 1082 592 1079 q 567 1063 578 1074 q 547 1041 557 1051 q 523 1022 536 1031 q 493 1010 510 1014 q 514 1008 504 1006 q 533 1016 524 1011 q 550 1024 542 1021 q 565 1025 558 1028 q 539 1007 553 1017 q 504 996 525 997 q 456 1006 478 994 q 417 1024 435 1018 m 454 1064 q 431 1077 443 1067 q 407 1096 418 1088 q 413 1082 407 1089 q 426 1070 418 1075 q 442 1063 435 1065 q 454 1064 450 1061 z "},"К":{"ha":729,"x_min":74,"x_max":743,"o":"m 256 606 q 260 604 257 601 q 265 603 263 607 q 257 582 257 594 q 258 557 257 569 q 251 556 254 557 q 244 553 247 554 q 249 551 246 547 q 256 553 251 556 q 252 525 249 536 q 246 499 256 514 q 269 521 258 508 q 289 547 279 533 q 310 572 299 560 q 335 593 321 583 q 367 632 347 611 q 413 664 386 653 q 433 696 413 681 q 474 719 454 711 q 469 726 475 724 q 474 728 469 729 q 479 731 478 728 q 481 733 483 732 q 482 738 478 735 q 516 762 500 749 q 546 790 532 775 q 579 810 560 800 q 619 832 599 821 q 661 854 640 843 q 697 875 682 865 q 709 880 701 878 q 724 882 717 882 q 738 878 732 882 q 742 864 743 874 q 715 825 726 847 q 688 783 703 803 q 694 778 689 781 q 663 738 681 756 q 628 700 644 719 q 626 703 625 700 q 624 707 626 707 q 621 703 619 707 q 621 696 622 699 q 610 692 615 699 q 607 679 604 685 q 563 634 581 660 q 519 589 544 608 q 522 583 519 585 q 483 540 500 564 q 442 499 465 515 q 444 472 440 482 q 456 449 449 461 q 452 445 454 446 q 450 442 450 444 q 467 404 464 425 q 483 375 471 383 q 481 371 485 371 q 476 368 476 371 q 485 360 488 367 q 489 342 483 353 q 494 334 492 335 q 499 329 497 333 q 496 325 499 328 q 493 321 494 324 q 504 303 496 310 q 506 282 513 296 q 510 279 507 279 q 517 278 514 279 q 510 272 514 272 q 517 254 518 268 q 544 178 536 218 q 571 97 553 138 q 569 74 568 83 q 574 55 571 64 q 578 36 576 46 q 579 13 581 26 q 572 10 575 11 q 564 7 568 8 q 574 -4 569 0 q 576 -17 578 -8 q 588 -17 583 -15 q 600 -19 593 -19 q 588 -22 594 -22 q 574 -24 581 -22 q 579 -31 576 -29 q 571 -33 582 -32 q 585 -52 581 -43 q 589 -70 589 -61 q 588 -89 589 -79 q 588 -110 586 -99 q 574 -114 579 -112 q 569 -94 569 -106 q 571 -81 568 -83 q 563 -70 565 -78 q 560 -54 561 -62 q 553 -58 558 -58 q 546 -61 549 -58 q 547 -78 547 -74 q 547 -100 546 -83 l 536 -100 q 510 -58 521 -79 q 474 -24 500 -37 q 465 -24 467 -25 q 456 -26 463 -24 q 476 -15 460 -18 q 503 -17 492 -12 q 503 -12 508 -14 q 503 -7 497 -10 q 510 -6 508 -8 q 517 -4 511 -3 q 503 -3 511 -1 q 490 3 496 -4 q 492 -2 486 0 q 496 -10 499 -4 q 479 8 481 -4 q 467 29 478 21 l 476 29 q 464 34 472 31 q 463 44 456 38 q 447 60 454 53 q 446 81 439 67 q 440 82 443 85 q 432 83 436 79 q 413 122 425 103 q 389 161 400 142 q 388 176 393 169 q 372 183 382 183 q 390 138 381 157 q 410 88 399 119 q 401 91 403 88 q 399 99 400 94 q 396 108 397 104 q 389 111 394 111 q 382 138 385 125 q 368 158 379 151 q 367 171 372 165 q 368 183 361 176 q 356 190 365 188 q 353 212 357 203 q 347 229 350 221 q 341 245 343 238 q 343 261 339 253 q 340 263 343 264 q 335 265 336 263 q 335 297 336 279 q 331 331 333 314 q 328 364 329 349 q 329 392 326 379 q 325 394 325 392 q 268 346 296 371 q 206 301 240 321 q 206 288 211 294 q 194 281 201 282 q 204 275 194 275 q 192 254 201 260 q 197 251 192 251 q 178 201 182 228 q 158 154 174 174 q 153 109 164 131 q 132 57 142 88 q 124 56 125 58 q 115 54 122 53 q 108 39 110 46 q 104 19 107 32 q 97 17 97 19 q 81 42 85 28 q 74 71 78 57 q 81 69 81 72 q 83 60 82 65 q 88 71 88 64 q 87 85 88 78 q 88 97 86 92 q 97 104 89 103 q 81 111 93 111 q 81 139 83 122 q 88 167 78 156 q 85 168 88 168 q 83 171 83 168 q 83 205 83 190 q 81 232 83 219 q 84 262 90 246 q 81 294 78 278 q 84 303 83 303 q 83 314 85 303 q 85 320 82 317 q 88 325 88 324 q 85 330 88 326 q 81 336 82 333 q 82 341 81 339 q 90 344 83 343 q 85 347 89 347 q 81 349 82 346 q 83 367 85 357 q 92 382 81 378 q 81 386 92 389 q 89 443 83 413 q 92 500 94 474 q 97 502 94 500 q 101 503 99 504 q 96 515 94 507 q 104 526 97 524 q 99 531 103 531 q 97 536 94 531 q 104 546 104 542 q 101 556 104 550 q 106 566 106 560 q 106 578 106 572 q 108 589 106 583 q 118 599 110 594 q 112 602 111 599 q 115 611 113 606 q 119 623 117 617 q 118 633 121 629 q 126 636 121 636 q 135 636 131 636 q 132 642 138 640 q 125 640 126 644 q 122 651 121 647 q 128 658 124 656 q 137 664 132 661 q 144 669 142 667 q 138 671 142 675 q 131 669 135 667 l 131 686 q 149 693 144 686 q 143 694 146 699 q 135 693 140 690 q 138 705 140 700 q 147 713 136 710 q 146 723 147 719 q 147 733 144 726 q 159 733 154 732 q 168 738 164 735 q 165 747 165 743 l 151 747 q 154 755 149 753 q 154 760 160 757 q 160 765 156 764 q 168 767 164 765 q 160 771 161 771 q 164 781 158 771 q 157 780 160 785 q 147 778 154 775 q 165 793 147 793 q 169 800 168 796 q 172 807 169 804 q 170 808 172 810 q 165 807 168 806 q 165 802 163 804 q 164 794 167 800 q 157 800 157 797 q 159 806 157 803 q 163 815 161 810 q 164 826 165 819 q 170 832 168 828 q 175 840 172 836 q 183 848 178 844 q 197 850 188 851 q 190 853 197 853 q 182 850 182 853 q 210 898 189 874 q 272 928 232 922 q 284 906 282 918 q 286 882 286 894 q 285 857 286 869 q 289 833 285 844 q 283 817 283 826 q 282 797 282 807 q 281 776 282 786 q 272 760 279 767 q 274 742 279 750 q 278 724 269 735 q 271 721 275 717 q 272 707 274 714 q 268 696 271 700 q 272 692 272 696 q 269 683 271 688 q 268 674 268 678 q 272 669 268 669 q 265 640 265 654 q 263 610 265 625 q 260 607 263 607 q 256 606 257 607 m 199 847 q 215 856 207 849 q 211 867 222 863 q 205 856 208 860 q 199 847 201 853 m 674 821 q 685 828 686 821 q 678 826 679 829 q 674 821 676 824 m 194 643 q 202 656 200 647 q 197 667 204 664 q 194 643 197 649 m 432 589 q 447 597 442 592 q 456 608 451 603 q 466 619 460 614 q 483 624 472 624 q 479 628 483 629 q 472 633 475 628 q 449 613 457 624 q 432 589 440 601 m 194 610 q 201 613 200 604 q 196 614 197 611 q 189 614 194 617 q 188 597 190 601 q 188 583 185 593 q 181 579 181 583 q 183 576 183 579 q 181 571 182 574 q 178 565 179 568 q 182 557 178 561 q 175 548 175 556 q 171 536 175 540 q 174 536 171 533 q 178 532 176 539 q 170 522 172 529 q 172 513 168 515 q 166 506 167 511 q 161 499 165 501 q 166 491 165 497 q 165 477 167 485 q 159 463 163 469 q 154 453 156 456 q 161 451 161 453 q 156 415 161 432 q 157 372 151 397 q 158 376 158 374 q 157 381 157 379 q 158 385 157 383 q 164 386 158 386 q 167 416 167 406 q 178 436 167 426 q 171 442 171 436 q 176 458 175 446 q 175 482 176 471 q 178 483 178 482 q 182 482 179 485 q 189 547 185 517 q 194 610 193 578 m 415 567 q 428 574 425 564 q 429 586 432 583 q 422 578 425 582 q 415 567 418 574 m 332 489 q 341 503 338 496 q 358 510 344 511 q 373 538 361 529 q 389 563 385 546 q 353 530 371 549 q 332 489 335 511 m 118 482 q 119 477 118 479 q 121 472 121 475 q 128 485 128 472 q 118 482 124 485 m 97 442 q 106 443 100 444 q 111 449 113 442 q 101 451 108 453 q 97 442 94 449 m 244 379 q 269 391 261 381 q 289 408 278 401 q 267 394 278 401 q 244 379 256 388 m 433 382 q 433 394 433 389 q 426 399 433 399 q 433 382 428 390 m 211 338 q 229 344 228 335 q 219 346 226 347 q 211 338 211 344 m 389 322 q 392 317 397 322 q 389 308 388 313 q 396 306 393 308 q 398 322 397 313 q 392 335 399 332 q 390 328 393 329 q 389 322 388 326 m 358 258 l 368 258 q 366 265 367 261 q 363 271 365 268 q 362 263 365 264 q 358 258 358 261 m 415 221 q 415 227 413 226 q 417 232 418 228 q 408 240 411 232 q 419 254 413 249 q 406 251 411 256 q 401 239 401 246 q 405 226 401 232 q 415 221 408 219 m 369 235 q 385 240 381 235 q 377 242 382 242 q 369 244 372 242 q 373 247 369 247 q 376 249 376 246 q 372 250 374 249 q 368 251 371 251 q 367 242 368 247 q 369 235 367 238 m 446 171 q 454 164 451 169 q 459 153 457 158 q 464 142 461 147 q 474 138 467 138 q 458 177 465 157 q 443 214 450 197 q 438 233 446 228 q 425 244 431 238 q 436 207 428 224 q 446 171 444 190 m 372 188 q 375 199 376 193 q 370 209 374 204 q 364 219 367 214 q 363 231 361 225 l 356 231 q 363 208 360 219 q 372 188 365 197 m 417 197 q 419 203 415 203 q 425 207 424 203 q 419 211 421 207 q 413 214 418 215 q 413 203 413 208 q 417 197 413 197 m 436 147 q 442 149 439 149 q 449 151 446 149 q 442 155 446 154 q 436 158 439 156 q 440 165 440 161 q 436 172 439 168 q 431 181 433 176 q 432 190 429 186 q 428 193 428 190 q 422 194 428 196 q 426 170 419 183 q 436 147 432 157 m 111 147 q 119 161 121 149 q 114 175 117 174 q 111 163 107 168 q 111 147 115 158 m 436 138 q 444 137 442 139 q 447 131 446 135 q 448 126 447 128 q 453 126 449 124 q 451 134 450 129 q 453 143 451 139 q 445 144 447 146 q 439 144 443 142 q 436 138 439 140 m 92 118 q 95 132 94 122 q 88 140 96 142 q 90 127 94 133 q 92 118 86 121 m 514 38 q 513 67 519 50 q 500 94 507 83 q 503 66 497 83 q 514 38 510 49 m 482 86 q 480 79 485 79 q 476 74 475 79 l 486 74 q 485 81 488 79 q 483 88 482 82 q 476 86 476 88 l 482 86 m 85 54 q 91 44 88 47 q 101 43 94 40 q 102 52 100 50 q 107 57 104 54 q 94 57 100 57 q 85 54 88 57 m 524 4 q 515 8 522 7 q 506 4 507 8 q 515 3 511 6 q 524 4 519 1 m 522 -50 q 528 -40 533 -49 q 517 -33 524 -32 q 521 -41 517 -39 q 522 -50 525 -43 z "},"Л":{"ha":907,"x_min":0,"x_max":797,"o":"m 769 758 q 774 758 769 754 q 782 760 778 761 q 783 747 781 753 q 776 739 785 740 q 780 684 782 714 q 772 623 778 654 q 761 562 767 592 q 754 506 756 532 q 727 286 744 400 q 682 75 710 172 q 675 69 676 74 q 669 63 674 65 q 671 46 672 51 q 665 33 669 40 q 656 44 657 35 q 654 63 654 53 q 653 82 654 74 q 643 92 651 90 q 642 104 643 97 q 638 114 642 111 q 633 100 633 108 q 622 93 633 92 q 617 160 619 128 q 621 221 614 192 q 615 241 617 228 q 621 260 614 254 q 615 297 615 278 q 617 332 615 315 q 620 363 619 349 q 618 389 621 378 q 621 406 624 396 q 629 421 618 417 q 625 429 625 425 q 626 438 625 433 q 627 447 626 442 q 625 460 628 453 q 632 463 628 463 q 639 464 636 463 q 633 467 639 468 q 625 468 626 465 q 627 499 628 482 q 639 524 626 517 q 653 630 640 578 q 669 736 667 682 q 675 746 672 746 q 681 806 672 774 q 696 872 690 838 q 665 873 681 876 q 631 867 650 869 q 594 861 611 864 q 564 851 578 858 q 510 853 540 857 q 456 851 481 849 q 453 837 451 844 q 458 821 456 829 q 460 804 460 813 q 456 789 461 796 q 457 785 453 783 q 460 781 461 786 q 450 741 454 765 q 443 699 446 717 q 438 693 444 693 q 417 578 431 639 q 382 471 404 517 q 365 416 379 443 q 339 365 350 389 q 326 328 332 347 q 314 290 321 310 q 300 252 307 271 q 282 213 293 233 q 276 201 279 207 q 269 190 272 196 q 268 183 267 188 q 267 175 269 179 q 253 153 261 164 q 238 132 244 142 l 238 117 q 222 102 231 110 q 214 85 213 94 q 188 60 207 69 q 147 48 168 50 q 108 53 125 46 q 86 79 90 60 q 53 119 67 90 q 31 175 40 147 q 19 203 28 189 q 8 228 11 217 q 3 259 4 243 q 0 290 3 275 q 17 299 14 289 q 28 314 21 308 q 38 315 33 311 q 47 318 43 319 q 58 311 54 317 q 66 299 63 306 q 73 289 69 293 q 82 286 76 285 q 82 278 81 281 q 86 272 83 275 q 110 249 94 263 q 145 228 126 236 q 182 219 164 219 q 214 236 200 219 q 230 269 225 249 q 242 306 235 289 q 255 333 247 319 q 269 364 263 347 q 292 433 282 394 q 313 514 303 472 q 332 597 322 556 q 350 675 342 639 q 356 744 347 706 q 379 808 365 782 q 379 817 381 814 q 376 824 378 821 q 385 828 381 826 q 392 835 389 831 q 397 873 386 857 q 414 904 408 889 q 418 919 417 915 q 428 926 419 922 q 435 925 435 929 q 442 922 436 921 q 497 938 467 932 q 561 947 528 944 q 629 949 594 950 q 696 944 664 949 q 701 942 699 944 q 707 938 704 939 q 731 935 718 935 q 756 935 743 936 q 778 932 768 935 q 797 921 789 929 q 789 910 793 917 q 778 907 785 904 q 782 895 785 899 q 788 889 779 892 q 785 886 788 886 q 782 883 782 886 q 785 825 785 854 q 783 760 786 796 q 775 763 781 763 q 769 758 769 763 m 469 918 q 555 922 514 914 q 636 925 596 929 q 550 934 597 939 q 469 918 503 929 m 460 904 q 472 908 468 901 q 457 913 464 907 q 443 911 450 918 q 454 911 447 910 q 460 904 461 913 m 656 894 q 671 898 674 894 q 656 894 668 901 m 776 851 q 772 877 772 861 q 765 896 772 893 q 766 872 767 889 q 776 851 765 854 m 639 879 q 658 879 646 876 q 674 889 669 882 q 655 885 664 886 q 639 879 646 883 m 582 871 q 611 872 596 871 q 638 879 626 872 q 582 871 607 878 m 453 871 q 451 868 451 868 q 453 865 450 868 q 485 862 467 865 q 513 869 503 858 q 501 871 508 871 q 483 871 493 871 q 465 871 474 871 q 453 871 457 871 m 426 821 q 430 833 428 828 q 431 847 432 839 l 425 847 q 424 832 425 840 q 426 821 422 824 m 771 833 q 778 839 778 831 q 774 847 779 847 q 772 842 774 844 q 771 833 769 839 m 399 701 q 406 738 403 718 q 410 778 408 758 q 413 816 413 799 q 411 844 413 833 q 403 813 406 831 q 399 775 400 794 q 399 736 399 756 q 399 701 399 717 m 735 785 q 734 792 736 789 q 732 797 732 794 l 739 797 q 737 811 735 801 q 735 824 739 821 q 729 805 731 815 q 735 785 728 794 m 778 799 q 779 806 776 804 q 781 815 782 808 q 776 818 778 815 q 769 819 775 821 q 772 808 772 815 q 778 799 772 801 m 367 732 q 376 758 371 743 q 379 785 382 774 q 370 759 376 774 q 367 732 364 744 m 774 768 q 778 776 775 771 q 774 782 781 782 q 772 775 775 779 q 774 768 768 771 m 724 503 q 730 558 725 528 q 739 619 735 588 q 744 682 743 651 q 740 740 746 713 q 729 628 732 688 q 724 503 726 568 m 350 589 q 369 660 360 625 q 379 735 378 694 q 358 663 364 701 q 350 589 351 625 m 703 668 q 709 671 707 665 q 707 678 711 676 q 704 674 706 675 q 703 668 703 674 m 700 479 q 698 483 703 485 q 693 486 693 482 q 706 576 700 531 q 708 665 711 622 q 701 653 704 663 q 698 619 699 638 q 696 586 697 601 q 692 538 693 563 q 686 486 690 514 q 694 482 690 483 q 700 479 697 481 m 682 633 q 684 650 681 643 q 681 661 688 657 q 678 646 681 656 q 682 633 675 636 m 674 603 q 677 613 675 608 q 672 619 679 617 q 670 610 671 617 q 674 603 669 604 m 656 454 q 648 455 650 453 q 644 453 646 457 q 658 446 658 453 q 656 361 651 401 q 656 282 660 321 q 673 340 668 307 q 678 410 678 374 q 676 483 678 446 q 674 551 674 519 q 664 502 664 524 q 656 454 664 481 m 243 274 q 305 388 286 319 q 331 529 324 456 q 328 531 331 531 q 290 397 311 461 q 243 274 269 333 m 664 236 q 669 256 665 246 q 675 275 672 265 q 678 296 678 285 q 675 318 679 307 q 667 277 675 296 q 664 236 660 258 m 47 251 q 44 274 49 265 q 42 296 39 282 q 36 299 39 299 q 31 301 33 300 q 31 272 22 285 q 47 251 40 260 m 226 235 q 240 242 233 232 q 246 258 247 253 q 237 245 243 250 q 226 235 231 240 m 124 211 q 110 231 119 224 q 92 244 100 238 q 103 224 97 233 q 124 211 108 214 m 701 231 l 708 231 q 709 237 708 233 q 707 239 710 240 q 704 235 706 236 q 701 231 703 233 m 697 192 q 702 205 701 199 q 706 219 703 211 q 697 207 699 217 q 697 192 694 197 m 147 201 q 161 207 156 201 q 149 211 154 208 q 135 215 144 214 q 141 208 138 211 q 147 201 144 204 m 83 164 q 72 190 78 178 q 53 207 65 203 q 65 180 56 193 q 83 164 74 167 m 174 194 q 189 197 182 197 q 200 206 196 196 q 174 194 182 206 m 192 133 q 188 131 189 133 q 181 129 186 128 q 181 116 181 122 q 185 107 181 110 q 212 151 199 129 q 232 201 225 174 q 242 206 240 201 q 206 181 218 203 q 192 133 194 160 m 63 150 q 68 138 64 146 q 78 123 72 129 q 92 114 85 117 q 106 118 99 111 q 95 130 99 121 q 86 142 92 139 q 90 146 90 139 q 88 153 90 153 q 88 146 90 146 q 82 144 85 146 q 80 149 82 147 q 76 154 78 151 q 84 157 78 157 q 86 160 90 157 q 78 159 81 161 q 71 157 75 157 q 57 178 64 168 q 39 196 50 189 q 47 172 40 183 q 63 150 53 161 m 161 171 q 183 154 169 158 q 189 165 186 161 q 192 179 192 169 q 178 176 186 182 q 161 171 169 171 m 131 171 q 140 156 136 164 q 140 138 143 149 q 152 133 142 135 q 164 138 163 131 q 154 143 158 140 q 144 149 150 146 l 160 149 q 147 165 154 157 q 131 171 140 172 m 622 132 q 630 135 629 128 q 625 139 631 142 q 624 135 625 136 q 622 132 622 135 m 661 92 q 668 117 663 103 q 669 136 674 131 q 661 115 664 129 q 661 92 658 101 m 74 111 q 71 117 74 115 q 65 121 68 118 q 74 111 58 111 m 168 99 q 172 117 174 107 q 156 116 164 114 q 146 115 149 118 q 154 103 151 110 q 168 99 157 96 m 71 99 q 76 97 74 97 q 81 94 79 97 q 90 78 83 88 q 108 63 97 69 q 131 54 118 57 q 157 58 143 51 q 138 76 146 67 q 118 93 129 86 q 106 92 111 90 q 95 97 100 94 q 85 103 90 100 q 75 108 81 107 q 72 103 74 106 q 71 99 71 101 m 103 103 q 113 101 108 103 q 117 107 117 99 q 103 103 108 108 m 160 89 q 164 87 163 89 q 171 86 165 85 q 172 90 168 89 q 172 93 176 92 q 165 91 171 90 q 160 89 160 92 z "},"М":{"ha":1013,"x_min":33,"x_max":983,"o":"m 399 247 q 401 256 401 250 q 399 268 400 261 q 392 263 392 269 q 389 253 393 256 q 388 263 386 257 q 379 268 389 268 q 382 274 379 272 q 383 281 385 276 q 376 287 379 281 q 369 302 372 293 q 367 319 367 311 q 372 329 368 326 q 362 335 361 328 q 351 344 363 342 q 349 364 351 357 q 343 377 346 371 q 337 390 340 383 q 333 408 333 397 q 330 413 332 414 q 325 411 328 413 q 313 448 318 435 q 296 479 307 461 q 298 490 303 479 q 286 501 293 500 q 276 546 283 524 q 260 590 268 568 q 244 631 251 611 q 236 671 238 651 q 228 676 235 674 q 219 638 224 661 q 221 594 214 614 q 215 569 211 583 q 211 547 219 554 q 210 498 213 525 q 202 443 207 471 q 193 389 197 415 q 189 344 189 363 q 180 319 182 332 q 176 294 178 307 q 172 269 175 282 q 161 246 169 257 q 150 188 158 215 q 131 136 142 161 q 108 86 119 111 q 86 35 96 61 q 69 35 75 32 q 60 44 64 38 q 55 57 57 50 q 49 68 53 64 q 47 103 51 86 q 40 138 42 121 q 43 142 40 139 q 46 143 44 143 q 42 148 44 146 q 39 153 40 150 q 37 183 33 167 q 40 211 40 200 q 37 219 40 215 q 33 229 33 224 q 35 233 33 232 q 39 239 38 233 q 37 258 40 247 q 33 279 33 269 q 36 328 33 304 q 36 376 39 353 q 38 386 35 382 q 43 397 42 390 q 41 422 44 408 q 49 444 38 435 q 47 452 46 450 q 43 461 47 454 q 54 517 50 492 q 62 567 58 543 q 70 614 65 590 q 86 665 75 638 q 83 667 86 668 q 78 668 81 667 q 94 704 88 683 q 106 747 100 725 q 117 788 111 768 q 136 822 124 807 q 159 885 143 857 q 193 940 175 913 q 206 935 203 939 q 207 925 208 931 q 204 912 206 919 q 204 897 203 904 q 214 901 211 897 q 224 906 217 906 q 222 919 226 917 q 217 928 218 921 q 236 934 224 939 q 246 913 249 929 q 274 888 263 903 q 294 856 286 874 q 310 819 303 838 q 325 785 317 801 q 327 783 325 782 q 331 782 329 783 q 333 767 331 774 q 340 756 336 761 q 347 744 344 750 q 349 732 350 739 q 431 550 397 640 q 499 358 464 460 q 509 369 507 361 q 510 383 511 376 q 556 513 536 446 q 601 636 576 581 q 610 649 604 643 q 613 665 615 654 q 688 801 650 728 q 765 928 725 874 q 775 928 769 928 q 783 931 781 928 q 815 960 789 953 q 823 953 822 960 q 831 944 824 947 q 828 939 833 938 q 825 933 824 940 q 833 930 826 928 q 843 931 839 932 q 865 833 856 885 q 883 726 875 781 q 896 619 890 672 q 908 521 901 567 q 912 503 910 513 q 921 486 914 493 q 913 482 921 482 q 921 470 919 478 q 924 454 922 463 q 927 439 925 446 q 936 429 929 432 q 933 420 932 425 q 935 409 933 415 q 937 398 936 403 q 933 389 938 393 q 936 386 933 386 q 940 386 939 386 q 953 310 949 344 q 963 243 958 275 q 971 179 967 211 q 983 113 975 147 q 978 110 976 115 q 974 108 981 106 q 969 116 968 110 q 964 124 969 122 q 954 91 958 107 q 939 65 950 75 q 931 74 931 63 q 926 53 925 63 q 929 35 926 44 q 933 18 932 26 q 931 0 935 10 q 926 2 929 1 q 922 0 924 3 q 909 53 915 26 q 896 108 903 81 l 883 108 q 867 140 872 124 q 849 174 861 157 q 852 178 851 176 q 856 183 853 181 q 842 199 846 189 q 836 221 839 210 q 829 241 833 232 q 815 253 825 250 q 807 285 811 272 q 804 318 803 299 q 796 321 803 321 q 804 329 793 329 q 796 337 797 331 q 794 351 794 343 q 794 365 794 358 q 786 374 793 371 q 785 405 789 389 q 778 437 782 421 q 771 469 774 453 q 772 501 768 485 q 762 513 765 504 q 765 524 758 521 q 756 540 757 529 q 755 560 754 550 q 755 578 756 571 q 749 586 754 586 q 752 597 754 592 q 751 613 750 603 q 744 608 746 613 q 740 599 742 604 q 738 590 739 594 q 731 586 736 586 q 724 546 732 567 q 707 508 717 525 q 662 372 690 439 q 600 243 633 304 l 600 229 q 578 186 588 210 q 558 140 568 163 q 533 99 547 118 q 499 68 519 81 q 488 88 492 78 q 486 113 483 97 q 463 137 471 119 q 463 178 456 154 q 451 181 460 181 q 439 178 442 181 q 433 187 433 181 q 431 197 433 193 q 425 193 424 200 q 419 186 426 186 q 410 195 413 189 q 407 208 408 201 q 403 222 406 215 q 394 231 400 228 q 399 236 396 235 q 404 240 401 238 q 396 245 401 247 q 389 250 390 243 q 396 253 394 251 q 399 247 397 254 m 304 653 q 303 665 311 660 q 296 676 296 669 q 299 678 299 676 q 301 679 299 679 q 307 672 308 679 q 313 665 306 664 q 312 676 313 669 q 314 685 311 682 q 307 689 308 688 q 294 763 308 725 q 257 829 281 801 q 262 783 257 806 q 281 744 267 760 q 285 722 282 733 q 296 704 289 710 q 295 697 293 701 q 299 689 297 693 q 292 687 296 688 q 289 682 289 686 q 292 681 290 675 q 296 682 294 688 q 290 678 294 678 q 289 671 286 678 q 315 615 300 643 q 333 557 329 586 q 342 553 343 558 q 349 550 342 547 q 331 603 338 575 q 304 653 324 631 m 868 688 q 872 649 869 664 q 883 610 875 633 l 883 592 q 886 599 888 593 q 886 610 885 606 q 877 683 879 646 q 871 765 875 721 q 859 790 861 775 q 856 820 857 804 q 853 851 856 836 q 840 878 850 867 q 842 834 839 857 q 850 788 846 811 q 857 741 854 764 q 858 700 860 718 q 864 694 867 699 q 868 688 861 690 m 210 853 q 217 860 215 850 q 211 868 218 869 q 210 853 211 856 m 688 650 q 683 603 693 624 q 669 557 672 583 q 681 567 681 558 q 683 585 681 576 q 699 622 690 604 q 715 657 708 639 q 726 702 718 682 q 736 750 735 722 q 731 753 735 753 q 709 699 715 729 q 688 650 703 669 m 344 721 q 331 739 343 732 q 335 727 333 733 q 344 721 338 721 m 257 682 q 267 692 264 682 q 263 694 264 692 q 260 694 263 696 q 258 688 261 689 q 257 682 256 686 m 765 660 q 765 673 763 667 q 763 676 767 679 q 760 667 761 672 q 765 660 758 661 m 828 657 q 831 668 826 663 q 825 674 835 674 q 825 665 826 671 q 828 657 824 658 m 269 654 q 271 664 274 658 q 264 671 268 669 q 269 654 264 660 m 342 594 q 399 454 376 528 q 415 433 408 446 q 419 408 421 421 q 426 406 424 408 q 430 399 428 403 q 434 394 432 396 q 439 394 436 392 q 424 431 432 415 q 417 471 417 447 q 410 474 410 468 q 404 482 410 481 q 394 521 401 501 q 377 560 386 540 q 360 599 368 579 q 349 639 351 618 q 339 656 340 644 q 329 671 338 667 q 331 649 328 660 q 336 628 333 638 q 341 610 339 619 q 342 594 343 601 m 369 654 q 365 651 368 651 q 364 647 363 651 q 372 635 375 644 q 381 619 369 626 q 385 594 381 607 q 397 568 390 581 q 408 543 403 556 q 413 517 414 531 q 419 514 418 517 q 427 479 421 497 q 440 442 433 461 q 451 403 446 422 q 457 365 457 383 q 472 339 468 357 q 472 306 476 321 q 478 304 476 303 q 482 300 479 306 q 478 359 483 331 q 465 415 474 388 q 447 472 457 443 q 431 529 438 500 q 419 534 419 528 q 422 547 419 540 q 413 560 414 550 q 404 568 411 571 q 401 594 407 581 q 383 615 394 608 q 378 643 383 626 q 363 671 372 660 q 369 654 358 661 m 815 492 q 822 497 821 492 q 824 508 824 501 q 823 520 824 514 q 825 529 822 526 q 813 599 814 561 q 801 668 813 636 q 803 580 796 624 q 815 492 810 536 m 765 613 q 765 633 764 624 q 768 657 765 642 l 760 657 q 759 632 763 646 q 765 613 756 618 m 201 639 q 211 654 211 639 q 205 653 208 653 q 201 653 201 654 q 204 648 208 650 q 201 639 200 646 m 286 604 q 285 627 289 615 q 276 647 282 639 q 278 624 272 636 q 286 604 285 613 m 828 636 q 828 628 829 633 q 831 624 826 624 q 833 635 831 628 q 833 639 836 643 q 828 636 833 636 m 199 629 q 200 604 201 617 q 210 582 199 592 q 210 593 211 585 q 211 607 208 601 q 206 611 210 610 q 201 617 201 613 q 208 624 207 619 q 211 632 208 629 q 205 631 206 635 q 199 629 204 628 m 146 597 q 147 611 143 603 q 143 617 150 619 q 140 606 140 614 q 146 597 140 597 m 115 324 q 119 326 117 326 q 124 329 122 326 q 145 469 131 403 q 157 597 160 535 q 153 588 154 589 q 157 579 151 586 q 146 552 149 567 q 141 522 143 538 q 135 492 139 506 q 125 468 132 478 q 128 444 132 460 q 118 421 125 429 q 119 397 125 410 q 121 368 114 383 q 114 359 115 365 q 113 346 113 353 q 115 333 114 339 q 115 324 117 326 m 292 585 q 296 581 294 583 q 301 582 297 578 q 297 590 303 589 q 292 585 292 590 m 304 564 l 304 576 l 294 576 q 297 569 296 574 q 304 564 299 565 m 204 544 q 207 564 197 554 q 202 567 204 565 q 196 567 200 568 q 197 559 197 564 q 197 550 197 554 q 199 544 197 546 q 204 544 200 542 m 189 501 q 192 484 193 493 q 188 465 192 475 q 183 446 185 456 q 183 426 181 436 q 192 440 190 428 q 189 454 194 451 q 197 470 196 463 q 199 486 199 478 q 199 503 199 494 q 204 524 200 513 q 199 528 200 524 q 193 529 199 532 q 192 524 190 528 q 194 515 193 519 q 194 506 194 510 q 189 501 193 501 m 557 333 q 592 417 576 374 q 615 507 608 461 q 581 421 597 467 q 557 333 565 375 m 693 492 q 698 498 696 494 q 693 504 700 501 q 689 497 690 501 q 693 492 688 492 m 176 376 q 181 397 178 382 q 178 415 185 411 q 178 403 179 408 q 174 392 176 397 q 172 383 172 388 q 176 376 172 379 m 425 296 q 433 301 432 297 q 431 312 433 306 q 425 324 428 318 q 422 336 422 331 l 413 336 q 420 315 411 322 q 425 296 429 307 m 592 311 q 599 317 596 314 q 607 324 601 319 q 596 322 599 326 q 592 311 593 317 m 128 200 q 133 197 133 199 q 132 192 133 194 q 129 186 131 189 q 131 181 128 183 q 143 202 142 188 q 149 231 144 217 q 164 277 156 254 q 165 315 172 300 q 147 258 150 289 q 128 200 143 228 m 494 258 q 501 270 500 260 q 499 283 501 281 q 497 271 499 276 q 494 258 494 265 m 522 279 q 524 273 521 274 q 525 265 526 272 q 533 271 532 264 q 532 281 535 278 q 522 279 525 281 m 96 236 q 95 250 93 243 q 92 263 97 257 q 90 247 90 256 q 96 236 89 239 m 71 143 q 72 178 69 163 q 63 211 74 193 q 65 170 63 188 q 71 143 68 153 m 539 161 q 545 157 546 163 q 544 147 544 151 q 552 160 546 151 q 563 176 558 168 q 570 193 568 185 q 567 206 572 201 q 552 185 558 196 q 539 161 546 174 m 507 165 q 513 173 508 172 q 519 181 518 174 q 507 197 514 193 q 506 181 504 193 q 507 165 508 169 m 486 176 q 490 188 485 181 q 485 194 494 194 q 483 185 482 192 q 486 176 483 179 m 86 165 q 96 183 92 172 l 86 183 q 83 174 86 179 q 86 165 81 168 m 525 144 q 514 133 521 138 q 510 115 507 129 q 505 113 507 114 q 499 113 503 111 q 500 98 503 106 q 507 88 497 90 q 518 100 511 92 q 530 117 525 108 q 535 133 535 125 q 525 144 535 140 m 99 128 q 89 115 96 118 q 74 110 82 113 q 89 93 78 100 q 97 115 90 101 q 99 128 103 128 m 74 50 q 81 57 81 50 q 86 68 82 64 q 76 71 78 65 q 68 76 75 76 q 70 62 68 67 q 74 50 72 57 m 71 82 q 65 88 67 83 q 63 99 64 93 q 61 108 63 104 q 54 113 60 113 q 65 71 58 92 q 67 77 65 75 q 71 82 69 79 z "},"Н":{"ha":749,"x_min":51,"x_max":757,"o":"m 536 14 q 524 6 526 14 q 513 -3 522 -3 q 500 17 503 4 q 497 42 497 29 q 496 69 496 56 q 492 94 496 83 q 495 102 494 97 q 503 106 496 107 q 489 110 501 113 q 490 119 486 115 q 489 124 494 122 q 499 126 493 126 q 503 132 504 125 q 511 124 514 132 q 504 113 508 117 q 508 72 510 96 q 515 29 506 47 q 527 51 525 38 q 528 78 529 64 q 524 109 526 93 q 521 140 521 125 q 511 140 514 142 q 504 138 508 138 q 504 153 504 146 q 497 163 504 160 q 506 176 504 167 q 507 196 507 185 q 508 218 507 207 q 515 239 510 229 q 510 244 514 243 q 504 251 506 246 q 508 263 511 258 q 504 279 504 268 q 509 285 507 282 q 518 285 511 288 q 512 289 518 293 q 504 290 506 285 q 509 295 504 300 q 521 293 514 290 q 521 326 521 308 q 525 354 521 343 q 524 358 525 357 q 521 357 522 360 q 524 381 526 367 q 533 407 522 396 q 526 427 525 411 q 536 449 526 443 q 527 463 528 449 q 533 479 526 476 q 521 478 524 485 q 516 462 518 472 q 512 442 514 451 q 503 433 510 433 q 501 447 500 440 q 503 463 501 453 q 370 407 440 429 q 221 369 300 385 q 215 366 217 369 q 214 360 214 363 q 213 355 214 357 q 208 353 213 353 q 213 347 210 351 q 208 344 215 343 q 213 340 210 338 q 217 339 215 343 q 212 327 213 335 q 210 312 211 319 q 207 297 208 304 q 200 288 206 290 q 206 283 200 282 q 208 276 211 283 q 201 274 201 279 q 199 269 201 269 q 201 265 199 267 q 203 261 203 264 q 173 133 185 193 q 139 10 161 74 q 114 6 124 10 q 98 27 104 15 q 92 53 92 39 l 101 53 q 105 35 100 42 q 114 24 110 29 q 123 26 122 21 q 126 33 124 31 q 112 49 117 40 q 111 71 107 57 q 106 74 111 74 q 108 75 100 74 q 106 84 108 82 q 101 92 103 86 q 94 90 96 92 q 90 88 93 88 q 91 78 89 81 q 92 71 93 76 q 76 115 81 90 q 71 165 72 139 q 72 169 68 169 q 79 172 76 169 q 72 176 76 175 q 65 182 68 178 q 59 225 64 204 q 60 261 54 246 q 57 267 63 268 q 53 271 51 265 q 56 297 57 285 q 55 319 56 308 q 54 341 54 331 q 60 363 54 351 q 65 354 65 364 q 72 356 71 353 q 76 360 72 360 q 67 365 76 367 q 54 368 57 364 q 57 384 57 379 q 60 399 57 389 q 72 393 67 394 q 79 401 76 392 q 70 406 76 408 q 60 401 64 404 q 60 417 61 407 q 61 439 60 428 q 65 460 63 450 q 76 476 68 471 q 73 446 78 461 q 68 411 68 431 q 77 417 75 413 q 79 426 79 421 q 80 438 79 432 q 85 446 81 443 q 76 451 82 449 q 82 458 82 454 q 81 467 82 463 q 81 474 81 471 q 85 481 81 478 q 76 483 81 486 q 68 483 71 479 q 70 503 64 497 q 71 514 76 510 q 71 518 69 518 q 75 517 72 518 q 81 517 78 517 q 85 519 83 517 q 80 522 83 522 q 76 525 76 521 q 93 536 79 540 q 85 541 92 543 q 79 546 78 539 q 84 555 81 553 q 90 564 88 557 q 82 568 89 568 q 85 576 85 575 q 82 583 85 576 q 88 586 88 582 q 89 595 89 590 q 90 603 89 600 q 96 606 90 607 q 94 613 94 608 q 92 618 94 617 q 104 626 94 628 q 101 632 107 633 q 93 633 96 631 q 107 658 93 654 q 101 670 100 660 q 108 683 101 681 q 110 701 103 689 q 119 721 117 713 q 133 718 125 718 q 160 801 144 764 q 181 878 176 838 q 156 831 167 856 q 144 778 144 806 q 134 767 136 775 q 131 749 132 758 q 126 732 129 739 q 114 724 124 725 q 122 754 115 743 q 126 783 129 765 q 139 788 132 789 q 144 828 136 808 q 163 864 153 849 q 160 865 163 865 q 157 867 158 865 q 178 902 167 885 q 199 942 190 919 l 208 942 q 206 944 208 944 q 200 944 203 943 q 215 957 204 954 q 232 967 225 960 q 232 985 229 978 q 249 992 235 993 q 247 960 251 979 q 236 925 243 940 q 242 923 239 922 q 243 914 244 924 q 253 924 250 917 q 268 929 257 932 q 265 878 271 907 q 265 831 260 850 q 253 822 264 825 q 257 819 253 818 q 260 815 261 819 q 251 755 253 788 q 243 694 250 722 q 245 688 240 688 q 249 683 250 689 q 240 681 240 683 q 244 676 244 681 q 240 668 244 671 l 249 668 q 239 646 242 658 q 235 620 236 633 q 234 592 235 607 q 229 564 233 578 q 307 589 267 579 q 388 607 347 599 q 471 624 429 615 q 551 646 513 632 q 546 649 551 649 q 569 710 558 676 q 586 775 581 744 q 568 746 575 763 q 556 710 561 729 q 546 674 550 692 q 536 643 542 656 q 531 655 532 646 q 533 674 531 664 q 538 692 535 683 q 546 704 542 701 q 554 728 542 721 q 566 771 556 751 q 588 808 576 790 q 610 844 600 825 q 622 888 621 864 q 641 919 636 903 q 656 953 646 935 l 668 953 q 669 919 675 935 q 664 888 663 903 q 679 913 675 897 q 700 933 683 929 q 704 929 700 929 q 704 916 703 921 q 703 906 706 911 q 713 900 703 900 q 708 886 708 893 q 708 872 708 879 q 706 860 708 865 q 694 854 703 856 q 702 851 697 851 q 707 844 707 850 q 704 828 704 838 q 697 815 704 818 q 698 757 703 785 q 692 692 693 729 q 688 692 689 690 q 685 692 686 694 q 690 676 696 686 q 689 650 685 665 l 672 650 q 691 643 679 644 q 715 642 703 642 q 738 641 726 642 q 757 636 750 640 q 742 617 754 622 q 718 606 729 613 q 732 599 722 600 q 751 600 742 599 q 752 591 753 596 q 757 589 751 586 q 740 575 750 579 q 717 567 729 571 q 692 560 704 564 q 672 549 681 557 q 677 544 672 544 q 679 536 682 543 q 656 383 668 458 q 632 215 644 307 l 625 215 q 626 185 632 204 q 613 157 621 165 q 618 140 617 150 q 608 128 619 131 q 613 124 610 125 q 618 121 615 124 q 608 86 611 106 q 601 47 604 67 q 592 8 597 28 q 576 -29 588 -12 q 562 -15 563 -26 q 554 3 561 -3 q 542 -15 546 -7 q 521 -24 539 -24 q 513 -12 511 -15 q 521 -6 515 -8 q 532 1 526 -3 q 536 14 538 4 m 196 906 q 206 914 204 906 q 211 928 207 922 q 201 919 203 925 q 196 906 199 913 m 117 692 q 128 701 124 692 q 125 715 133 711 q 121 703 119 708 q 117 692 122 699 m 163 546 q 164 534 161 539 q 160 525 167 529 q 166 523 168 526 q 167 519 164 519 q 181 529 171 526 q 175 538 181 536 q 167 546 169 539 q 174 549 172 546 q 181 551 176 553 q 182 562 176 560 q 190 571 188 564 q 184 575 188 574 q 179 583 181 576 q 188 593 183 590 q 196 603 193 596 q 187 625 186 611 q 190 654 188 639 q 195 683 193 669 q 190 706 197 697 q 178 659 179 686 q 167 608 176 632 q 168 580 174 596 q 163 546 163 564 m 713 621 q 728 629 724 621 q 717 628 722 629 q 713 621 713 628 m 243 561 q 239 556 249 557 q 232 549 229 556 q 290 562 256 554 q 349 583 325 569 q 293 571 317 581 q 243 561 269 561 m 104 571 q 99 574 99 569 q 96 581 100 579 q 96 570 90 576 q 104 571 101 564 m 454 556 q 488 561 471 558 q 515 574 504 564 q 483 567 497 571 q 454 556 468 563 m 372 546 q 380 544 378 549 q 385 546 382 539 q 387 551 379 550 q 396 556 394 553 q 381 551 389 556 q 372 546 372 547 m 229 525 q 254 528 243 521 q 272 543 265 536 q 247 537 258 540 q 229 525 235 533 m 482 535 q 497 535 489 536 q 506 543 506 535 q 493 540 503 538 q 482 535 483 542 m 586 511 q 585 478 585 492 q 578 454 585 464 q 585 440 588 451 q 581 419 583 428 q 583 388 583 406 q 582 352 583 371 q 580 315 581 333 q 581 285 579 297 q 593 312 588 292 q 593 339 599 332 q 601 369 597 351 q 607 408 604 388 q 611 445 610 428 q 613 474 613 463 q 618 511 615 493 q 608 532 621 529 q 598 520 603 526 q 586 511 593 514 m 265 474 q 336 485 301 479 q 400 506 371 492 q 364 501 383 504 q 326 493 344 497 q 291 483 307 489 q 265 474 275 478 m 136 489 q 145 492 143 488 q 149 503 147 497 q 144 502 146 501 q 142 500 142 503 q 142 494 147 497 q 136 489 138 492 m 489 496 q 422 470 457 481 q 351 450 388 460 q 279 429 315 440 q 211 404 243 418 q 240 401 226 394 q 271 408 254 407 q 314 419 299 411 q 351 433 329 426 q 431 458 393 446 q 497 492 469 471 q 489 496 493 492 m 229 471 q 268 489 254 478 q 229 471 243 485 m 551 454 q 564 457 558 447 q 556 460 561 460 q 551 454 551 460 m 417 436 q 435 442 428 438 q 450 451 442 447 q 431 446 439 450 q 417 436 424 442 m 549 431 q 558 437 558 431 q 558 446 557 443 q 549 431 546 446 m 340 408 q 360 417 351 408 q 340 408 342 417 m 571 382 q 574 389 569 388 q 576 399 578 390 q 572 400 572 397 q 568 404 571 403 q 567 394 565 401 q 571 382 568 386 m 146 382 l 164 382 q 155 392 161 389 q 142 401 149 396 q 140 391 138 396 q 146 382 143 386 m 131 351 q 134 333 138 347 q 126 314 131 319 q 139 310 138 314 q 134 301 132 307 q 139 293 136 296 q 131 285 132 293 q 136 276 129 278 q 148 317 146 296 q 163 354 150 339 q 156 356 157 354 q 156 360 156 358 q 158 365 157 363 q 157 368 158 367 q 137 366 140 369 q 131 351 133 363 m 561 354 q 572 360 572 353 q 564 368 571 367 q 563 361 567 363 q 561 354 560 360 m 554 182 q 561 182 554 185 q 567 197 565 188 q 570 217 569 207 q 573 237 571 228 q 581 251 575 246 q 569 294 565 271 q 574 342 572 317 l 561 342 l 561 326 q 552 329 558 329 q 546 322 546 329 q 555 323 549 321 q 561 319 561 325 q 557 273 558 296 q 549 232 556 250 q 557 225 554 229 q 551 211 547 224 q 549 193 554 199 q 555 190 558 194 q 554 182 551 185 m 60 329 q 85 326 71 329 q 83 334 86 332 q 74 336 79 336 q 65 334 69 336 q 60 329 61 332 m 63 294 q 63 287 64 292 q 65 282 61 282 q 72 289 68 293 q 82 282 75 285 q 85 299 86 292 q 88 314 85 307 q 83 315 85 314 q 79 317 82 317 q 75 302 74 310 q 63 294 76 294 m 65 264 q 75 263 71 265 q 85 261 79 261 q 85 271 82 268 q 85 276 88 274 q 76 272 78 278 q 68 269 75 267 q 65 274 67 272 q 63 271 64 275 q 65 264 65 271 m 71 244 l 79 244 q 72 257 79 256 q 71 252 72 254 q 71 244 69 250 m 76 218 q 79 224 75 224 q 85 232 83 225 q 75 229 78 238 q 76 218 72 221 m 93 175 q 103 174 100 176 q 108 172 106 172 q 107 221 114 194 q 102 211 103 218 q 101 197 101 204 q 100 183 101 189 q 93 175 99 176 m 125 115 q 128 124 124 122 q 133 128 132 125 q 128 129 131 128 q 122 132 125 131 q 122 122 124 128 q 125 115 121 117 m 568 17 l 581 17 q 588 55 588 33 q 603 92 589 76 q 598 96 597 90 q 594 101 599 101 q 578 59 588 78 q 568 17 568 40 m 571 0 q 578 4 578 -3 q 581 14 578 11 q 572 12 574 17 q 571 0 571 7 z "},"О":{"ha":618,"x_min":46,"x_max":600,"o":"m 522 947 q 574 849 554 900 q 590 735 593 799 q 600 697 600 719 q 594 657 600 674 q 597 618 597 640 q 594 573 597 596 q 588 528 592 550 q 578 489 583 506 q 565 423 574 453 q 547 365 557 393 q 525 306 536 336 q 504 242 514 276 q 501 241 501 243 q 497 239 500 239 q 446 129 474 186 q 376 35 418 72 q 338 12 363 24 q 286 3 313 0 q 260 12 271 4 q 236 22 250 19 q 224 22 229 24 q 213 22 219 21 q 181 38 196 26 q 150 60 165 49 q 129 79 140 67 q 108 108 118 92 q 91 142 97 124 q 85 179 85 160 q 70 209 74 193 q 65 242 67 225 q 63 275 64 258 q 54 307 61 292 q 60 307 58 304 q 51 366 56 335 q 47 428 47 397 q 49 489 46 460 q 64 543 53 518 q 63 551 65 549 q 63 558 60 553 q 76 589 71 572 q 87 622 82 606 q 98 654 92 639 q 114 682 104 669 l 114 700 q 119 704 119 699 q 125 708 118 710 q 146 764 131 736 q 179 814 161 792 q 218 873 194 842 q 274 925 242 904 q 322 960 289 947 q 393 977 356 974 q 466 973 431 981 q 522 947 501 965 m 590 651 q 589 659 592 657 q 586 665 586 661 l 590 665 q 585 703 586 683 q 581 743 583 724 q 582 741 581 740 q 583 746 583 742 q 577 762 581 751 q 581 778 574 772 q 567 819 569 796 q 553 858 565 843 l 553 874 q 535 900 543 886 q 516 926 526 914 q 492 947 506 939 q 460 954 479 954 q 511 893 496 932 q 538 806 526 854 q 546 803 544 806 q 551 741 542 767 q 569 681 561 715 q 572 631 567 657 q 575 581 578 604 q 586 593 585 585 q 587 612 588 601 q 585 633 586 622 q 590 651 585 643 m 426 933 q 420 942 424 936 q 414 944 417 949 q 417 936 415 944 q 426 933 419 928 m 386 942 q 354 931 371 939 q 339 911 338 924 q 375 924 354 926 q 414 925 396 922 q 400 931 407 928 q 386 942 393 935 m 444 925 q 437 928 440 924 q 432 929 433 933 q 433 926 432 929 q 435 922 433 924 q 440 919 438 919 q 444 925 442 919 m 356 871 q 382 874 367 876 q 404 879 397 872 q 390 882 399 881 q 374 883 382 883 q 360 879 365 882 q 356 871 354 876 m 200 217 q 215 209 207 214 q 215 193 222 204 q 245 190 231 193 q 274 184 260 186 q 303 183 289 182 q 333 193 318 185 q 381 265 360 226 q 421 342 401 304 q 419 348 422 347 q 418 356 417 349 q 423 358 422 356 q 424 364 424 361 q 427 369 425 367 q 435 369 429 371 q 433 398 432 382 q 438 431 435 414 q 444 463 440 447 q 451 492 447 479 q 451 574 450 532 q 454 657 451 617 q 447 663 449 660 q 443 759 454 711 q 424 851 432 807 q 419 855 421 854 q 414 858 417 856 q 357 855 382 864 q 312 829 332 846 q 276 791 292 813 q 247 751 261 769 q 241 745 244 747 q 236 740 238 743 q 208 667 217 708 q 185 594 200 626 q 172 528 178 558 q 160 469 167 499 q 165 445 168 457 q 160 426 161 433 q 163 397 157 410 q 169 369 168 385 q 167 353 171 363 q 165 338 164 344 q 171 317 165 326 q 179 299 176 307 q 183 281 183 292 q 185 264 183 271 q 193 258 189 260 q 200 257 197 257 q 201 238 197 244 q 200 217 206 231 m 454 700 q 461 694 463 700 q 463 581 465 640 q 461 469 460 522 q 471 523 464 496 q 478 578 478 550 q 478 644 478 610 q 477 710 479 678 q 468 772 475 743 q 447 825 461 801 q 449 795 446 813 q 455 760 451 778 q 459 727 458 743 q 454 700 460 711 m 526 367 q 538 388 532 375 q 547 413 543 400 q 552 435 550 425 q 554 450 554 446 q 562 514 561 483 q 565 583 563 544 l 557 583 q 546 474 554 529 q 526 367 538 418 m 578 558 q 581 571 579 561 q 575 579 582 581 q 576 568 581 574 q 578 558 572 563 m 489 546 q 497 543 494 546 q 499 556 496 549 q 497 558 503 563 q 493 552 499 551 q 489 546 488 553 m 150 464 q 153 469 147 471 q 157 471 158 467 q 151 472 151 469 q 144 472 150 474 q 150 464 144 464 m 97 447 q 98 458 97 454 q 94 469 99 463 q 91 457 92 467 q 97 447 90 447 m 467 299 q 503 365 488 324 q 513 440 518 407 q 492 366 504 401 q 467 299 481 331 m 131 325 q 119 404 133 372 q 121 361 117 376 q 131 325 125 346 m 144 233 q 149 222 144 228 q 160 222 153 215 q 148 250 150 233 q 131 274 146 267 q 133 251 131 257 q 144 233 136 244 m 89 247 q 89 261 89 254 q 82 269 89 268 q 83 256 83 263 q 89 247 82 249 m 392 133 q 405 145 401 136 q 418 157 408 154 q 430 174 422 165 q 444 192 438 183 q 453 210 450 201 q 454 228 457 219 q 425 181 443 204 q 392 133 407 157 m 256 143 q 269 139 263 142 q 283 133 276 136 q 283 125 281 126 q 288 119 286 124 q 324 124 311 117 q 345 145 338 132 q 358 174 353 158 q 372 201 364 189 q 346 185 357 196 q 322 165 335 175 q 294 149 310 156 q 256 143 278 142 m 225 179 q 245 165 228 168 q 274 168 263 163 q 251 174 260 169 q 231 182 242 179 q 225 179 231 174 m 374 99 q 368 78 375 85 q 364 65 361 72 q 415 109 393 81 q 444 165 436 138 q 413 128 429 146 q 374 99 397 110 m 225 139 q 239 128 240 139 q 246 126 244 129 q 250 131 247 124 q 241 138 247 135 q 240 146 235 140 q 233 148 238 144 q 225 146 228 151 q 226 143 228 144 q 225 139 224 142 m 153 108 q 165 114 164 108 q 156 121 157 114 q 144 125 156 128 q 151 117 144 119 q 153 108 158 115 m 150 100 q 142 110 146 106 q 133 119 139 114 q 139 103 133 110 q 150 100 144 97 m 160 90 q 157 96 157 92 l 147 96 q 151 88 143 89 q 160 90 158 88 m 182 76 q 190 77 188 74 q 193 76 192 81 q 194 64 189 72 q 204 60 200 56 q 194 78 201 71 q 182 96 188 85 q 172 93 174 96 q 178 87 175 90 q 182 76 182 83 m 304 53 l 339 53 q 348 71 343 63 q 358 88 353 79 q 327 76 339 85 q 304 53 315 67 m 221 60 q 238 56 226 64 q 240 43 249 49 q 268 57 260 42 q 254 58 261 56 q 241 62 247 60 q 229 64 235 64 q 221 60 224 64 m 333 25 q 344 31 338 28 q 358 38 351 35 q 367 45 364 42 q 367 53 369 49 q 347 42 357 46 q 333 25 336 38 m 264 28 q 278 22 269 24 q 297 20 288 19 q 313 25 306 21 q 321 38 319 29 q 288 44 304 42 q 264 28 271 46 z "},"П":{"ha":836,"x_min":-1,"x_max":764,"o":"m 740 822 q 722 617 728 728 q 694 394 717 507 q 710 429 706 411 q 717 467 714 447 q 723 507 719 488 q 735 544 726 526 q 722 427 733 488 q 676 326 710 367 q 673 300 676 311 q 667 279 669 289 q 663 260 664 269 q 664 238 661 250 q 643 176 650 210 q 629 111 636 143 q 619 69 625 90 q 597 35 613 49 q 581 60 582 40 q 579 92 581 79 q 563 94 569 94 q 547 96 557 93 q 555 192 556 143 q 551 289 554 240 q 548 385 549 338 q 554 479 547 433 q 551 533 547 503 q 560 592 556 564 q 568 588 567 589 q 575 592 569 588 q 565 596 572 596 q 557 603 557 596 q 567 610 558 610 q 579 617 576 610 q 572 616 576 622 q 563 617 567 610 q 565 660 565 638 q 574 706 564 683 q 579 712 575 708 q 583 718 583 715 q 581 722 585 721 q 575 725 576 722 q 578 743 575 729 q 583 764 582 757 q 593 783 586 775 q 597 800 600 790 q 610 811 604 806 q 624 822 617 817 q 629 838 626 831 q 632 856 632 846 q 608 853 621 853 q 588 849 594 854 q 556 849 571 851 q 524 841 540 846 q 492 832 508 836 q 456 828 475 828 q 405 815 433 819 q 346 808 376 811 q 285 801 315 804 q 231 790 256 797 q 230 781 228 783 q 232 771 232 778 q 217 688 221 729 q 210 604 213 646 q 203 519 207 563 q 186 433 199 476 q 190 431 188 431 q 192 428 192 431 q 179 373 185 404 q 174 319 174 342 q 163 317 171 317 q 167 302 168 315 q 163 281 165 289 q 159 272 160 271 q 160 264 158 274 q 159 261 160 263 q 158 257 158 260 l 158 251 l 151 254 q 149 224 149 242 q 146 196 150 207 q 142 190 144 192 q 138 186 139 189 q 142 169 138 178 q 136 154 147 161 q 140 152 136 151 q 144 150 144 153 q 117 95 129 122 q 101 26 104 68 q 90 13 93 21 q 79 0 88 4 q 64 28 67 8 q 56 60 61 47 q 49 58 51 60 q 46 55 47 57 q 42 51 44 53 q 33 51 39 50 q 33 57 31 54 q 31 64 35 60 q 11 80 17 67 q 5 109 6 93 q 7 140 4 125 q 13 160 10 154 q 4 161 11 161 q 8 169 8 164 q 6 180 7 175 q 4 188 4 185 q 10 190 4 190 q 6 200 7 196 q 10 208 4 204 q 3 212 7 211 q -1 218 0 213 q 6 316 1 272 q 17 408 11 360 q 20 416 17 414 q 25 422 24 418 q 33 483 26 453 q 47 542 39 513 q 64 600 56 571 q 78 660 72 629 q 81 665 82 660 q 88 668 81 669 q 88 684 89 675 q 96 693 86 693 q 92 697 93 696 q 90 700 90 697 q 128 795 111 743 q 168 885 144 847 q 185 899 174 894 q 206 911 197 903 q 235 916 225 908 q 263 924 244 924 q 254 915 261 917 q 249 907 247 914 q 261 910 256 908 q 275 911 267 913 q 277 916 278 914 q 279 925 276 918 q 480 951 375 944 q 696 960 585 957 q 709 968 706 963 q 724 974 713 974 q 735 965 733 972 q 740 950 738 957 q 752 949 749 947 q 761 946 756 950 q 758 926 764 931 q 744 914 751 921 q 753 742 760 829 q 736 575 747 654 q 741 563 740 568 q 729 556 742 557 q 740 685 733 614 q 740 822 747 757 m 321 908 q 274 901 299 904 q 243 885 250 899 q 275 890 260 883 q 306 900 290 896 q 380 912 342 908 q 450 931 418 915 q 385 924 417 932 q 321 908 353 915 m 560 914 q 610 913 583 911 q 651 925 636 915 q 626 924 639 924 q 600 924 613 925 q 577 922 588 924 q 560 914 567 919 m 306 921 l 289 921 q 297 914 289 914 q 306 921 304 914 m 243 813 q 319 819 279 818 q 388 835 360 821 q 347 831 368 832 q 307 828 326 831 q 271 823 288 826 q 243 813 254 819 m 597 735 q 606 757 603 740 q 606 776 610 774 q 598 756 603 767 q 597 735 593 744 m 125 617 q 119 611 124 611 q 114 604 114 611 q 108 540 117 571 q 96 479 99 508 q 104 390 92 435 q 137 549 124 464 q 165 715 150 635 q 168 734 167 722 q 165 750 169 746 l 160 750 q 156 719 161 735 q 144 688 151 704 q 131 653 138 671 q 125 617 125 636 m 592 700 q 597 719 594 707 q 592 733 599 731 q 590 715 593 724 q 592 700 588 707 m 597 664 q 592 600 599 639 q 579 529 585 561 q 578 508 576 517 q 588 496 579 499 q 592 547 588 518 q 601 605 596 575 q 610 664 606 635 q 614 718 614 693 q 608 690 608 706 q 597 664 608 674 m 583 663 q 588 676 588 664 q 583 685 588 689 q 583 672 588 678 q 583 663 578 665 m 171 663 q 174 665 171 665 q 178 668 176 665 q 178 674 178 671 q 176 676 179 676 q 172 669 178 672 q 171 663 165 665 m 638 633 q 642 627 640 631 q 646 621 643 624 q 639 615 640 619 q 638 606 638 611 q 637 597 638 601 q 632 588 636 592 q 611 581 614 588 q 615 579 613 578 q 621 583 618 581 q 626 585 624 585 q 629 581 628 586 q 623 573 632 572 q 611 569 614 574 q 608 556 610 558 q 606 544 606 554 q 615 558 613 549 q 624 569 617 567 q 626 547 628 558 q 622 523 625 535 q 617 500 619 511 q 619 479 615 489 q 614 474 619 474 q 608 467 608 474 q 613 464 608 464 q 615 460 617 464 q 610 406 606 438 q 611 349 614 374 q 604 328 608 338 q 611 310 600 319 q 614 315 614 313 q 619 317 614 318 q 617 338 617 326 q 628 353 618 350 q 646 497 638 419 q 651 656 654 575 q 647 644 647 651 q 638 633 646 638 m 624 624 q 630 633 626 626 q 624 639 633 639 q 621 631 622 636 q 624 624 619 625 m 163 621 q 171 626 169 618 q 168 635 172 633 q 166 628 169 631 q 163 621 163 626 m 619 617 q 626 611 617 610 q 636 617 636 613 q 626 617 629 615 q 619 617 622 619 m 142 433 q 161 518 153 471 q 163 604 169 565 q 153 562 158 585 q 145 516 149 539 q 140 472 142 493 q 142 433 139 450 m 79 538 q 83 556 81 543 q 82 568 86 569 q 76 552 81 557 q 79 538 72 547 m 65 496 q 74 505 72 496 q 69 515 76 514 q 67 506 71 508 q 65 496 64 503 m 583 474 q 583 493 582 483 l 575 493 q 577 482 578 489 q 583 474 576 475 m 64 467 q 67 477 65 469 q 64 486 68 485 q 60 474 67 479 q 64 467 54 469 m 583 422 q 592 433 594 422 q 583 422 583 433 m 583 314 q 591 369 588 343 q 588 421 594 394 q 579 366 583 394 q 583 314 575 338 m 101 317 q 112 322 113 314 q 114 336 111 331 q 121 363 119 350 q 118 385 122 375 q 108 349 113 369 q 101 317 104 328 m 78 307 q 85 310 82 304 q 82 317 88 315 q 81 315 82 315 q 79 317 79 314 q 78 319 79 319 q 75 312 78 313 q 78 307 72 311 m 614 186 q 617 197 617 189 q 614 208 618 206 q 612 195 617 201 q 614 186 607 189 m 78 92 q 85 89 83 92 q 78 82 81 88 q 77 70 76 76 q 81 59 78 64 q 88 53 83 54 q 97 81 94 68 q 106 108 99 94 q 87 105 93 111 q 78 92 81 99 z "},"Р":{"ha":536,"x_min":39,"x_max":625,"o":"m 203 374 q 186 287 192 326 q 172 200 181 247 q 163 183 167 193 q 156 165 158 174 q 153 149 154 156 q 156 140 153 142 q 144 109 149 128 q 135 71 140 90 q 124 33 131 51 q 106 3 117 15 q 98 5 100 1 q 90 8 96 8 q 89 21 89 15 q 89 31 89 26 q 75 20 78 28 q 60 15 72 13 q 49 52 50 32 q 48 93 47 72 q 48 133 49 114 q 39 168 47 153 q 41 196 42 182 q 40 224 40 210 q 42 252 40 239 q 50 276 43 265 q 47 278 50 279 q 42 279 44 278 q 43 292 43 290 q 50 301 43 294 q 45 308 47 306 q 42 314 43 310 q 53 326 43 324 q 52 383 46 357 q 60 443 58 410 q 65 445 63 443 q 71 446 67 447 q 66 450 71 450 q 63 454 61 450 q 72 517 65 486 q 83 581 78 549 q 85 605 85 592 q 86 626 86 618 q 93 632 92 628 q 95 641 94 636 q 97 650 96 646 q 103 656 99 654 q 101 658 103 658 q 96 658 99 657 q 102 672 94 667 q 100 682 110 676 q 110 688 101 690 q 111 711 107 699 q 122 733 115 724 q 127 779 119 754 q 148 829 135 804 q 177 876 161 854 q 210 915 193 899 q 233 912 225 914 q 257 913 240 910 q 259 881 260 899 q 256 844 258 863 q 253 807 254 825 q 253 775 251 789 q 246 773 246 778 q 247 761 246 768 q 258 765 254 763 q 260 776 263 768 q 319 835 292 804 q 382 889 346 865 q 393 901 388 896 q 407 910 399 907 q 430 933 415 921 q 463 953 444 946 q 499 960 481 961 q 532 946 517 960 q 579 942 561 950 q 613 924 597 935 q 620 894 618 911 q 622 858 622 876 q 622 821 622 839 q 625 789 622 803 q 624 787 625 786 q 622 789 622 788 q 617 763 618 782 q 613 736 615 744 q 606 723 608 731 q 597 713 604 715 q 567 649 586 676 q 521 599 547 621 q 461 523 496 556 q 388 461 426 490 q 305 409 353 429 q 203 374 257 389 m 440 915 q 476 928 454 926 q 508 946 499 931 q 465 936 485 944 q 440 915 446 928 m 306 725 q 291 701 303 711 q 271 676 279 692 q 268 663 269 669 q 260 653 267 657 q 260 627 267 640 q 253 601 254 614 q 263 583 258 590 q 263 560 267 575 q 335 584 303 568 q 393 622 367 600 q 441 669 419 643 q 483 724 463 696 q 481 726 483 726 q 478 728 479 725 q 512 785 506 751 q 526 853 518 819 q 456 844 486 857 q 400 812 425 832 q 353 767 375 792 q 306 725 331 743 m 592 739 q 595 737 596 739 q 594 733 594 735 q 592 729 593 731 q 594 728 592 728 q 599 736 594 735 q 604 743 604 738 q 592 739 593 743 m 517 733 q 517 726 514 726 q 519 721 521 725 q 503 697 504 713 q 504 669 501 681 q 521 706 508 686 q 526 742 533 725 q 523 735 524 739 q 517 733 522 731 m 565 672 q 583 697 575 679 q 585 724 590 714 q 574 699 581 710 q 565 672 567 688 m 176 660 q 174 649 178 654 q 176 640 171 643 q 181 655 179 647 q 174 667 182 663 q 185 685 182 672 q 185 708 188 699 q 174 683 178 697 q 161 660 171 668 q 169 659 164 654 q 176 660 174 664 m 403 556 q 453 601 433 571 q 478 667 474 632 q 442 610 460 635 q 403 556 424 585 m 242 632 q 250 631 244 633 q 256 635 256 629 q 249 637 249 632 q 244 644 249 642 q 244 638 247 639 q 242 632 242 638 m 413 622 q 415 616 410 615 q 418 611 419 617 q 404 610 411 608 q 394 601 397 613 q 402 601 397 600 q 407 599 407 603 q 399 592 403 589 q 388 599 394 596 q 342 564 367 579 q 299 525 317 549 q 322 528 314 525 q 340 536 331 532 q 359 563 349 551 q 385 581 369 574 q 378 571 386 574 q 376 563 371 568 q 394 580 388 569 q 413 593 400 590 q 419 604 414 599 q 428 615 424 610 q 435 625 433 619 q 433 635 438 631 q 413 622 424 622 m 242 599 q 244 609 242 601 q 239 617 246 617 q 240 606 242 613 q 242 599 239 600 m 244 560 q 247 569 242 568 q 250 578 253 571 q 245 578 246 576 q 244 583 244 581 q 244 589 244 586 q 239 592 243 592 q 238 574 238 581 q 244 560 239 567 m 272 547 q 276 542 272 542 q 278 536 281 543 q 299 547 292 539 q 317 560 307 554 q 295 553 303 560 q 272 547 288 547 m 244 542 q 253 533 254 542 q 260 521 253 524 q 264 524 260 524 q 265 531 268 525 q 263 544 253 539 q 251 545 257 544 q 244 542 246 546 m 272 513 q 285 500 272 501 q 301 510 299 499 q 288 515 296 513 q 272 513 279 517 m 235 467 q 244 468 242 465 q 250 472 246 471 q 242 481 250 481 q 226 485 235 482 q 232 476 226 478 q 235 467 238 475 m 340 443 q 351 447 346 446 q 356 454 356 447 q 346 451 349 456 q 340 443 343 447 m 140 396 q 149 426 146 408 q 139 449 153 443 q 140 419 139 433 q 140 396 140 406 m 203 389 q 228 392 215 390 q 247 404 240 393 q 226 405 235 400 q 206 414 217 410 q 202 401 204 407 q 203 389 200 396 m 151 371 q 158 383 157 372 q 156 396 160 393 q 153 386 156 390 q 151 371 151 382 m 143 138 q 142 149 140 146 q 136 156 144 153 q 136 142 136 149 q 143 138 136 136 m 57 140 q 65 105 64 121 q 78 74 67 89 q 82 88 83 79 q 78 105 81 96 q 72 124 75 114 q 71 143 69 133 q 57 140 60 143 m 96 104 q 106 117 103 108 q 113 138 110 126 q 107 141 110 139 q 100 143 104 143 q 96 126 94 133 q 96 104 97 118 m 71 36 q 78 47 74 42 q 83 60 83 51 q 74 62 76 60 q 65 63 71 64 q 61 50 58 58 q 71 36 64 42 z "},"С":{"ha":594,"x_min":29,"x_max":588,"o":"m 554 900 q 553 894 557 894 q 549 890 550 893 q 568 856 564 875 q 588 821 572 836 q 568 812 581 810 q 551 800 556 814 q 546 803 546 799 q 542 807 546 808 q 539 792 542 796 q 544 786 543 790 q 551 782 544 782 q 543 763 549 774 q 530 745 538 753 q 513 735 522 738 q 493 736 503 732 q 484 730 486 735 q 476 722 482 725 q 469 735 471 725 q 472 751 468 744 q 461 757 471 758 q 446 754 451 756 q 449 767 444 764 q 457 774 454 771 q 446 787 446 775 q 436 800 446 799 q 442 806 442 801 q 442 814 442 810 q 443 821 442 818 q 451 824 444 824 q 446 832 444 826 q 446 851 447 838 q 422 853 433 857 q 401 844 411 850 q 381 830 392 838 q 361 818 371 822 q 293 743 325 782 q 242 654 261 704 q 225 626 228 644 q 211 596 222 607 q 197 528 206 563 q 179 460 188 494 q 167 391 171 426 q 169 319 164 356 q 164 315 164 318 q 165 306 164 311 q 166 295 165 300 q 163 286 167 290 q 167 272 167 281 q 168 255 168 264 q 170 238 168 246 q 178 226 172 231 q 182 189 175 207 q 203 159 189 171 q 238 145 218 147 q 282 157 258 143 q 283 167 281 164 q 286 178 286 171 q 315 211 304 190 q 338 253 326 232 q 363 294 349 275 q 403 319 378 313 q 449 343 417 347 q 474 325 468 340 q 481 290 481 310 q 476 249 481 269 q 469 214 472 228 q 488 229 479 219 q 513 233 497 239 q 511 216 513 226 q 506 197 510 206 q 497 181 503 188 q 482 175 490 175 q 492 194 489 182 q 500 218 494 207 q 443 149 463 196 q 453 154 449 150 q 463 163 458 158 q 471 170 467 167 q 479 172 475 174 q 456 139 476 149 q 421 115 436 129 q 401 91 410 104 q 382 67 393 78 q 343 38 363 49 q 304 10 324 28 q 222 1 264 -1 q 139 4 181 4 q 133 15 136 11 q 133 25 129 18 q 143 17 140 22 q 154 13 146 11 q 156 22 158 17 q 160 31 153 26 q 173 18 161 21 q 196 21 185 15 q 161 41 182 35 q 128 28 140 47 q 113 66 125 47 q 82 94 101 85 q 60 141 71 118 q 39 188 50 164 q 32 249 29 219 q 43 308 35 279 q 61 365 51 336 q 75 421 71 393 q 81 463 78 443 q 92 503 85 483 q 94 513 93 507 q 97 524 96 519 q 155 676 117 599 q 239 813 193 753 q 248 830 246 821 q 257 846 250 839 q 264 851 260 849 q 271 857 268 853 q 303 892 283 875 q 338 926 322 908 q 401 955 363 942 q 475 960 439 968 q 490 953 481 958 q 507 943 499 949 q 521 931 515 938 q 526 918 526 924 q 540 908 538 917 q 554 900 542 900 m 358 915 q 403 931 385 919 q 446 946 421 943 q 396 938 417 946 q 358 915 375 929 m 503 931 q 486 939 496 933 q 469 939 476 944 q 485 932 475 936 q 503 931 496 928 m 294 858 q 324 885 310 869 q 346 911 339 900 q 317 888 332 899 q 294 858 303 876 m 392 872 q 406 878 396 875 q 410 888 417 881 q 397 881 407 883 q 392 872 386 879 m 413 869 q 420 866 411 863 q 431 872 429 869 q 420 872 425 872 q 413 869 415 872 m 494 764 q 514 775 510 764 q 531 789 518 786 q 510 782 517 793 q 494 764 504 771 m 500 746 q 521 758 515 744 q 509 757 515 761 q 500 746 503 753 m 108 424 q 115 425 108 425 q 129 492 114 457 q 154 567 144 528 q 122 499 135 535 q 108 424 110 464 m 97 250 q 95 296 100 269 q 88 338 90 322 q 88 293 85 314 q 97 250 90 272 m 464 301 q 462 317 469 308 q 449 322 454 326 q 458 313 456 319 q 464 301 460 306 m 46 214 q 58 188 54 199 q 69 164 61 176 q 72 172 72 167 q 75 179 72 176 q 69 179 72 179 q 67 182 67 179 q 63 224 61 206 q 58 258 65 242 q 65 290 65 272 q 58 318 64 307 q 50 294 51 308 q 49 264 49 279 q 49 235 49 249 q 46 214 49 222 m 358 256 q 367 269 364 263 q 374 282 371 275 q 361 272 367 281 q 358 256 356 263 m 149 203 q 147 217 146 208 q 148 233 147 225 q 148 249 149 242 q 142 261 147 256 q 141 227 144 243 q 149 203 138 211 m 389 246 q 399 246 396 249 q 407 243 401 243 q 413 249 410 247 q 413 258 415 251 q 398 260 407 261 q 389 246 389 260 m 382 224 q 388 219 386 222 q 394 218 390 217 q 397 224 393 222 q 397 231 400 225 q 382 224 385 231 m 325 178 q 311 176 321 181 q 304 161 301 172 q 315 168 314 161 q 322 178 315 175 q 325 173 324 175 q 325 167 326 171 q 340 169 336 167 q 345 176 344 171 q 346 186 346 181 q 349 197 346 192 q 345 199 346 197 q 340 200 344 200 q 335 188 338 194 q 325 178 332 181 m 382 169 q 394 169 388 163 q 397 178 401 175 q 390 176 396 175 q 382 169 385 176 m 369 142 q 378 144 376 140 q 382 154 381 149 q 377 156 379 154 q 371 157 375 158 q 368 150 368 151 q 369 142 368 149 m 200 133 q 182 149 197 149 q 186 136 183 142 q 200 133 189 131 m 313 142 q 321 140 319 140 q 331 142 322 140 q 324 149 332 151 q 313 142 315 146 m 221 136 q 226 128 221 129 q 232 121 231 126 q 247 126 239 124 q 260 136 256 129 q 240 136 253 139 q 221 136 226 133 m 282 121 q 289 123 285 122 q 294 126 293 124 q 292 133 289 125 q 289 139 296 140 q 285 129 286 133 q 282 121 285 125 m 346 121 q 363 128 357 118 q 354 139 368 138 q 349 131 351 135 q 346 121 347 126 m 193 97 q 211 99 204 96 q 224 110 218 103 q 200 117 211 110 q 178 121 189 125 q 188 112 185 118 q 193 97 190 106 m 106 97 q 97 110 107 107 q 106 97 94 96 m 318 94 q 331 100 325 97 q 338 110 336 103 q 327 103 331 110 q 318 94 324 97 m 215 85 q 236 88 226 82 q 242 103 246 94 q 226 94 235 97 q 215 85 218 92 m 239 79 q 257 88 253 78 q 247 85 250 88 q 239 79 243 82 m 182 58 q 203 67 199 56 q 184 78 193 69 q 163 79 175 86 q 173 71 167 75 q 182 58 179 67 m 297 43 q 328 44 315 36 q 351 58 340 53 q 360 72 351 65 q 361 82 368 79 q 328 63 346 71 q 297 43 311 56 m 197 28 q 210 26 201 25 q 224 29 218 26 q 234 35 231 32 q 233 40 238 38 q 215 35 225 38 q 197 28 204 33 m 239 13 q 275 13 251 10 q 310 28 299 17 q 273 33 290 43 q 239 13 256 22 z "},"У":{"ha":424,"x_min":-25,"x_max":533,"o":"m 42 696 l 31 696 q 15 737 28 719 q 3 775 3 754 q -3 769 -3 775 q -14 765 -4 763 q -11 776 -11 769 q -3 782 -11 783 q -16 812 -14 792 q -25 847 -18 832 q -19 852 -22 850 q -8 851 -15 854 q -5 867 -4 858 q -8 883 -6 875 q -12 899 -10 892 q -14 914 -15 907 q 9 912 -1 914 q 25 903 19 910 q 33 904 32 900 q 38 910 35 908 q 72 877 58 897 q 97 835 86 857 q 119 790 108 813 q 143 751 129 768 l 143 739 q 163 710 154 724 q 176 676 172 696 q 194 649 189 665 q 211 621 199 632 q 213 615 210 617 q 208 614 215 614 q 230 574 224 597 q 250 535 236 550 q 269 569 263 551 q 288 604 275 586 q 289 620 283 615 q 297 631 294 625 q 299 642 300 636 q 300 653 297 647 q 315 678 307 663 q 331 710 324 694 q 337 728 336 718 q 343 749 338 738 q 351 758 346 754 q 360 768 357 763 q 361 777 363 772 q 363 785 360 782 q 368 788 364 788 q 372 790 372 788 q 372 794 374 793 q 372 799 371 796 q 376 803 374 801 q 382 807 379 804 q 385 819 385 813 q 389 831 386 825 q 403 847 394 839 q 415 869 413 854 q 440 875 431 868 q 456 890 449 882 q 471 905 463 899 q 492 910 479 911 q 504 916 499 913 q 519 917 510 919 q 525 901 524 910 q 533 889 526 893 q 528 881 531 885 q 522 874 525 876 l 522 860 q 511 844 515 853 q 507 821 507 836 q 474 756 486 793 q 442 692 463 719 q 429 644 440 667 q 407 597 418 621 q 399 561 401 581 q 382 529 396 542 q 378 517 382 519 q 379 506 375 515 q 371 492 372 501 q 360 479 369 482 q 353 446 360 463 q 338 412 346 429 q 322 378 329 394 q 314 344 315 361 q 305 333 307 340 q 301 318 303 326 q 295 303 299 310 q 283 293 292 296 q 274 263 281 281 q 258 228 267 246 q 241 192 250 210 q 228 158 232 174 q 203 111 219 135 q 176 61 188 88 q 151 2 169 24 q 107 -43 133 -19 l 85 -43 q 78 13 72 -15 q 90 69 85 40 q 93 93 93 81 q 96 117 93 106 q 101 124 97 121 q 107 133 104 128 q 110 151 110 142 q 113 168 110 161 q 127 212 118 188 q 138 263 136 236 q 148 273 146 267 q 150 285 150 279 q 151 295 150 290 q 160 304 151 300 q 167 341 165 324 q 185 369 169 358 q 185 390 179 379 q 196 407 190 400 q 164 437 175 418 q 136 467 153 456 q 157 463 149 474 q 165 440 165 453 l 172 440 q 149 493 167 469 q 119 542 132 517 q 116 538 115 540 q 119 534 117 536 q 122 531 121 532 q 118 529 122 529 q 114 533 115 531 q 112 538 113 536 q 109 542 111 540 q 101 543 107 544 q 104 550 101 550 q 107 554 107 550 q 99 565 101 563 q 93 585 100 578 q 77 600 86 593 q 60 614 68 607 q 47 633 51 621 q 33 639 42 633 q 29 651 33 646 q 22 661 25 656 q 38 649 31 658 q 53 632 46 640 q 69 619 61 624 q 85 619 76 614 q 70 631 74 622 q 61 650 67 640 q 68 651 67 649 q 74 653 69 654 q 72 660 74 658 q 68 664 69 661 q 60 660 65 661 q 51 661 56 658 q 58 667 50 669 q 64 672 65 665 q 56 690 58 683 q 44 708 53 697 q 42 703 40 708 q 42 696 44 699 m 76 846 q 72 858 72 850 q 64 863 72 865 q 68 851 67 857 q 76 846 69 846 m 494 824 q 498 841 504 843 q 494 824 492 839 m 85 824 q 83 832 89 828 q 76 843 78 836 l 76 832 q 83 830 83 835 q 85 824 82 825 m 14 771 q 19 778 14 775 q 18 785 24 782 q 15 782 18 779 q 11 788 11 785 q 10 806 14 794 q 0 824 6 818 q 3 794 -3 811 q 14 771 10 778 m 85 821 q 103 776 88 797 q 135 735 119 756 q 118 775 128 754 q 93 804 108 796 q 94 814 94 804 q 85 821 93 824 m 401 788 q 409 792 406 786 q 407 801 413 799 q 404 795 407 797 q 401 788 401 793 m 11 761 q 21 763 15 763 q 25 771 26 764 q 11 761 14 771 m 33 725 q 38 740 40 729 q 25 751 35 751 q 28 735 28 743 q 33 725 28 726 m 129 703 q 136 698 133 704 q 143 697 139 692 q 138 708 140 704 q 132 715 135 713 q 131 709 133 710 q 129 703 128 708 m 179 614 q 185 600 183 608 q 194 590 186 592 q 209 550 200 574 q 235 515 218 526 q 199 608 224 563 q 143 692 175 654 q 158 649 146 668 q 179 614 171 631 m 124 611 q 124 622 126 614 q 118 633 121 631 q 119 619 119 626 q 124 611 118 613 m 175 235 q 183 253 178 242 q 192 278 188 265 q 200 301 197 290 q 201 318 203 311 q 184 278 193 299 q 175 235 175 258 m 149 219 q 160 247 151 231 q 163 269 168 263 q 152 244 158 258 q 149 219 146 231 m 165 204 q 173 219 167 211 q 169 232 179 226 q 166 217 169 225 q 165 204 163 208 m 135 167 q 138 178 135 172 q 142 190 140 185 q 145 201 144 196 q 140 213 146 207 q 134 189 142 197 q 135 167 126 181 m 100 -21 q 106 4 107 -11 q 104 32 106 19 l 96 32 q 92 1 92 17 q 100 -21 93 -14 z "},"Х":{"ha":539,"x_min":0,"x_max":583,"o":"m 476 47 q 472 39 476 40 q 467 31 468 38 q 470 28 467 28 q 474 26 474 29 q 468 13 467 19 q 464 0 469 7 q 443 12 449 1 q 432 33 438 22 q 410 51 417 42 q 393 75 403 60 q 384 82 386 72 q 378 96 382 92 q 370 103 372 101 q 363 113 368 104 q 340 138 353 124 q 315 167 326 151 q 297 190 304 179 q 279 214 289 201 q 273 222 278 215 q 262 235 268 228 q 251 249 256 243 q 244 256 246 256 q 235 251 239 256 q 228 240 231 246 q 222 228 225 233 q 214 224 218 222 q 199 197 208 208 q 178 174 189 185 q 158 151 168 163 q 143 125 149 140 q 133 122 138 122 q 99 76 122 96 q 51 42 75 57 q 38 31 46 39 q 24 24 31 22 q 9 31 14 24 q 2 49 4 39 q 1 72 0 60 q 3 93 1 83 q 6 99 4 99 q 10 104 8 99 q 9 110 11 107 q 8 117 7 114 q 15 129 10 122 q 21 143 19 136 q 32 185 25 164 q 50 214 39 206 q 70 267 58 243 q 94 313 82 290 q 119 358 107 335 q 138 411 131 382 q 111 463 126 438 q 89 518 96 489 q 76 534 82 525 q 72 554 69 543 q 49 607 61 574 q 36 672 36 640 q 25 701 28 685 q 21 735 22 717 q 17 771 19 753 q 10 804 15 789 q 16 821 13 814 q 18 839 19 828 q 48 850 33 851 q 75 840 63 849 q 99 815 88 831 q 119 786 110 800 q 144 739 135 765 q 172 693 153 713 q 172 687 174 689 q 169 682 169 685 q 184 662 178 674 q 197 638 190 650 q 209 615 203 626 q 224 599 215 604 q 222 593 225 594 q 221 586 219 592 q 231 596 228 588 q 242 599 235 604 q 241 603 242 600 q 241 611 240 607 q 244 618 242 615 q 253 619 246 621 q 262 647 251 633 q 283 669 272 661 q 281 679 281 675 q 299 699 292 689 q 310 724 307 708 q 339 758 325 742 q 363 797 353 774 q 390 832 381 811 q 419 864 399 853 q 490 956 449 917 q 568 1042 532 996 q 578 1033 576 1038 q 581 1022 581 1028 q 581 1010 581 1017 q 583 997 581 1003 q 563 949 568 978 q 542 899 558 921 q 547 893 542 893 q 551 888 551 893 q 525 826 540 856 q 494 767 510 796 q 466 708 479 738 q 446 646 453 678 l 438 646 q 414 591 425 618 q 388 539 403 564 q 378 518 390 522 q 378 506 382 513 q 367 497 374 499 q 364 478 368 486 q 355 461 360 469 q 344 443 350 453 q 339 422 339 433 q 327 412 328 422 q 321 396 326 401 q 331 374 329 389 q 346 349 332 358 q 349 333 344 342 q 358 315 353 324 q 366 298 363 306 q 367 286 369 290 q 373 279 375 283 q 381 274 371 275 q 384 254 379 263 q 394 239 389 246 q 402 225 399 232 q 401 211 406 218 q 418 186 415 204 q 429 154 421 168 q 435 150 432 151 q 440 146 439 149 q 444 126 443 139 q 450 104 446 114 q 458 92 453 100 q 461 89 464 85 q 467 67 463 76 q 476 47 471 58 m 51 815 q 59 817 58 818 q 65 818 60 815 q 82 788 72 801 q 96 756 92 774 q 110 747 106 754 q 116 730 114 739 q 122 713 118 721 q 133 703 125 706 q 140 682 131 688 q 154 667 149 676 q 180 606 161 631 q 208 554 199 582 q 214 559 211 554 q 218 568 217 564 q 219 574 219 572 q 214 572 218 576 q 172 658 197 619 q 131 742 147 696 q 112 767 119 751 q 95 797 104 782 q 74 823 86 811 q 42 839 61 835 q 42 830 40 832 q 47 826 44 828 q 51 823 49 825 q 51 815 53 821 m 426 825 q 435 833 429 832 q 446 839 442 835 q 429 836 436 842 q 426 825 422 831 m 342 571 q 371 625 357 599 q 396 688 385 651 q 363 631 376 665 q 342 571 350 597 m 68 622 q 75 619 72 622 q 74 634 79 626 q 68 649 69 642 q 67 638 65 646 q 68 622 69 631 m 119 544 q 113 547 117 546 q 107 550 108 547 q 94 585 101 569 q 75 614 86 601 q 97 557 86 585 q 125 506 108 529 q 121 501 126 500 q 117 494 115 501 q 127 490 122 493 q 135 489 132 486 q 141 473 138 482 q 138 458 144 464 q 151 458 147 461 q 158 450 156 454 q 157 463 160 457 q 150 473 154 468 q 144 483 146 478 q 146 494 142 489 q 134 503 139 496 q 126 519 129 511 q 119 534 122 528 q 110 536 115 540 q 114 540 111 539 q 119 544 117 542 m 383 565 q 397 584 390 572 q 401 607 404 596 q 392 587 397 596 q 383 565 386 578 m 297 533 q 315 560 304 543 q 318 586 325 576 q 305 559 315 571 q 297 533 294 547 m 328 550 q 342 563 339 550 q 339 565 339 563 q 336 568 339 567 q 331 560 332 565 q 328 550 331 554 m 176 503 q 172 519 172 510 q 161 529 171 528 q 166 510 163 521 q 176 503 169 499 m 176 274 q 190 293 183 283 q 200 315 197 303 q 197 317 197 315 q 193 321 196 319 q 183 296 192 307 q 176 274 174 285 m 281 242 q 276 263 282 254 q 263 265 269 272 q 270 253 265 258 q 281 242 275 247 m 363 253 q 370 250 365 250 q 375 256 375 250 q 369 258 372 257 q 364 260 367 260 q 363 253 365 256 m 294 226 q 318 191 307 210 q 349 161 329 172 q 320 204 338 186 q 286 242 303 222 q 285 233 281 236 q 294 226 290 229 m 18 89 q 27 105 21 96 q 29 122 33 114 q 19 117 22 122 q 17 104 17 111 q 17 92 17 97 q 18 89 18 88 z "}}}
